SplineFontDB: 3.2
FontName: ArchitunMedium
FullName: Architun Medium
FamilyName: Architun
Weight: Medium
Copyright: Copyright (c) 2022, Sayhone
UComments: "2022-8-16: Created with FontForge (http://fontforge.org)"
Version: 001.000
ItalicAngle: 0
UnderlinePosition: -100
UnderlineWidth: 50
Ascent: 800
Descent: 200
InvalidEm: 0
LayerCount: 2
Layer: 0 0 "Back" 1
Layer: 1 0 "Fore" 0
XUID: [1021 501 -1863293109 2110]
StyleMap: 0x0000
FSType: 0
OS2Version: 0
OS2_WeightWidthSlopeOnly: 0
OS2_UseTypoMetrics: 1
CreationTime: 1660707410
ModificationTime: 1660923489
OS2TypoAscent: 0
OS2TypoAOffset: 1
OS2TypoDescent: 0
OS2TypoDOffset: 1
OS2TypoLinegap: 90
OS2WinAscent: 0
OS2WinAOffset: 1
OS2WinDescent: 0
OS2WinDOffset: 1
HheadAscent: 0
HheadAOffset: 1
HheadDescent: 0
HheadDOffset: 1
Lookup: 1 0 0 "'dnom' Denominators lookup 0" { "'dnom' Denominators lookup 0 subtable"  } ['dnom' ('DFLT' <'dflt' > ) ]
Lookup: 1 0 0 "'numr' Numerators lookup 0" { "'numr' Numerators lookup 0 subtable"  } ['numr' ('DFLT' <'dflt' > ) ]
Lookup: 1 0 0 "'ss01' Style Set 1 in Latin lookup 0" { "'ss01' Style Set 1 in Latin lookup 0-1"  } ['ss01' ('DFLT' <'dflt' > 'latn' <'dflt' > ) ]
Lookup: 1 0 0 "'ss02' Style Set 2 in Latin lookup 1" { "'ss02' Style Set 2 in Latin lookup 1-1"  } ['ss02' ('DFLT' <'dflt' > 'latn' <'dflt' > ) ]
Lookup: 1 0 0 "'ss03' Style Set 3 in Latin lookup 2" { "'ss03' Style Set 3 in Latin lookup 2-1"  } ['ss03' ('DFLT' <'dflt' > 'latn' <'dflt' > ) ]
Lookup: 1 0 0 "'ss04' Style Set 4 in Latin lookup 3" { "'ss04' Style Set 4 in Latin lookup 3-1"  } ['ss04' ('DFLT' <'dflt' > 'latn' <'dflt' > ) ]
Lookup: 1 0 0 "'ss05' Style Set 5 in Latin lookup 4" { "'ss05' Style Set 5 in Latin lookup 4-1"  } ['ss05' ('DFLT' <'dflt' > 'latn' <'dflt' > ) ]
Lookup: 1 0 0 "'ss06' Style Set 6 in Latin lookup 5" { "'ss06' Style Set 6 in Latin lookup 5-1"  } ['ss06' ('DFLT' <'dflt' > 'latn' <'dflt' > ) ]

StartChar: H
Encoding: 72 72 0
Width: 542
Flags: HMW
LayerCount: 2
Fore
SplineSet
87.80078125 586 m 0
 105.801757812 630 140.634765625 663.166015625 167.80078125 636 c 0
 188.80078125 615 181.80078125 436 181.80078125 362 c 0
 181.80078125 288 172.80078125 133.602539062 172.80078125 120 c 0
 172.80078125 92 168.94140625 52.5390625 159.80078125 37 c 0
 149.80078125 20 135.80078125 0 107.80078125 0 c 0
 87.357421875 0 77.80078125 21 77.80078125 36 c 0
 77.80078125 148.040039062 75.6396484375 238.249023438 77.2099609375 312 c 0
 78.87109375 389.982421875 79.337890625 565.314453125 87.80078125 586 c 0
44.80078125 332 m 0
 124.551757812 409.258789062 220.80078125 437 308.80078125 437 c 0
 396.80078125 437 472.80078125 400 487.80078125 383 c 0
 502.80078125 366 495.80078125 306 468.80078125 300 c 0
 441.80078125 294 426.80078125 325 307.80078125 328 c 0
 188.80078125 331 126.813476562 233.510742188 56.80078125 235 c 0
 9.80078125 236 12.80078125 301 44.80078125 332 c 0
401.80078125 608 m 0
 415.80078125 640 460.634765625 652.166015625 487.80078125 625 c 0
 508.80078125 604 501.80078125 436 501.80078125 362 c 0
 501.80078125 288 492.80078125 147.602539062 492.80078125 134 c 0
 492.80078125 106 490.411132812 68.8310546875 478.80078125 34 c 0
 472.80078125 16 458.7890625 0.6982421875 438.80078125 0 c 0
 419.00390625 -0.69140625 398.80078125 21 397.80078125 54 c 0
 394.80078125 102 397.203125 233.993164062 397.209960938 312 c 0
 397.209960938 390 392.8359375 587.508789062 401.80078125 608 c 0
EndSplineSet
Validated: 524325
EndChar

StartChar: A
Encoding: 65 65 1
Width: 530
Flags: HMW
LayerCount: 2
Fore
SplineSet
39.0576171875 234 m 0
 118.80859375 311.258789062 173.057617188 345 269.057617188 345 c 0
 371.057617188 345 410.057617188 303 425.057617188 286 c 0
 440.057617188 269 455.057617188 208 428.057617188 202 c 0
 401.057617188 196 423.095703125 230 304.057617188 230 c 0
 100.057617188 230 104.057617188 137 51.0576171875 137 c 0
 4.046875 137 7.0576171875 203 39.0576171875 234 c 0
193.057617188 603 m 0
 209.057617188 631 238.057617188 644.850585938 278.057617188 635 c 0
 318.092773438 625.140625 342.057617188 565 386.057617188 449 c 0
 430.057617188 333 504.057617188 122 512.057617188 76 c 0
 520.057617188 30 515.057617188 12 494.057617188 0 c 0
 470.6953125 -13.349609375 443.057617188 -6 419.057617188 34 c 0
 395.057617188 74 336.057617188 285 308.057617188 363 c 0
 280.057617188 441 266.057617188 483 266.057617188 483 c 1
 236.65234375 437.2578125 193.057617188 228 177.057617188 172 c 0
 161.057617188 116 156.057617188 79 140.057617188 39 c 4
 124.057617188 -1 91.0576171875 -24 69.0576171875 -20 c 4
 47.0576171875 -16 34.251953125 11.1591796875 47.0576171875 74 c 4
 65.8271484375 166.104492188 169.829101562 562.349609375 193.057617188 603 c 0
EndSplineSet
EndChar

StartChar: I
Encoding: 73 73 2
Width: 498
Flags: MW
LayerCount: 2
Fore
SplineSet
26.4638671875 559 m 4
 27.4638671875 615 111.458984375 634.071289062 250.463867188 644 c 4
 404.463867188 655 466.463867188 643 463.463867188 586 c 4
 460.047851562 521.08984375 366.463867188 533 242.463867188 522 c 4
 158.579101562 514.55859375 124.463867188 510 92.4638671875 510 c 4
 54.802734375 510 25.892578125 526.989257812 26.4638671875 559 c 4
26.4638671875 39 m 0
 27.4638671875 95 111.458984375 124.071289062 250.463867188 134 c 0
 404.463867188 145 466.463867188 133 463.463867188 76 c 0
 460.047851562 11.08984375 366.463867188 23 242.463867188 12 c 0
 158.579101562 4.55859375 124.463867188 0 92.4638671875 0 c 0
 54.802734375 0 25.892578125 6.9892578125 26.4638671875 39 c 0
296.272460938 581 m 0
 304.272460938 559 305.272460938 554 305.272460938 492 c 0
 305.272460938 430 304.272460938 430 304.272460938 322 c 0
 304.272460938 213.92578125 301.272460938 85 291.272460938 72 c 0
 281.272460938 59 271.272460938 50 246.272460938 50 c 0
 221.272460938 50 197.272460938 56 195.272460938 104 c 0
 193.272460938 152 190.272460938 573 196.272460938 591 c 0
 202.272460938 609 215.272460938 621 237.272460938 621 c 0
 259.272460938 621 286.180664062 608.751953125 296.272460938 581 c 0
EndSplineSet
Validated: 524325
EndChar

StartChar: R
Encoding: 82 82 3
Width: 496
Flags: HMW
LayerCount: 2
Fore
SplineSet
97.63671875 610 m 1
 97.63671875 610 183.63671875 658 279.63671875 658 c 0
 370.63671875 658 455.63671875 604 455.63671875 493 c 0
 455.63671875 428.96875 413.63671875 360 347.63671875 308 c 0
 289.192382812 261.953125 177.776367188 222 143.776367188 247 c 0
 109.776367188 272 149.63671875 312 171.63671875 322 c 0
 193.63671875 332 201.63671875 328 253.63671875 361 c 0
 305.63671875 394 339.63671875 426 339.63671875 473 c 0
 339.63671875 532 302.63671875 552 257.63671875 552 c 0
 184.63671875 552 133.776367188 471 107.776367188 470 c 0
 81.7763671875 469 31.63671875 473 33.63671875 524 c 0
 35.63671875 575 97.63671875 610 97.63671875 610 c 1
103.63671875 499 m 0
 107.63671875 545 116.943359375 622.346679688 179.63671875 591 c 0
 205.63671875 578 198.513671875 450.609375 196.588867188 331 c 0
 194.650390625 210.490234375 193.64453125 78.052734375 191.63671875 64 c 0
 187.63671875 36 169.63671875 4 143.63671875 0 c 0
 117.63671875 -4 95.63671875 19 95.63671875 53 c 0
 95.63671875 101.041992188 94.0478515625 268.987304688 95.63671875 327 c 0
 97.63671875 400 99.63671875 453 103.63671875 499 c 0
350.63671875 344 m 0
 409.63671875 317 453.041015625 270.333984375 460.686523438 160.485351562 c 0
 466.63671875 75 452.264648438 19.7236328125 419.650390625 -0.923828125 c 0
 392.758789062 -17.9482421875 353.217773438 -0.47265625 360.774414062 70.62109375 c 0
 369.63671875 154 351.63671875 248 288.63671875 267 c 0
 225.63671875 286 236.63671875 316 261.63671875 334 c 0
 297.126953125 359.552734375 322.098632812 357.059570312 350.63671875 344 c 0
EndSplineSet
EndChar

StartChar: C
Encoding: 67 67 4
Width: 495
Flags: HMW
LayerCount: 2
Fore
SplineSet
364.192382812 430 m 4
 362.88671875 406.499023438 361.981445312 380.438476562 391.192382812 380 c 4
 409.301757812 379.728515625 455.192382812 400 453.192382812 494 c 4
 451.192382812 588 401.192382812 648 317.192382812 648 c 4
 255.063476562 648 184.985351562 615.142578125 123.192382812 525 c 4
 73.8359375 453 39.8359375 365 37.1923828125 242 c 4
 33.2666015625 59.33984375 143.192382812 -4 237.192382812 -10 c 0
 331.192382812 -16 400.479492188 16.6357421875 441.000976562 80 c 0
 484.698242188 148.329101562 447.526367188 192.041015625 392.000976562 144 c 0
 360.116210938 116.413085938 319.192382812 88 255.192382812 92 c 0
 191.192382812 96 136.103515625 117.103515625 144.192382812 259 c 4
 149.8359375 358 168.555664062 400.93359375 194.192382812 452 c 4
 229.8359375 523 271.223632812 548.333007812 305.192382812 550 c 4
 350.53125 552.224609375 368.192382812 502 364.192382812 430 c 4
EndSplineSet
Validated: 524329
Substitution2: "'ss01' Style Set 1 in Latin lookup 0-1" C.ss01
EndChar

StartChar: N
Encoding: 78 78 5
Width: 514
Flags: HMW
LayerCount: 2
Fore
SplineSet
95.1787109375 635 m 1
 38.1787109375 626 50.1787109375 536 43.1787109375 160 c 0
 40.755859375 29.8837890625 56.1787109375 0 86.1787109375 0 c 0
 116.178710938 0 135.15234375 40.767578125 142.178710938 150 c 0
 153.178710938 321 150.178710938 407 150.178710938 407 c 1
 150.178710938 407 200.025390625 302.3359375 264.178710938 162 c 0
 296.178710938 92 339.178710938 0 393.178710938 0 c 0
 447.178710938 0 473.178710938 69 471.178710938 350 c 0
 470.295898438 473.997070312 477.178710938 579 438.178710938 624 c 0
 405.748046875 661.419921875 367.178710938 639 367.178710938 599 c 4
 367.178710938 559 361.178710938 195 361.178710938 195 c 5
 361.178710938 195 294.653320312 348.8828125 267.178710938 405 c 0
 173.178710938 597 136.178710938 638 95.1787109375 635 c 1
EndSplineSet
Validated: 524329
EndChar

StartChar: U
Encoding: 85 85 6
Width: 497
Flags: HMW
LayerCount: 2
Fore
SplineSet
54.509765625 591 m 0
 56.514881403 624.674586161 87.509765625 636 104.509765625 636 c 0
 115.911132812 636 161.647492709 631.81146022 156.509765625 562 c 0
 145.038012398 406.121762209 135.325006944 315.229149005 126 230 c 0
 115.008750911 129.541650532 161.636915037 90.4467528655 223.509765625 98 c 0
 330 111 363.509765625 173 363.509765625 416 c 0
 363.509765625 512 361.509765625 544 359.509765625 566 c 0
 352.988677513 637.731969232 384.509765625 644 408.509765625 644 c 0
 432.509765625 644 464.509765625 628 470.509765625 514 c 0
 477.55970587 380.051135344 472.509765625 224 425.509765625 117 c 0
 390.614257812 37.556640625 318 0 224.509765625 -10 c 4
 79.337890625 -25.5283203125 8.66664172075 110.731052622 25.509765625 236 c 4
 41.2181704132 352.829594319 45.7121000974 443.2490576 54.509765625 591 c 0
EndSplineSet
Substitution2: "'ss05' Style Set 5 in Latin lookup 4-1" U.ss05
EndChar

StartChar: T
Encoding: 84 84 7
Width: 490
Flags: HMW
LayerCount: 2
Fore
SplineSet
276.000976562 577 m 0
 284.000976562 555 285.000976562 530 285.000976562 468 c 0
 285.000976562 406 284.000976562 420 284.000976562 312 c 0
 284.000976562 203.92578125 283.452148438 105 269.452148438 55 c 0
 260.92578125 24.548828125 241.452148438 0 216.452148438 0 c 0
 191.452148438 0 175.452148438 18 175.000976562 50 c 0
 174.323242188 98.037109375 185.000976562 569 191.000976562 587 c 0
 197.000976562 605 215.000976562 617 237.000976562 617 c 0
 259.000976562 617 265.909179688 604.751953125 276.000976562 577 c 0
26.4521484375 524 m 4
 27.4521484375 580 111.447265625 629.071289062 250.452148438 639 c 4
 404.452148438 650 466.452148438 638 463.452148438 581 c 4
 460.036132812 516.08984375 366.452148438 538 242.452148438 527 c 4
 158.567382812 519.55859375 124.73828125 492.458984375 92.4521484375 485 c 4
 55.7578125 476.522460938 25.880859375 491.989257812 26.4521484375 524 c 4
EndSplineSet
Validated: 524325
EndChar

StartChar: G
Encoding: 71 71 8
Width: 542
Flags: HMW
LayerCount: 2
Fore
SplineSet
337.868164062 549 m 0
 295.868164062 552 241.513671875 523.209960938 206.1875 452 c 0
 180.793945312 400.8125 161.831054688 358 156.1875 259 c 0
 148.098632812 117.103515625 203.1875 96 267.1875 92 c 0
 306.029296875 89.572265625 358.868164062 105 383.868164062 148 c 0
 391.97265625 161.939453125 393.53125 243.616210938 392.868164062 292 c 1
 392.868164062 292 369.930664062 286.298828125 341.868164062 287 c 0
 301.868164062 288 296.053710938 312.09375 298.868164062 333 c 0
 305.868164062 385 389.868164062 411 434.868164062 410 c 0
 479.868164062 409 488.868164062 391 491.868164062 300 c 0
 494.868164062 209 492.868164062 136 466.1875 89 c 0
 427.8359375 21.44140625 343.1875 -16 249.1875 -10 c 0
 155.1875 -4 45.26171875 59.33984375 49.1875 242 c 0
 51.8310546875 365 85.8310546875 453 135.1875 525 c 0
 196.98046875 615.142578125 263.739257812 654 325.868164062 654 c 0
 409.868164062 654 444.868164062 616 450.868164062 584 c 0
 456.868164062 552 437.868164062 526 401.868164062 526 c 0
 368.807617188 526 372.793945312 546.504882812 337.868164062 549 c 0
EndSplineSet
Substitution2: "'ss09' Style Set 9 in Latin lookup 8-1" G.ss09
EndChar

StartChar: C.ss01
Encoding: 65536 -1 9
Width: 495
Flags: HW
LayerCount: 2
Fore
SplineSet
194.192382812 452 m 4
 230.518554688 523.209960938 283.874023438 552 325.874023438 549 c 4
 360.799804688 546.504882812 356.813476562 526 389.874023438 526 c 4
 425.874023438 526 444.874023438 552 438.874023438 584 c 4
 432.874023438 616 397.874023438 654 313.874023438 654 c 4
 251.745117188 654 185.986328125 615.142578125 123.192382812 525 c 4
 73.8359375 453 39.8359375 365 37.1923828125 242 c 0
 33.2666015625 59.33984375 143.192382812 -4 237.192382812 -10 c 0
 331.192382812 -16 400.479492188 16.6357421875 441.000976562 80 c 0
 484.698242188 148.329101562 447.526367188 192.041015625 392.000976562 144 c 0
 360.116210938 116.413085938 319.192382812 88 255.192382812 92 c 0
 191.192382812 96 136.103515625 117.103515625 144.192382812 259 c 0
 149.8359375 358 168.555664062 400.93359375 194.192382812 452 c 4
EndSplineSet
Validated: 524329
EndChar

StartChar: D
Encoding: 68 68 10
Width: 530
Flags: HMW
LayerCount: 2
Fore
SplineSet
107.217773438 499 m 0
 111.217773438 545 120.524414062 622.346679688 183.217773438 591 c 0
 209.217773438 578 202.094726562 530.609375 200.169921875 411 c 0
 198.231445312 290.490234375 197.225585938 78.052734375 195.217773438 64 c 0
 191.217773438 36 173.217773438 4 147.217773438 0 c 0
 121.217773438 -4 99.2177734375 19 99.2177734375 53 c 0
 99.2177734375 101.041992188 97.62890625 268.987304688 99.2177734375 327 c 0
 101.217773438 400 103.217773438 453 107.217773438 499 c 0
492.866210938 351 m 0
 492.866210938 214.092773438 463.3984375 149.072265625 400.866210938 83 c 0
 347.866210938 27 263.543945312 -10.23828125 193.857421875 -10 c 0
 155.08984375 -9.8671875 132.977539062 -3.4931640625 118.857421875 8 c 0
 79.2744140625 40.220703125 143.841796875 88.599609375 169.857421875 89 c 0
 234.857421875 90 276.299804688 109.546875 310 141 c 0
 355 183 382.866210938 247.44921875 382.866210938 353 c 0
 382.866210938 499 336.217773438 552 261.217773438 552 c 0
 188.217773438 552 143 464 117 463 c 0
 91 462 35.2177734375 473 37.2177734375 524 c 0
 39.2177734375 575 101.217773438 610 101.217773438 610 c 1
 101.217773438 610 187.217773438 658 283.217773438 658 c 0
 404.217773438 658 492.866210938 553 492.866210938 351 c 0
EndSplineSet
EndChar

StartChar: S
Encoding: 83 83 11
Width: 516
Flags: HMW
LayerCount: 2
Fore
SplineSet
262.5 555 m 0
 195.5 555 138.5 501 138.5 450 c 0
 138.5 419.74609375 156.37890625 403 182.5 403 c 0
 249.5 403 264.5 425 342.5 425 c 0
 430.5 425 482.5 352.10546875 482.5 266 c 0
 482.5 164 460.815429688 0.109375 216.5 -10 c 0
 71.5 -16 54.5 99 54.5 136 c 0
 54.5 160.819335938 74.9921875 184 106 184 c 0
 133 184 157.5 172 159.5 142 c 0
 161.77734375 107.841796875 172.502011458 92.7279790369 230.5 94 c 0
 340.703125 96.4169921875 378.5 162 378.5 240 c 0
 378.5 288 353.5 329 313.5 329 c 0
 249.462890625 329 218.5 300 150.5 300 c 0
 82.5 300 33.5 357 33.5 427 c 0
 33.5 597 220.5 655 286.5 655 c 0
 352.5 655 408 617 410 534 c 0
 411.112304688 487.83984375 396.5 465 360.5 465 c 0
 344.5 465 310 476 309 502 c 0
 307.380859375 544.1015625 295.560546875 555 262.5 555 c 0
EndSplineSet
Validated: 524321
Substitution2: "'ss04' Style Set 4 in Latin lookup 3-1" S.ss04
EndChar

StartChar: P
Encoding: 80 80 12
Width: 487
Flags: HMW
LayerCount: 2
Fore
SplineSet
96.5419921875 610 m 1
 96.5419921875 610 182.541992188 658 278.541992188 658 c 0
 369.541992188 658 454.541992188 594 454.541992188 483 c 0
 454.541992188 358.96875 388.541992188 283 322.272460938 238.44140625 c 0
 260.52734375 196.924804688 172.48828125 166.329101562 139.509765625 192.662109375 c 0
 106.532226562 218.995117188 124.190429688 260.32421875 146.5703125 269.44140625 c 0
 168.951171875 278.55859375 176.786132812 274.243164062 230.057617188 305.147460938 c 0
 283.329101562 336.052734375 338.541992188 376 338.541992188 463 c 0
 338.541992188 522 301.541992188 552 256.541992188 552 c 0
 183.541992188 552 137 473 111 472 c 4
 85 471 30.5419921875 473 32.5419921875 524 c 0
 34.5419921875 575 96.5419921875 610 96.5419921875 610 c 1
102.541992188 499 m 0
 106.541992188 545 115.848632812 622.346679688 178.541992188 591 c 0
 204.541992188 578 197.418945312 450.609375 195.494140625 331 c 0
 193.555664062 210.490234375 192.549804688 78.052734375 190.541992188 64 c 0
 186.541992188 36 168.541992188 4 142.541992188 0 c 0
 116.541992188 -4 94.5419921875 19 94.5419921875 53 c 0
 94.5419921875 101.041992188 92.953125 268.987304688 94.5419921875 327 c 0
 96.5419921875 400 98.5419921875 453 102.541992188 499 c 0
EndSplineSet
EndChar

StartChar: L
Encoding: 76 76 13
Width: 419
Flags: MW
LayerCount: 2
Fore
SplineSet
51.96484375 596 m 0
 53.96484375 628 153.96484375 651.1171875 153.96484375 583 c 0
 153.96484375 538 145.068359375 417.250976562 135.96484375 287 c 0
 132.78125 241.46484375 129.96484375 214.299804688 129.96484375 176 c 0
 129.96484375 120 151.028320312 100.284179688 191.96484375 91 c 0
 288.96484375 69 314.21484375 112.278320312 361.96484375 96 c 0
 405.96484375 81 409.732421875 18.4365234375 351.96484375 0 c 0
 304.96484375 -15 267.96484375 -16 221.96484375 -16 c 0
 105.96484375 -16 26.2333984375 36.005859375 23.96484375 136 c 0
 21.6845703125 236.484375 50.4560546875 571.860351562 51.96484375 596 c 0
EndSplineSet
Validated: 524321
EndChar

StartChar: O
Encoding: 79 79 14
Width: 544
Flags: HMW
LayerCount: 2
Fore
SplineSet
284.92578125 523.379882812 m 0
 203.438476562 511.125 147.436523438 421.362304688 145.446289062 274.220703125 c 0
 143.708984375 145.796875 189.33203125 94.638671875 268.005859375 106.2734375 c 0
 338.14453125 116.646484375 398.452148438 207.456054688 396.686523438 374.440429688 c 0
 395.516601562 484.98828125 354.047851562 533.775390625 284.92578125 523.379882812 c 0
281.0703125 638 m 0
 376.149414062 646.8984375 505.0703125 601 505.0703125 389 c 0
 505.0703125 122.796875 396.012695312 0.662109375 258.0703125 -10 c 0
 110.517578125 -21.4052734375 35.2236328125 87.9970703125 39.0703125 286 c 0
 43.3037109375 503.874023438 177.529296875 628.309570312 281.0703125 638 c 0
EndSplineSet
EndChar

StartChar: B
Encoding: 66 66 15
Width: 509
Flags: HMW
LayerCount: 2
Fore
SplineSet
98.2177734375 610 m 1
 98.2177734375 610 184.217773438 658 280.217773438 658 c 0
 371.217773438 658 456.217773438 604 456.217773438 493 c 0
 456.217773438 428.96875 409.123046875 377.171875 371.857421875 353 c 0
 334.857421875 329 202.217773438 300 168.217773438 325 c 0
 134.217773438 350 137.857421875 361 159.857421875 371 c 0
 181.857421875 381 213 339 265 372 c 0
 317 405 340.217773438 446 340.217773438 473 c 0
 340.217773438 532 303.217773438 552 258.217773438 552 c 0
 185.217773438 552 136 463 110 462 c 4
 84 461 32.2177734375 473 34.2177734375 524 c 0
 36.2177734375 575 98.2177734375 610 98.2177734375 610 c 1
104.217773438 499 m 0
 108.217773438 545 117.524414062 622.346679688 180.217773438 591 c 0
 206.217773438 578 199.094726562 530.609375 197.169921875 411 c 0
 195.231445312 290.490234375 194.225585938 78.052734375 192.217773438 64 c 0
 188.217773438 36 170.217773438 4 144.217773438 0 c 0
 118.217773438 -4 96.2177734375 19 96.2177734375 53 c 0
 96.2177734375 101.041992188 94.62890625 268.987304688 96.2177734375 327 c 0
 98.2177734375 400 100.217773438 453 104.217773438 499 c 0
438.857421875 92 m 0
 372.34375 14.9765625 280.543945312 -10.2392578125 210.857421875 -10 c 0
 172.08984375 -9.8671875 129.977539062 -3.4931640625 115.857421875 8 c 0
 76.2744140625 40.220703125 140.841796875 88.599609375 166.857421875 89 c 0
 231.857421875 90 313.52734375 86.0234375 353.857421875 151 c 0
 371.857421875 180 384.21484375 237.911132812 340.041992188 277.022460938 c 0
 304.852539062 308.1796875 267.44140625 304.577148438 207.857421875 289 c 0
 181.537109375 282.119140625 170.857421875 274 152.857421875 270 c 0
 129.267578125 264.7578125 108.036132812 275.970703125 111.857421875 318 c 0
 115.678710938 360.028320312 156.078125 372.532226562 229.296875 385.763671875 c 0
 311.981445312 400.706054688 341.041015625 392.263671875 406.857421875 346 c 0
 481.73046875 293.372070312 498.315429688 160.852539062 438.857421875 92 c 0
EndSplineSet
EndChar

StartChar: E
Encoding: 69 69 16
Width: 426
Flags: HMW
LayerCount: 2
Fore
SplineSet
217.836914062 364 m 4
 263.380859375 370.461914062 291.836914062 376 326.836914062 363 c 4
 364.823242188 348.890625 365.35546875 296.362304688 337.836914062 280 c 4
 300.836914062 258 276.852539062 258.817382812 206.696289062 248.86328125 c 4
 161.15234375 242.401367188 124.434570312 228.528320312 75.7373046875 236.44140625 c 4
 18.2822265625 245.778320312 22.3193359375 304.2109375 52.3505859375 320.084960938 c 4
 96.951171875 343.66015625 147.680664062 354.045898438 217.836914062 364 c 4
145.345703125 437.416992188 m 0
 142.287109375 392.509765625 140.403320312 361.99609375 139.265625 289.873046875 c 0
 138.545898438 244.232421875 137.198242188 196.955078125 139.265625 158.7109375 c 0
 142.288085938 102.79296875 154.881835938 88.8173828125 196.801757812 91 c 0
 292.836914062 96 319.051757812 112.278320312 366.801757812 96 c 0
 410.801757812 81 414.569335938 18.4365234375 356.801757812 0 c 0
 309.801757812 -15 262.801757812 -16 216.801757812 -16 c 0
 100.801757812 -16 43.2421875 13.322265625 35.5791015625 113.047851562 c 0
 30.5546875 178.438476562 17.61328125 393.428710938 35.927734375 498.571289062 c 0
 52.60546875 594.314453125 101.127929688 617.840820312 215.977539062 634.13671875 c 0
 261.521484375 640.598632812 298.239257812 644.471679688 346.936523438 636.55859375 c 0
 404.391601562 627.221679688 400.354492188 568.7890625 370.323242188 552.915039062 c 0
 325.72265625 529.33984375 274.836914062 530 204.836914062 519 c 0
 163.369140625 512.483398438 149.4375 497.484375 145.345703125 437.416992188 c 0
EndSplineSet
EndChar

StartChar: F
Encoding: 70 70 17
Width: 427
Flags: MW
LayerCount: 2
Fore
SplineSet
221.291015625 330 m 0
 266.834960938 336.461914062 295.291015625 346 330.291015625 333 c 0
 368.27734375 318.890625 368.809570312 266.362304688 341.291015625 250 c 0
 304.291015625 228 280.306640625 224.817382812 210.150390625 214.86328125 c 0
 164.606445312 208.401367188 127.888671875 198.528320312 79.19140625 206.44140625 c 0
 21.736328125 215.778320312 25.7734375 274.2109375 55.8046875 290.084960938 c 0
 100.405273438 313.66015625 151.134765625 320.045898438 221.291015625 330 c 0
142.291015625 155 m 0
 142.291015625 84.4130859375 143.291015625 47 139.14453125 32.0478515625 c 0
 132.794921875 9.1533203125 116.14453125 0.0478515625 91.14453125 0.0478515625 c 0
 66.14453125 0.0478515625 43.111328125 6.09765625 40.14453125 54.0478515625 c 0
 38.291015625 84 22.58984375 394.631835938 39.3818359375 498.571289062 c 0
 54.880859375 594.512695312 99.58203125 617.840820312 214.431640625 634.13671875 c 0
 259.975585938 640.598632812 301.693359375 642.471679688 350.390625 634.55859375 c 0
 407.845703125 625.221679688 403.80859375 566.7890625 373.77734375 550.915039062 c 0
 329.176757812 527.33984375 273.291015625 530 203.291015625 519 c 0
 161.823242188 512.483398438 152.891601562 497.484375 148.799804688 437.416992188 c 0
 145.741210938 392.509765625 143.857421875 361.99609375 142.719726562 289.873046875 c 0
 142 244.232421875 142.291015625 190 142.291015625 155 c 0
EndSplineSet
Validated: 524325
EndChar

StartChar: J
Encoding: 74 74 18
Width: 412
Flags: HMW
LayerCount: 2
Fore
SplineSet
358.821289062 492.618164062 m 0
 355.257966353 554.573160687 353.982311404 579.605423569 345.014648438 601.532226562 c 0
 333.702148438 629.192382812 306.262695312 641.198242188 284.270507812 641 c 0
 262.278320312 640.801757812 249.8125 628.685546875 244.608398438 610.6328125 c 0
 241.024414062 598.197265625 264 357 257.950195312 203.267578125 c 0
 254.820456333 123.737348965 229 108 202.411132812 105 c 0
 149.855263843 99.0701645619 130.471679688 128 97.4111328125 128 c 0
 61.4111328125 128 42.4111328125 102 48.4111328125 70 c 0
 54.4111328125 38 120.411132812 -20 204.411132812 -10 c 0
 256.73046875 -3.771484375 312.521776672 20.4784357509 349 101 c 0
 383.229605393 176.557993742 369.557985936 305.940708013 358.821289062 492.618164062 c 0
EndSplineSet
EndChar

StartChar: K
Encoding: 75 75 19
Width: 496
Flags: HMW
LayerCount: 2
Fore
SplineSet
149.046875 597 m 0
 157.046875 575 158.046875 550 158.046875 488 c 0
 158.046875 426 157.046875 430 157.046875 322 c 0
 157.046875 213.92578125 154.046875 35 144.046875 22 c 0
 134.046875 9 124.046875 0 99.046875 0 c 0
 74.046875 0 50.046875 6 48.046875 54 c 0
 46.046875 102 43.046875 589 49.046875 607 c 0
 55.046875 625 68.046875 637 90.046875 637 c 0
 112.046875 637 138.955078125 624.751953125 149.046875 597 c 0
441.245117188 520.490234375 m 0
 435.412109375 447.23046875 395.541015625 373.959960938 323.719726562 316.240234375 c 0
 260.12109375 265.127929688 164.842773438 207.459960938 127.84375 235.209960938 c 0
 90.845703125 262.959960938 108.256835938 309.580078125 132.197265625 320.6796875 c 0
 156.137695312 331.780273438 164.842773438 327.33984375 221.428710938 363.969726562 c 0
 278.015625 400.599609375 300.26953125 431.690429688 319.856445312 513.830078125 c 0
 334.360351562 574.65234375 345.319335938 647.322265625 398.413085938 629.26953125 c 0
 418.000976562 622.610351562 447.272460938 596.19140625 441.245117188 520.490234375 c 0
339.134765625 344 m 0
 398.134765625 317 441.5390625 270.333984375 449.184570312 160.485351562 c 0
 455.134765625 75 440.762695312 19.7236328125 408.1484375 -0.923828125 c 0
 381.256835938 -17.9482421875 331.715820312 -0.47265625 339.272460938 70.62109375 c 0
 348.134765625 154 340.134765625 248 277.134765625 267 c 0
 214.134765625 286 225.134765625 316 250.134765625 334 c 0
 285.625 359.552734375 310.596679688 357.059570312 339.134765625 344 c 0
EndSplineSet
Substitution2: "'ss07' Style Set 7 in Latin lookup 6-1" K.ss07
Substitution2: "'ss06' Style Set 6 in Latin lookup 5-1" K.ss06
EndChar

StartChar: M
Encoding: 77 77 20
Width: 614
Flags: HMW
LayerCount: 2
Fore
SplineSet
313.809570312 371.92578125 m 1
 345.19921875 453.26953125 382.411868066 646.319047432 449.838867188 630.268554688 c 0
 506.489887348 616.783203125 538.209498102 538.03125 567.521484375 164.478515625 c 0
 577.701873327 34.7393674679 559.135742188 2.90625 529.27734375 0 c 0
 499.41796875 -2.9072265625 467.765766482 34.7829900161 460.002929688 143.96484375 c 0
 448.293512722 308.654104186 426.720635489 408.77943359 426.171875 408.93359375 c 1
 426.171875 408.93359375 382.27734375 202 314.27734375 202 c 0
 246.27734375 202 196.510742188 398.2578125 196.510742188 398.2578125 c 5
 197.072265625 397.272460938 180.79296875 312.26171875 155.458007812 132.01953125 c 0
 140.22265625 23.626953125 112.045898438 -13.7216796875 82.27734375 -10 c 0
 52.5087890625 -6.279296875 36.2900390625 25.9013671875 48.5400390625 155.461914062 c 0
 84.5361328125 536.157226562 122.583007812 615.348632812 178.900390625 617.86328125 c 4
 245.580078125 620.840820312 281.583007812 450.666015625 313.809570312 371.92578125 c 1
EndSplineSet
EndChar

StartChar: Q
Encoding: 81 81 21
Width: 524
Flags: HMW
LayerCount: 2
Fore
SplineSet
298 57 m 0
 271.671875 94.720703125 231.099609375 166.067382812 226.897460938 203.166015625 c 4
 222.336914062 243.430664062 268.966796875 267.62109375 295.990234375 250.454101562 c 4
 332.325195312 227.372070312 365.209961415 157.146484708 405.764648438 99.041015625 c 0
 432.091796875 61.3203125 455.534179688 44.876953125 483.02734375 3.9130859375 c 0
 515.465820312 -44.419921875 470.040039062 -81.39453125 437.9296875 -70.3125 c 0
 390.243164062 -53.8525390625 338.556018454 -1.10522139473 298 57 c 0
274.92578125 523.379882812 m 0
 202.749023438 517.270507812 147.436523438 441.362304688 145.446289062 294.220703125 c 0
 143.708984375 165.796875 188.685546875 100.505859375 258.005859375 106.2734375 c 0
 318.095703125 111.2734375 378.452148438 187.456054688 376.686523438 354.440429688 c 0
 375.516601562 464.98828125 334 528.379882812 274.92578125 523.379882812 c 0
271.0703125 638 m 0
 356.138671875 641.20703125 485.0703125 581 485.0703125 369 c 0
 485.0703125 102.796875 376 -5 248.0703125 -10 c 0
 110.17578125 -15.3896484375 35.2236328125 107.997070312 39.0703125 306 c 0
 43.3037109375 523.874023438 177.13671875 634.458984375 271.0703125 638 c 0
EndSplineSet
EndChar

StartChar: V
Encoding: 86 86 22
Width: 549
Flags: HMW
LayerCount: 2
Fore
SplineSet
329.584960938 29.05859375 m 0
 313.584960938 1.05859375 284.584960938 -12.7919921875 244.584960938 -2.94140625 c 0
 204.549804688 6.91796875 190.584960938 67.05859375 146.584960938 183.05859375 c 0
 102.584960938 299.05859375 48.5849609375 510.05859375 40.5849609375 556.05859375 c 4
 32.5849609375 602.05859375 37.5849609375 620.05859375 58.5849609375 632.05859375 c 4
 81.947265625 645.408203125 109.584960938 638.05859375 133.584960938 598.05859375 c 4
 157.584960938 558.05859375 213.013671875 354 234.584960938 269.05859375 c 0
 254.983398438 188.735351562 272.013671875 125 272.013671875 125 c 1
 282.442382812 181.94140625 353.013671875 408 371.584960938 460.05859375 c 4
 391.153320312 514.913085938 401.013671875 547 417.013671875 587 c 4
 433.013671875 627 457.013671875 637 479.013671875 633 c 4
 501.013671875 629 518.013671875 606 510.013671875 552 c 4
 493.908203125 443.287109375 352.813476562 69.708984375 329.584960938 29.05859375 c 0
EndSplineSet
EndChar

StartChar: W
Encoding: 87 87 23
Width: 614
Flags: HMW
LayerCount: 2
Fore
SplineSet
300.190429688 288.662109375 m 1
 276 148 240.000947366 0.0389566009671 174.161132812 0.3193359375 c 0
 106.740955812 0.606445259183 71.4721699566 92.5566411973 46.478515625 466.109375 c 0
 37.7906742322 595.957009926 54.8642578125 627.681640625 84.72265625 630.587890625 c 0
 114.58203125 633.495117188 144.290528216 595.649290782 153.997070312 486.623046875 c 0
 168.424914354 324.565990101 188.185296842 221.46129045 187.828125 221.654296875 c 1
 187.828125 221.654296875 204 320 207.000976562 364 c 0
 212.660373 446.977470215 241.895507812 518.587890625 299.72265625 518.587890625 c 0
 355.345703125 518.587890625 383.650301534 438.302014852 393.000976562 356 c 0
 398 312 417.489257812 222.330078125 417.489257812 222.330078125 c 1
 416.838343094 222.330086785 437.666503209 320.252780021 458.541992188 488.568359375 c 0
 472.014454314 597.194570259 501.954101562 634.309570312 531.72265625 630.587890625 c 0
 561.491210938 626.8671875 574.662632696 594.938430869 565.459960938 465.125976562 c 0
 539.071916227 92.8974609375 480.06593856 1.8603515625 415.000976562 0 c 0
 348.282338557 -1.90763382701 314 158 300.190429688 288.662109375 c 1
EndSplineSet
EndChar

StartChar: X
Encoding: 88 88 24
Width: 495
Flags: HMW
LayerCount: 2
Fore
SplineSet
452.41796875 538.05859375 m 0
 429.41796875 492.05859375 328.646484375 343.19140625 287.998046875 270.971679688 c 4
 245.012695312 194.600585938 154.524414062 53.26171875 123.181640625 18.712890625 c 0
 91.8388671875 -15.8349609375 63.2978515625 -17.6513671875 42.9892578125 0 c 0
 24.734375 15.8671875 23.3427734375 34.49609375 40.1640625 78.0517578125 c 0
 56.9853515625 121.606445312 150.40234375 274.15234375 215.831054688 379.5625 c 4
 280.834960938 484.288085938 369.41796875 665.05859375 434.41796875 642.05859375 c 0
 463.08984375 631.913085938 480.424804688 594.073242188 452.41796875 538.05859375 c 0
452.41796875 104 m 0
 480.424804688 47.9853515625 463.08984375 10.1455078125 434.41796875 0 c 0
 369.41796875 -23 270.834960938 141.770507812 205.831054688 246.49609375 c 0
 140.40234375 351.90625 56.1171875 512.857421875 45.09375 558.227539062 c 0
 34.0703125 603.598632812 37.869140625 621.889648438 58.029296875 635.251953125 c 0
 80.4580078125 650.1171875 108.521484375 644.610351562 135.11328125 606.28515625 c 0
 161.706054688 567.958984375 235.012695312 431.458007812 277.998046875 355.086914062 c 0
 318.646484375 282.8671875 429.41796875 150 452.41796875 104 c 0
EndSplineSet
EndChar

StartChar: Y
Encoding: 89 89 25
Width: 509
Flags: HMW
LayerCount: 2
Fore
SplineSet
266.765625 324.936523438 m 0
 281.819460921 298.722601274 276.928710938 261.677734375 257.408203125 247.396484375 c 0
 235.69140625 231.509765625 198.378118516 247.059817839 179.06640625 272.764648438 c 0
 100.01164893 377.990384867 50.3335478855 473.818206444 31 529 c 0
 12.138671875 582.833984375 21 618 53 631 c 0
 82.5440907993 643.002286887 117.285822936 636.40124834 137 585 c 0
 154.70703125 538.83203125 205.685543141 431.298019604 266.765625 324.936523438 c 0
468.318359375 540.595703125 m 0
 447.71875 492.965820312 392 380 324.784179688 270.971679688 c 0
 256.535468178 160.267944395 151.055664062 42.4931640625 113.115234375 14.4736328125 c 0
 75.17578125 -13.5458984375 46.75 -10.0498046875 30.4375 10.978515625 c 0
 15.7763671875 29.880859375 18.2568359375 48.369140625 43.787109375 87.8876953125 c 0
 69.3154296875 127.40625 187.260742188 274.15234375 255.026367188 379.5625 c 0
 322.3515625 484.288085938 379.080078125 661.40625 445.077148438 643.173828125 c 0
 474.189453125 635.130859375 493.401367188 598.595703125 468.318359375 540.595703125 c 0
EndSplineSet
EndChar

StartChar: Z
Encoding: 90 90 26
Width: 549
Flags: HMW
LayerCount: 2
Fore
SplineSet
56.4638671875 39 m 0
 57.4638671875 95 141.458984375 124.071289062 280.463867188 134 c 0
 434.463867188 145 496.463867188 133 493.463867188 76 c 0
 490.047851562 11.08984375 396.463867188 23 272.463867188 12 c 0
 188.579101562 4.55859375 154.463867188 0 122.463867188 0 c 0
 84.802734375 0 55.892578125 6.9892578125 56.4638671875 39 c 0
56.4638671875 559 m 4
 57.4638671875 615 141.458984375 634.071289062 280.463867188 644 c 4
 434.463867188 655 496.463867188 643 493.463867188 586 c 4
 490.047851562 521.08984375 396.463867188 533 272.463867188 522 c 4
 188.579101562 514.55859375 154.463867188 510 122.463867188 510 c 4
 84.802734375 510 55.892578125 526.989257812 56.4638671875 559 c 4
485.017578125 538.05859375 m 0
 460.997070312 492.05859375 366.924804688 343.19140625 324.674804688 270.971679688 c 0
 279.997070312 194.600585938 176.375 69.26171875 144.265625 34.712890625 c 0
 112.157226562 0.1650390625 83.5751953125 -1.6513671875 63.658203125 16 c 0
 45.755859375 31.8671875 44.77734375 50.49609375 62.564453125 94.0517578125 c 0
 80.3505859375 137.606445312 187.15234375 274.15234375 254.916992188 379.5625 c 0
 322.2421875 484.288085938 400.973632812 657 465.463867188 634 c 0
 493.911132812 623.854492188 514.267578125 594.073242188 485.017578125 538.05859375 c 0
EndSplineSet
Validated: 524325
EndChar

StartChar: zero
Encoding: 48 48 27
Width: 524
Flags: HMW
LayerCount: 2
Fore
SplineSet
274.92578125 523.379882812 m 0
 203.317199103 512.470263473 147.436523438 441.362304688 145.446289062 274.220703125 c 0
 143.916992188 145.793945312 189.213347907 95.9699891205 258.005859375 106.2734375 c 0
 318.095703125 115.2734375 378.452148438 207.456054688 376.686523438 374.440429688 c 0
 375.516601562 484.98828125 334 532.379882812 274.92578125 523.379882812 c 0
271.0703125 638 m 0
 356.138671875 645.20703125 485.0703125 601 485.0703125 389 c 0
 485.0703125 122.796875 376 -1 248.0703125 -10 c 0
 110.410731137 -19.6845091743 35.5458984375 87.9912109375 39.0703125 286 c 0
 43.3037109375 523.874023438 177.405540734 630.064676666 271.0703125 638 c 0
EndSplineSet
Substitution2: "'dnom' Denominators lookup 0 subtable" zero.dnom
Substitution2: "'numr' Numerators lookup 0 subtable" zero.numr
EndChar

StartChar: one
Encoding: 49 49 28
Width: 251
Flags: HMW
LayerCount: 2
Fore
SplineSet
118 513 m 4
 106.727539062 510 95.13671875 507.377929688 67 508 c 4
 26.9970703125 508.884765625 21.185546875 533.09375 24 554 c 0
 31 606 115 642 160 641 c 0
 205 640 224.739257812 622 227.739257812 531 c 0
 227.94140625 519.846679688 228 507.006835938 228 492 c 0
 228 430 227 430 227 322 c 0
 227 213.92578125 224 35 214 22 c 0
 204 9 194 0 169 0 c 0
 144 0 120 6 118 54 c 0
 116 102 113 593 119 611 c 1
 118.9921875 610.991210938 154.556640625 595.3125 155 586 c 0
 156 565 148.727539062 526 118 513 c 4
EndSplineSet
Substitution2: "'dnom' Denominators lookup 0 subtable" one.dnom
Substitution2: "'numr' Numerators lookup 0 subtable" one.numr
EndChar

StartChar: two
Encoding: 50 50 29
Width: 456
Flags: HMW
LayerCount: 2
Fore
SplineSet
16.46875 27 m 0
 17.46875 83 101.463867188 112.071289062 240.46875 122 c 0
 394.46875 133 436.46875 121 433.46875 64 c 0
 430.052734375 -0.91015625 356.46875 11 232.46875 0 c 0
 148.583984375 -7.44140625 114.46875 -12 82.46875 -12 c 0
 44.8076171875 -12 15.8974609375 -5.0107421875 16.46875 27 c 0
103.004882812 7 m 0
 59.0048828125 -31 -20.7705078125 8.2412109375 49.0048828125 78 c 0
 163.245117188 192.212890625 302.004882812 348.490234375 302.004882812 463 c 4
 302.004882812 505.305664062 284.657423445 541.495227198 220.8125 535.509765625 c 0
 156.8125 529.509765625 138.8125 475.509765625 110.8125 453.509765625 c 0
 82.8125 431.509765625 21.2626953125 443.159179688 41.8125 518.509765625 c 0
 56.8125 573.509765625 144.8125 643.509765625 238.8125 647.509765625 c 0
 332.918630778 651.514281828 418.8125 608.215820312 418.8125 465.509765625 c 4
 418.8125 295 282.3203125 161.864257812 103.004882812 7 c 0
EndSplineSet
Substitution2: "'dnom' Denominators lookup 0 subtable" two.dnom
Substitution2: "'numr' Numerators lookup 0 subtable" two.numr
EndChar

StartChar: h
Encoding: 104 104 31
Width: 542
Flags: HMW
LayerCount: 2
Fore
SplineSet
87.80078125 586 m 0
 105.801757812 630 140.634765625 663.166015625 167.80078125 636 c 0
 188.80078125 615 181.80078125 436 181.80078125 362 c 0
 181.80078125 288 172.80078125 133.602539062 172.80078125 120 c 0
 172.80078125 92 168.94140625 52.5390625 159.80078125 37 c 0
 149.80078125 20 135.80078125 0 107.80078125 0 c 0
 87.357421875 0 77.80078125 21 77.80078125 36 c 0
 77.80078125 148.040039062 75.6396484375 238.249023438 77.2099609375 312 c 0
 78.87109375 389.982421875 79.337890625 565.314453125 87.80078125 586 c 0
44.80078125 332 m 0
 124.551757812 409.258789062 220.80078125 437 308.80078125 437 c 0
 396.80078125 437 472.80078125 400 487.80078125 383 c 0
 502.80078125 366 495.80078125 306 468.80078125 300 c 0
 441.80078125 294 426.80078125 325 307.80078125 328 c 0
 188.80078125 331 126.813476562 233.510742188 56.80078125 235 c 0
 9.80078125 236 12.80078125 301 44.80078125 332 c 0
401.80078125 608 m 0
 415.80078125 640 460.634765625 652.166015625 487.80078125 625 c 0
 508.80078125 604 501.80078125 436 501.80078125 362 c 0
 501.80078125 288 492.80078125 147.602539062 492.80078125 134 c 0
 492.80078125 106 490.411132812 68.8310546875 478.80078125 34 c 0
 472.80078125 16 458.7890625 0.6982421875 438.80078125 0 c 0
 419.00390625 -0.69140625 398.80078125 21 397.80078125 54 c 0
 394.80078125 102 397.203125 233.993164062 397.209960938 312 c 0
 397.209960938 390 392.8359375 587.508789062 401.80078125 608 c 0
EndSplineSet
EndChar

StartChar: three
Encoding: 51 51 32
Width: 528
Flags: HMW
LayerCount: 2
Fore
SplineSet
55.4638671875 569 m 0
 56.4638671875 625 120.458984375 634.071289062 259.463867188 644 c 0
 413.463867188 655 465.463867188 643 462.463867188 586 c 0
 459.047851562 521.08984375 375.463867188 543 251.463867188 532 c 0
 167.579101562 524.55859375 153.463867188 520 121.463867188 520 c 0
 83.802734375 520 54.892578125 536.989257812 55.4638671875 569 c 0
454.017578125 538.05859375 m 0
 429.997070312 492.05859375 396.700195312 450.682617188 355 410 c 0
 314 370 283.9453125 351.3203125 247 322 c 0
 210.0546875 292.6796875 200.434570312 290.908203125 183.404296875 311.357421875 c 0
 168.094726562 329.740234375 162.123046875 354.150390625 194.07421875 388.684570312 c 0
 236 434 281 482 309 524 c 0
 378.060546875 627.58984375 369.973632812 657 434.463867188 634 c 0
 462.911132812 623.854492188 483.267578125 594.073242188 454.017578125 538.05859375 c 0
183.404296875 311.357421875 m 0
 175.650390625 325.07421875 220.7421875 353.283203125 233 360 c 0
 379 440 461.5 348.10546875 461.5 252 c 0
 461.5 137 413 0 195.5 -10 c 0
 50.529296875 -16.6650390625 33.5 89 33.5 126 c 0
 33.5 150.819335938 53.9921875 174 85 174 c 0
 112 174 126.5 162 128.5 132 c 0
 130.77734375 97.841796875 181.510742188 92.7294921875 199.5 94 c 0
 309.493164062 101.771484375 349.5 162 349.5 240 c 0
 349.5 282.42578125 323.31640625 303.047851562 282 302 c 0
 248.993164062 301.163085938 200 282 183.404296875 311.357421875 c 0
EndSplineSet
Substitution2: "'dnom' Denominators lookup 0 subtable" three.dnom
Substitution2: "'numr' Numerators lookup 0 subtable" three.numr
Substitution2: "'ss08' Style Set 8 in Latin lookup 7-1" three.ss08
EndChar

StartChar: four
Encoding: 52 52 33
Width: 510
Flags: HMW
LayerCount: 2
Fore
SplineSet
22 254 m 0
 51.4400528395 362.66972998 103.095229608 548.21266473 109.969726562 599.669921875 c 0
 116.146659771 645.905747215 148.356445312 658.279296875 174.286132812 651.094726562 c 0
 197.595703125 644.63671875 206.873046875 628.421875 210.44921875 581.869140625 c 0
 214.026367188 535.31640625 169.472112625 347.307278388 117.927734375 219.19921875 c 0
 105.926757812 189.372070312 70.04296875 168.057617188 45.732421875 179.58984375 c 0
 23.8798828125 189.95703125 14.0955910996 224.823082909 22 254 c 0
386.272460938 491 m 0
 394.272460938 469 395.272460938 444 395.272460938 382 c 0
 395.272460938 320 394.272460938 337 394.272460938 322 c 0
 394.272460938 213.92578125 391.272460938 35 381.272460938 22 c 0
 371.272460938 9 361.272460938 0 336.272460938 0 c 0
 311.272460938 0 287.272460938 6 285.272460938 54 c 0
 283.272460938 102 280.272460938 483 286.272460938 501 c 0
 292.272460938 519 305.272460938 531 327.272460938 531 c 0
 349.272460938 531 376.180664062 518.751953125 386.272460938 491 c 0
26.4521484375 214 m 4
 27.4521484375 270 131.447265625 319.071289062 270.452148438 329 c 4
 424.452148438 340 486.452148438 328 483.452148438 271 c 4
 480.036132812 206.08984375 386.452148438 228 262.452148438 217 c 4
 178.567382812 209.55859375 124.73828125 182.458984375 92.4521484375 175 c 4
 55.7578125 166.522460938 25.880859375 181.989257812 26.4521484375 214 c 4
EndSplineSet
Validated: 524325
Substitution2: "'dnom' Denominators lookup 0 subtable" four.dnom
Substitution2: "'numr' Numerators lookup 0 subtable" four.numr
EndChar

StartChar: five
Encoding: 53 53 34
Width: 512
Flags: HMW
LayerCount: 2
Fore
SplineSet
95 584 m 0
 101 639 133 638 292.452148438 653 c 0
 396.572265625 662.794921875 468.452148438 652 465.452148438 595 c 0
 462.036132812 530.08984375 358.9765625 547.565429688 284.452148438 541 c 0
 205 534 182 528 164.452148438 529 c 0
 126.852539062 531.142578125 91.5283203125 552.172851562 95 584 c 0
46.267578125 384.41015625 m 0
 75.7080078125 493.080078125 85.095703125 528.212890625 91.9697265625 579.669921875 c 0
 98.146484375 625.905273438 130.356445312 638.278320312 156.286132812 631.094726562 c 0
 179.595703125 624.63671875 201.7421875 616.609375 199 570 c 0
 196 519 193.740234375 477.717773438 142.1953125 349.609375 c 0
 130.194335938 319.782226562 94.310546875 298.467773438 70 310 c 0
 48.1474609375 320.3671875 38.36328125 355.233398438 46.267578125 384.41015625 c 0
56.404296875 322.357421875 m 0
 48.650390625 336.07421875 83.7421875 379.283203125 96 386 c 0
 242 466 464.5 438.10546875 464.5 272 c 0
 464.5 157 416 0 198.5 -10 c 0
 53.529296875 -16.6650390625 36.5 89 36.5 126 c 0
 36.5 150.819335938 56.9921875 174 88 174 c 0
 115 174 129.5 162 131.5 132 c 0
 133.77734375 97.841796875 184.510742188 92.7294921875 202.5 94 c 0
 312.493164062 101.771484375 352.5 182 352.5 260 c 0
 352.5 372.42578125 196.31640625 314.047851562 155 313 c 0
 121.993164062 312.163085938 73 293 56.404296875 322.357421875 c 0
EndSplineSet
Substitution2: "'dnom' Denominators lookup 0 subtable" five.dnom
Substitution2: "'numr' Numerators lookup 0 subtable" five.numr
EndChar

StartChar: six
Encoding: 54 54 35
Width: 513
Flags: HMW
LayerCount: 2
Fore
SplineSet
207.244140625 569.357421875 m 4
 121.993164062 479 38.82421875 365 36.1806640625 242 c 4
 32.2548828125 59.33984375 107.29296875 -18.791015625 236.180664062 -10 c 4
 382.799804688 0 479.044921875 96.2431640625 477.991210938 226 c 4
 476.909179688 359.243164062 394.331054688 411 279.993164062 401 c 4
 108.456054688 385.997070312 -5.0068359375 201 88.2822265625 181.299804688 c 4
 118.272460938 174.966796875 136.702148438 184.528320312 141.037109375 215.678710938 c 4
 144.655273438 241.677734375 197.27734375 279.63671875 276.993164062 294 c 4
 332.494140625 304 381.813476562 292.177734375 381.606445312 222 c 4
 381.409179688 154.919921875 332.760742188 102 254.180664062 92 c 4
 177.611328125 82.255859375 133.053710938 117.234375 143.180664062 259 c 4
 148.82421875 338 214.6171875 417.127929688 249.993164062 462 c 4
 340.498046875 576.796875 365.993164062 609 342.764648438 639.372070312 c 4
 314.291015625 676.602539062 249.67578125 614.331054688 207.244140625 569.357421875 c 4
EndSplineSet
Substitution2: "'dnom' Denominators lookup 0 subtable" six.dnom
Substitution2: "'numr' Numerators lookup 0 subtable" six.numr
Substitution2: "'ss03' Style Set 3 in Latin lookup 2-1" six.ss03
Substitution2: "'ss02' Style Set 2 in Latin lookup 1-1" six.ss02
EndChar

StartChar: six.ss02
Encoding: 65537 -1 36
Width: 542
Flags: HW
LayerCount: 2
Fore
SplineSet
273 401 m 0
 387.337464301 401 489.915814136 339.243255212 490.997903446 206.000002212 c 0
 492.051678231 76.2432631926 395.805967236 -10 249.1875 -10 c 0
 120 -10 45.26171875 59.33984375 49.1875 242 c 0
 51.8310546875 365 85.8310546875 453 135.1875 525 c 0
 196.98046875 615.142578125 263.739257812 654 325.868164062 654 c 0
 409.868164062 654 444.868164062 616 450.868164062 584 c 0
 456.868164062 552 437.868164062 526 401.868164062 526 c 0
 368.807617188 526 372.793945312 546.504882812 337.868164062 549 c 0
 295.868164062 552 241.513671875 523.209960938 206.1875 452 c 0
 180.793945312 400.8125 161.831054688 358 156.1875 259 c 0
 148.098632812 117.103515625 190 92 267.1875 92 c 0
 345.767751585 92 394.416015625 134.919921875 394.61328125 202 c 4
 394.8203125 272.177734375 325.500811097 294 270 294 c 0
 239 294 142.232421875 279.94140625 116 279 c 0
 84.5695198219 277.871616132 68.9105761213 294.623044277 73 325 c 0
 77.9706281982 361.922065951 180.807296749 401 273 401 c 0
EndSplineSet
Validated: 524325
EndChar

StartChar: six.ss03
Encoding: 65538 -1 37
Width: 541
Flags: HW
LayerCount: 2
Fore
SplineSet
220.250976562 569.357421875 m 0
 135 479 51.831049114 365.00000012 49.1875 242 c 0
 45.26171875 59.33984375 120 -10 249.1875 -10 c 0
 395.805967236 -10 492.051678231 76.2432631926 490.997903446 206.000002212 c 0
 489.915814136 339.243255212 387.337464301 401 273 401 c 0
 180.807296749 401 77.9706281982 361.922065951 73 325 c 0
 68.9105761213 294.623044277 84.5695198219 277.871616132 116 279 c 0
 142.232421875 279.94140625 239 294 270 294 c 0
 325.500811097 294 394.8203125 272.177734375 394.61328125 202 c 0
 394.416015625 134.919921875 345.767751585 92 267.1875 92 c 0
 190 92 148.098632812 117.103515625 156.1875 259 c 4
 161.831035595 358.000001088 227.624023438 417.127929688 263 462 c 0
 353.504882812 576.796875 379 609 355.771484375 639.372070312 c 0
 327.297540737 676.602715276 262.682617188 614.331054688 220.250976562 569.357421875 c 0
EndSplineSet
Validated: 524325
EndChar

StartChar: seven
Encoding: 55 55 38
Width: 502
Flags: HMW
LayerCount: 2
Fore
SplineSet
36.4287109375 559 m 5
 36.4287109375 559 99.96484375 582 129.96484375 586 c 4
 159.96484375 590 164.999023438 530.870117188 156.96484375 468 c 4
 149.665039062 410.874023438 135.03515625 369.614257812 99.984375 366.767578125 c 4
 64.9345703125 363.920898438 46.1279296875 393.170898438 47.2763671875 433.1796875 c 4
 48.96484375 492 40.3212890625 515 36.4287109375 559 c 5
462.3828125 538.05859375 m 0
 439.3828125 492.05859375 369.8828125 366.290039062 332.87109375 287.943359375 c 0
 295.4375 208.703125 253.392578125 76.5068359375 230.436523438 35.8974609375 c 0
 207.482421875 -4.7099609375 180.04296875 -12.7734375 156.34375 -0.0341796875 c 0
 135.040039062 11.4189453125 129.575195312 29.2822265625 136.379882812 75.474609375 c 0
 143.185546875 121.666015625 198.62109375 269.982421875 252.368164062 381.80078125 c 0
 307.5 496.500976562 399.96484375 648 441.96484375 635 c 0
 471.018554688 626.006835938 490.389648438 594.073242188 462.3828125 538.05859375 c 0
36.4287109375 559 m 0
 37.4287109375 615 121.423828125 634.071289062 260.428710938 644 c 0
 414.428710938 655 476.428710938 643 473.428710938 586 c 0
 470.012695312 521.08984375 376.428710938 543 252.428710938 532 c 0
 168.543945312 524.55859375 134.428710938 520 102.428710938 520 c 0
 64.767578125 520 35.857421875 526.989257812 36.4287109375 559 c 0
EndSplineSet
Substitution2: "'dnom' Denominators lookup 0 subtable" seven.dnom
Substitution2: "'numr' Numerators lookup 0 subtable" seven.numr
EndChar

StartChar: eight
Encoding: 56 56 39
Width: 523
Flags: HMW
LayerCount: 2
Fore
SplineSet
267.783203125 276.458984375 m 0
 197.704101562 263.999023438 139.291992188 227.459960938 137.334960938 158.662109375 c 0
 135.62890625 98.61328125 185.0078125 70.3330078125 271.151367188 81.431640625 c 0
 348.767578125 91.431640625 384.85546875 130.0390625 383.120117188 208.116210938 c 0
 381.970703125 259.806640625 328.734375 287.295898438 267.783203125 276.458984375 c 0
265.067382812 352.891601562 m 0
 360.6953125 362.891601562 487.596679688 331.149414062 487.596679688 203.349609375 c 0
 487.596679688 80.3173828125 407.697265625 0 261.489257812 -10 c 0
 105.764648438 -20.6513671875 31.3388671875 59.697265625 35.138671875 148.399414062 c 0
 41.2021484375 289.950195312 163.471679688 342.267578125 265.067382812 352.891601562 c 0
261.956054688 540.658203125 m 0
 196.961914062 528.35546875 170.424804688 495.659179688 168.607421875 436.345703125 c 0
 167.022460938 384.577148438 213.981445312 361.1484375 276.497070312 372.5234375 c 0
 331.45703125 382.5234375 364.287109375 417.184570312 362.672851562 484.49609375 c 0
 361.606445312 529.060546875 318.598632812 551.379882812 261.956054688 540.658203125 c 0
254.209960938 638.000976562 m 0
 337.666992188 648.000976562 460.092773438 621.80078125 460.092773438 494.600585938 c 0
 460.092773438 364.87890625 406.149414062 308.618164062 272.618164062 298.618164062 c 0
 129.055664062 287.8671875 60.0205078125 351.998046875 63.66796875 440.80078125 c 0
 69.03515625 571.4765625 165.694335938 627.39453125 254.209960938 638.000976562 c 0
EndSplineSet
Substitution2: "'dnom' Denominators lookup 0 subtable" eight.dnom
Substitution2: "'numr' Numerators lookup 0 subtable" eight.numr
EndChar

StartChar: nine
Encoding: 57 57 40
Width: 513
Flags: HMW
LayerCount: 2
Fore
SplineSet
434.732421875 141.5703125 m 0
 452.724609375 213.798828125 475.209960938 275.748046875 477.853515625 398.748046875 c 0
 481.779296875 581.408203125 406.741210938 659.5390625 277.853515625 650.748046875 c 0
 131.234375 640.748046875 34.9892578125 544.504882812 36.04296875 414.748046875 c 0
 37.125 281.504882812 119.703125 229.748046875 234.041015625 239.748046875 c 0
 415.540039062 255.622070312 519.041015625 439.748046875 425.751953125 459.448242188 c 0
 395.76171875 465.78125 377.33203125 456.219726562 372.997070312 425.069335938 c 0
 369.37890625 399.0703125 316.756835938 361.111328125 237.041015625 346.748046875 c 0
 181.540039062 336.748046875 132.220703125 348.5703125 132.427734375 418.748046875 c 0
 132.625 485.828125 181.2734375 538.748046875 259.853515625 548.748046875 c 0
 336.422851562 558.4921875 380.98046875 523.513671875 370.853515625 381.748046875 c 0
 365.209960938 302.748046875 353.78515625 279.090820312 339.702148438 222.556640625 c 0
 303.682617188 77.955078125 294.220703125 8.099609375 331.484375 2.5546875 c 0
 389.95703125 -6.1455078125 419.493164062 80.392578125 434.732421875 141.5703125 c 0
EndSplineSet
Substitution2: "'dnom' Denominators lookup 0 subtable" nine.dnom
Substitution2: "'numr' Numerators lookup 0 subtable" nine.numr
EndChar

StartChar: period
Encoding: 46 46 41
Width: 198
Flags: HMW
LayerCount: 2
Fore
SplineSet
30.1982421875 69.2998046875 m 0
 27.1123046875 112.071289062 60.4619140625 137.2734375 99.498046875 138.599609375 c 0
 143.170898438 140.083984375 166.48046875 108.671875 168.797851562 69.2998046875 c 0
 171.370117188 25.576171875 144.598632812 2.310546875 99.498046875 0 c 0
 55.2998046875 -2.2646484375 33.8662109375 18.4150390625 30.1982421875 69.2998046875 c 0
EndSplineSet
Validated: 524321
EndChar

StartChar: e
Encoding: 101 101 42
Width: 427
Flags: HMW
LayerCount: 2
Fore
SplineSet
218.118164062 364 m 4
 263.662109375 370.461914062 292.118164062 376 327.118164062 363 c 4
 365.104492188 348.890625 365.63671875 296.362304688 338.118164062 280 c 4
 301.118164062 258 277.133789062 258.817382812 206.977539062 248.86328125 c 4
 161.43359375 242.401367188 124.715820312 228.528320312 76.0185546875 236.44140625 c 4
 18.5634765625 245.778320312 22.6005859375 304.2109375 52.6318359375 320.084960938 c 4
 97.232421875 343.66015625 147.961914062 354.045898438 218.118164062 364 c 4
145.626953125 437.416992188 m 0
 142.568359375 392.509765625 140.684570312 361.99609375 139.546875 289.873046875 c 0
 138.827148438 244.232421875 137.479492188 196.955078125 139.546875 158.7109375 c 0
 142.569335938 102.79296875 155.163085938 88.8173828125 197.083007812 91 c 0
 293.118164062 96 319.333007812 112.278320312 367.083007812 96 c 0
 411.083007812 81 414.850585938 18.4365234375 357.083007812 0 c 0
 310.083007812 -15 263.083007812 -16 217.083007812 -16 c 0
 101.083007812 -16 43.5234375 13.322265625 35.8603515625 113.047851562 c 0
 30.8359375 178.438476562 17.89453125 393.428710938 36.208984375 498.571289062 c 0
 52.88671875 594.314453125 101.409179688 617.840820312 216.258789062 634.13671875 c 0
 261.802734375 640.598632812 298.520507812 644.471679688 347.217773438 636.55859375 c 0
 404.672851562 627.221679688 400.635742188 568.7890625 370.604492188 552.915039062 c 0
 326.00390625 529.33984375 275.118164062 530 205.118164062 519 c 0
 163.650390625 512.483398438 149.71875 497.484375 145.626953125 437.416992188 c 0
EndSplineSet
EndChar

StartChar: comma
Encoding: 44 44 43
Width: 258
Flags: HMW
LayerCount: 2
Fore
SplineSet
96.16015625 89.1796875 m 0
 116 126 148.904296875 150.126953125 183.916015625 132.8125 c 0
 226 112 213.796875 70.994140625 197.548828125 35.0556640625 c 0
 160 -48 79 -110 40.296875 -76.544921875 c 0
 4.51953125 -45.619140625 65.685546875 32.6220703125 96.16015625 89.1796875 c 0
EndSplineSet
EndChar

StartChar: o
Encoding: 111 111 44
Width: 544
Flags: HMW
LayerCount: 2
Fore
SplineSet
284.92578125 523.379882812 m 0
 203.438476562 511.125 147.436523438 421.362304688 145.446289062 274.220703125 c 0
 143.708984375 145.796875 189.33203125 94.638671875 268.005859375 106.2734375 c 0
 338.14453125 116.646484375 398.452148438 207.456054688 396.686523438 374.440429688 c 0
 395.516601562 484.98828125 354.047851562 533.775390625 284.92578125 523.379882812 c 0
281.0703125 638 m 0
 376.149414062 646.8984375 505.0703125 601 505.0703125 389 c 0
 505.0703125 122.796875 396.012695312 0.662109375 258.0703125 -10 c 0
 110.517578125 -21.4052734375 35.2236328125 87.9970703125 39.0703125 286 c 0
 43.3037109375 503.874023438 177.529296875 628.309570312 281.0703125 638 c 0
EndSplineSet
EndChar

StartChar: w
Encoding: 119 119 45
Width: 614
Flags: HMW
LayerCount: 2
Fore
SplineSet
300.190429688 288.662109375 m 1
 276 148 240.000947366 0.0389566009671 174.161132812 0.3193359375 c 0
 106.740955812 0.606445259183 71.4721699566 92.5566411973 46.478515625 466.109375 c 0
 37.7906742322 595.957009926 54.8642578125 627.681640625 84.72265625 630.587890625 c 0
 114.58203125 633.495117188 144.290528216 595.649290782 153.997070312 486.623046875 c 0
 168.424914354 324.565990101 188.185296842 221.46129045 187.828125 221.654296875 c 1
 187.828125 221.654296875 204 320 207.000976562 364 c 0
 212.660373 446.977470215 241.895507812 518.587890625 299.72265625 518.587890625 c 0
 355.345703125 518.587890625 383.650301534 438.302014852 393.000976562 356 c 0
 398 312 417.489257812 222.330078125 417.489257812 222.330078125 c 1
 416.838343094 222.330086785 437.666503209 320.252780021 458.541992188 488.568359375 c 0
 472.014454314 597.194570259 501.954101562 634.309570312 531.72265625 630.587890625 c 0
 561.491210938 626.8671875 574.662632696 594.938430869 565.459960938 465.125976562 c 0
 539.071916227 92.8974609375 480.06593856 1.8603515625 415.000976562 0 c 0
 348.282338557 -1.90763382701 314 158 300.190429688 288.662109375 c 1
EndSplineSet
EndChar

StartChar: exclam
Encoding: 33 33 46
Width: 218
Flags: HMW
LayerCount: 2
Fore
SplineSet
39.71484375 69.2998046875 m 0
 36.62890625 112.071289062 69.978515625 137.2734375 109.014648438 138.599609375 c 0
 152.6875 140.083984375 175.997070312 108.671875 178.314453125 69.2998046875 c 0
 180.88671875 25.576171875 154.115234375 2.310546875 109.014648438 0 c 0
 64.81640625 -2.2646484375 43.3828125 18.4150390625 39.71484375 69.2998046875 c 0
156.272460938 601 m 4
 164.272460938 579 165.272460938 554 165.272460938 492 c 4
 165.272460938 430 164.272460938 390 164.272460938 362 c 4
 164.272460938 283.92578125 161.272460938 225 151.272460938 212 c 4
 141.272460938 199 131.272460938 190 106.272460938 190 c 4
 81.2724609375 190 57.2724609375 196 55.2724609375 244 c 4
 53.2724609375 292 50.2724609375 593 56.2724609375 611 c 4
 62.2724609375 629 75.2724609375 641 97.2724609375 641 c 4
 119.272460938 641 146.180664062 628.751953125 156.272460938 601 c 4
EndSplineSet
Validated: 524321
EndChar

StartChar: question
Encoding: 63 63 47
Width: 444
Flags: HMW
LayerCount: 2
Fore
SplineSet
109.71875 69.2998046875 m 0
 106.6328125 112.071289062 139.982421875 137.2734375 179.018554688 138.599609375 c 0
 222.69140625 140.083984375 246.000976562 108.671875 248.318359375 69.2998046875 c 0
 250.890625 25.576171875 224.119140625 2.310546875 179.018554688 0 c 0
 134.8203125 -2.2646484375 113.38671875 18.4150390625 109.71875 69.2998046875 c 0
193.79296875 277.317382812 m 0
 162.4296875 276.729492188 136.507805314 295.93490763 138.4765625 317 c 0
 141 344 155.848632812 356.588867188 202.842773438 366.05859375 c 0
 253.822265625 376.331054688 292.00390625 418.490234375 292.00390625 473 c 0
 292.00390625 515.305664062 276.52000179 541.374565077 210.811523438 535.509765625 c 0
 148.601253811 529.957198218 117.537109375 484.025390625 83.4111328125 473.858398438 c 0
 49.283203125 463.690429688 -3.6748046875 497.149414062 43.134765625 559.670898438 c 0
 77.3017578125 605.306640625 135.647838994 643.634323261 228.811523438 647.509765625 c 0
 323.766238573 651.459711657 408.811523438 618.215820312 408.811523438 475.509765625 c 0
 408.811523438 365 320.801757812 279.696289062 193.79296875 277.317382812 c 0
138.00390625 252 m 0
 136.127929688 265.504882812 137.003757492 291.000008426 138.4765625 317 c 0
 139.775390625 339.928710938 166.135742188 354 192 354 c 0
 214.194335938 354 233.51971138 335.979575759 231.00390625 312 c 0
 229.008789062 292.983398438 231.00390625 281 233.00390625 253 c 0
 234.807617188 227.74609375 229.749023438 198 192.00390625 195 c 0
 153.823242188 191.965820312 143.00390625 216 138.00390625 252 c 0
EndSplineSet
EndChar

StartChar: hyphen
Encoding: 45 45 48
Width: 427
Flags: HMW
LayerCount: 2
Fore
SplineSet
218.118164062 364 m 4
 263.662109375 370.461914062 292.118164062 376 327.118164062 363 c 4
 365.104492188 348.890625 365.63671875 296.362304688 338.118164062 280 c 4
 301.118164062 258 277.133789062 258.817382812 206.977539062 248.86328125 c 4
 161.43359375 242.401367188 124.715820312 228.528320312 76.0185546875 236.44140625 c 4
 18.5634765625 245.778320312 22.6005859375 304.2109375 52.6318359375 320.084960938 c 4
 97.232421875 343.66015625 147.961914062 354.045898438 218.118164062 364 c 4
EndSplineSet
Validated: 524321
EndChar

StartChar: plus
Encoding: 43 43 49
Width: 427
Flags: HMW
LayerCount: 2
Fore
SplineSet
237.375976562 364 m 0
 282.919921875 370.461914062 311.375976562 376 346.375976562 363 c 0
 384.362304688 348.890625 384.89453125 296.362304688 357.375976562 280 c 0
 320.375976562 258 296.391601562 258.817382812 226.235351562 248.86328125 c 0
 180.69140625 242.401367188 143.973632812 228.528320312 95.2763671875 236.44140625 c 0
 37.8212890625 245.778320312 41.8583984375 304.2109375 71.8896484375 320.084960938 c 0
 116.490234375 343.66015625 167.219726562 354.045898438 237.375976562 364 c 0
260.772460938 444.342773438 m 4
 268.772460938 425.971679688 269.772460938 392.521484375 269.772460938 355.409179688 c 4
 269.772460938 318.297851562 268.772460938 294.354492188 268.772460938 277.594726562 c 4
 268.772460938 230.861328125 265.772460938 176.9296875 255.772460938 162.592773438 c 4
 245.772460938 148.255859375 235.772460938 138.328125 210.772460938 138.328125 c 4
 185.772460938 138.328125 161.772460938 144.946289062 159.772460938 197.883789062 c 4
 157.772460938 250.822265625 154.772460938 437.663085938 160.772460938 452.692382812 c 4
 166.772460938 467.72265625 179.772460938 477.744140625 201.772460938 477.744140625 c 4
 223.772460938 477.744140625 250.680664062 467.516601562 260.772460938 444.342773438 c 4
EndSplineSet
Validated: 524325
EndChar

StartChar: quotedbl
Encoding: 34 34 50
Width: 322
Flags: HMW
LayerCount: 2
Fore
SplineSet
283.544921875 464.430664062 m 0
 273.454101562 449.197265625 257 442 235 442 c 0
 213 442 193 451 183 465 c 0
 176.282226562 474.404296875 180.600585938 580.536132812 182.544921875 620.834960938 c 0
 184 651 205 665 230 665 c 0
 255 665 271.155273438 651.551757812 279 639 c 0
 289 623 291.544921875 602.154296875 291.544921875 572.88671875 c 0
 291.544921875 555.22265625 292.544921875 534.137695312 292.544921875 522.890625 c 0
 292.544921875 498.49609375 291.544921875 476.5078125 283.544921875 464.430664062 c 0
128 646 m 0
 136 633.922851562 142.544921875 608.50390625 142.544921875 584.109375 c 0
 142.544921875 572.862304688 141.544921875 551.77734375 141.544921875 534.11328125 c 0
 141.544921875 504.845703125 138.545408312 470.215374555 128.544921875 459.302734375 c 0
 118.544921875 448.390625 102 438 77 438 c 0
 52 438 34.5448735245 445.870114788 32.544921875 486.165039062 c 0
 30.544921875 526.4609375 29 632.122070312 35 642 c 0
 41 651.881835938 52.544921875 664.525390625 74.544921875 664.525390625 c 0
 96.544921875 664.525390625 117.908203125 661.232421875 128 646 c 0
EndSplineSet
Validated: 524321
EndChar

StartChar: quotesingle
Encoding: 39 39 51
Width: 172
Flags: HMW
LayerCount: 2
Fore
SplineSet
133.544921875 642.569335938 m 0
 141.544921875 630.4921875 142.544921875 608.50390625 142.544921875 584.109375 c 0
 142.544921875 572.862304688 141.544921875 551.77734375 141.544921875 534.11328125 c 0
 141.544921875 504.845703125 138.544921875 470.215820312 128.544921875 459.302734375 c 0
 118.544921875 448.390625 108.544921875 440.833984375 83.544921875 440.833984375 c 0
 58.544921875 440.833984375 34.544921875 445.870117188 32.544921875 486.165039062 c 0
 30.544921875 526.4609375 27.544921875 638.178710938 33.544921875 648.056640625 c 0
 39.544921875 657.938476562 52.544921875 664.525390625 74.544921875 664.525390625 c 0
 96.544921875 664.525390625 123.453125 657.801757812 133.544921875 642.569335938 c 0
EndSplineSet
Validated: 524321
EndChar

StartChar: colon
Encoding: 58 58 52
Width: 198
Flags: HMW
LayerCount: 2
Fore
SplineSet
30.1982421875 359.299804688 m 4
 29 402 60.4758711517 426.91194868 99.498046875 428.599609375 c 4
 155 431 171.010007118 398.422557721 168.797851562 359.299804688 c 4
 166.423281276 317.30468974 148.8828125 292.822265625 106 290 c 4
 54.1865234375 286.590820312 31.6280979543 308.345898084 30.1982421875 359.299804688 c 4
30.1982421875 69.2998046875 m 0
 27.1123046875 112.071289062 60.4619140625 137.2734375 99.498046875 138.599609375 c 0
 143.170898438 140.083984375 166.48046875 108.671875 168.797851562 69.2998046875 c 0
 171.370117188 25.576171875 144.598632812 2.310546875 99.498046875 0 c 0
 55.2998046875 -2.2646484375 33.8662109375 18.4150390625 30.1982421875 69.2998046875 c 0
EndSplineSet
Validated: 524321
EndChar

StartChar: semicolon
Encoding: 59 59 53
Width: 198
Flags: MW
LayerCount: 2
Fore
SplineSet
30.1982421875 359.299804688 m 0
 33.769662175 406.230174161 61 424 96 426 c 0
 151.462890625 429.168945312 166 402 168.797851562 359.299804688 c 0
 171.548002076 317.327612278 146 292 106 290 c 0
 54.139272835 287.406963642 26.3302869907 308.472803908 30.1982421875 359.299804688 c 0
36.16015625 89.1796875 m 0
 60.6125769211 123.112473061 94.5458984375 162.16015625 128 142 c 0
 176.947265625 112.50390625 154.2907874 70.3691824372 137.548828125 35.0556640625 c 0
 98.5015196966 -47.3061324874 7 -106 -27 -64 c 0
 -56.7553042705 -27.2434476658 0 39 36.16015625 89.1796875 c 0
EndSplineSet
Validated: 524321
EndChar

StartChar: dollar
Encoding: 36 36 54
Width: 516
Flags: HMW
LayerCount: 2
Fore
SplineSet
262.5 555 m 0
 195.5 555 138.5 501 138.5 440 c 0
 138.5 399.74609375 156.37890625 383 182.5 383 c 0
 249.5 383 264.5 405 342.5 405 c 0
 430.5 405 482.5 332.10546875 482.5 226 c 0
 482.5 124 447 -10 236.5 -10 c 0
 169.873046875 -10 103.213867188 16.6357421875 62.69140625 80 c 0
 18.994140625 148.329101562 56.166015625 192.041015625 111.69140625 144 c 0
 143.576171875 116.413085938 173.104442681 94 230.5 94 c 0
 340 94 378.5 142 378.5 220 c 0
 378.5 268 353.5 309 313.5 309 c 0
 249.462890625 309 218.5 280 150.5 280 c 0
 82.5 280 33.5 337 33.5 417 c 0
 33.5 597 220.5 655 286.5 655 c 0
 353.126953125 655 395.258789062 634.415039062 444.732421875 577.762695312 c 4
 498.08203125 516.671875 467.805664062 467.928710938 405.768554688 507.202148438 c 4
 370.14453125 529.75390625 319.895507812 555 262.5 555 c 0
331.208007812 678.5 m 0
 337.4921875 655.94921875 336.56640625 630.947265625 331.798828125 569.130859375 c 0
 327.030273438 507.314453125 319.879882812 427.627929688 311.57421875 319.947265625 c 0
 303.262695312 212.193359375 279.588867188 -55.7041015625 268.619140625 -67.8974609375 c 0
 257.649414062 -80.08984375 246.986328125 -88.2939453125 222.060546875 -86.3720703125 c 0
 197.134765625 -84.44921875 173.666992188 -76.62109375 175.364257812 -28.609375 c 0
 177.0625 19.4033203125 224.90625 678.67578125 232.2734375 696.16015625 c 0
 239.639648438 713.645507812 253.524414062 724.611328125 275.458984375 722.918945312 c 0
 297.393554688 721.2265625 323.280273438 706.946289062 331.208007812 678.5 c 0
EndSplineSet
EndChar

StartChar: S.ss04
Encoding: 65539 -1 55
Width: 516
Flags: HW
LayerCount: 2
Fore
SplineSet
230.5 94 m 0
 340 94 378.5 142 378.5 220 c 0
 378.5 268 353.5 309 313.5 309 c 0
 249.462890625 309 218.5 280 150.5 280 c 0
 82.5 280 33.5 337 33.5 417 c 0
 33.5 597 220.5 655 286.5 655 c 0
 352.5 655 408 617 410 534 c 0
 411.112304688 487.83984375 396.5 465 360.5 465 c 0
 344.5 465 310 476 309 502 c 0
 307.380859375 544.1015625 295.560546875 555 262.5 555 c 0
 195.5 555 138.5 501 138.5 440 c 0
 138.5 399.74609375 156.37890625 383 182.5 383 c 0
 249.5 383 264.5 405 342.5 405 c 0
 430.5 405 482.5 332.10546875 482.5 226 c 0
 482.5 124 447 -10 236.5 -10 c 0
 169.873046875 -10 103.213867188 16.6357421875 62.69140625 80 c 4
 18.994140625 148.329101562 56.166015625 192.041015625 111.69140625 144 c 4
 143.576171875 116.413085938 173.104442681 94 230.5 94 c 0
EndSplineSet
Validated: 524321
EndChar

StartChar: a
Encoding: 97 97 56
Width: 530
Flags: HMW
LayerCount: 2
Fore
SplineSet
39.0576171875 234 m 0
 118.80859375 311.258789062 173.057617188 345 269.057617188 345 c 0
 371.057617188 345 410.057617188 303 425.057617188 286 c 0
 440.057617188 269 455.057617188 208 428.057617188 202 c 0
 401.057617188 196 423.095703125 230 304.057617188 230 c 0
 100.057617188 230 104.057617188 137 51.0576171875 137 c 0
 4.046875 137 7.0576171875 203 39.0576171875 234 c 0
193.057617188 603 m 0
 209.057617188 631 238.057617188 644.850585938 278.057617188 635 c 0
 318.092773438 625.140625 342.057617188 565 386.057617188 449 c 0
 430.057617188 333 504.057617188 122 512.057617188 76 c 0
 520.057617188 30 515.057617188 12 494.057617188 0 c 0
 470.6953125 -13.349609375 443.057617188 -6 419.057617188 34 c 0
 395.057617188 74 336.057617188 285 308.057617188 363 c 0
 280.057617188 441 266.057617188 483 266.057617188 483 c 1
 236.65234375 437.2578125 193.057617188 228 177.057617188 172 c 0
 161.057617188 116 156.057617188 79 140.057617188 39 c 4
 124.057617188 -1 91.0576171875 -24 69.0576171875 -20 c 4
 47.0576171875 -16 34.251953125 11.1591796875 47.0576171875 74 c 4
 65.8271484375 166.104492188 169.829101562 562.349609375 193.057617188 603 c 0
EndSplineSet
EndChar

StartChar: b
Encoding: 98 98 57
Width: 509
Flags: HMW
LayerCount: 2
Fore
SplineSet
98.2177734375 610 m 1
 98.2177734375 610 184.217773438 658 280.217773438 658 c 0
 371.217773438 658 456.217773438 604 456.217773438 493 c 0
 456.217773438 428.96875 409.123046875 377.171875 371.857421875 353 c 0
 334.857421875 329 202.217773438 300 168.217773438 325 c 0
 134.217773438 350 137.857421875 361 159.857421875 371 c 0
 181.857421875 381 213 339 265 372 c 0
 317 405 340.217773438 446 340.217773438 473 c 0
 340.217773438 532 303.217773438 552 258.217773438 552 c 0
 185.217773438 552 136 463 110 462 c 4
 84 461 32.2177734375 473 34.2177734375 524 c 0
 36.2177734375 575 98.2177734375 610 98.2177734375 610 c 1
104.217773438 499 m 0
 108.217773438 545 117.524414062 622.346679688 180.217773438 591 c 0
 206.217773438 578 199.094726562 530.609375 197.169921875 411 c 0
 195.231445312 290.490234375 194.225585938 78.052734375 192.217773438 64 c 0
 188.217773438 36 170.217773438 4 144.217773438 0 c 0
 118.217773438 -4 96.2177734375 19 96.2177734375 53 c 0
 96.2177734375 101.041992188 94.62890625 268.987304688 96.2177734375 327 c 0
 98.2177734375 400 100.217773438 453 104.217773438 499 c 0
438.857421875 92 m 0
 372.34375 14.9765625 280.543945312 -10.2392578125 210.857421875 -10 c 0
 172.08984375 -9.8671875 129.977539062 -3.4931640625 115.857421875 8 c 0
 76.2744140625 40.220703125 140.841796875 88.599609375 166.857421875 89 c 0
 231.857421875 90 313.52734375 86.0234375 353.857421875 151 c 0
 371.857421875 180 384.21484375 237.911132812 340.041992188 277.022460938 c 0
 304.852539062 308.1796875 267.44140625 304.577148438 207.857421875 289 c 0
 181.537109375 282.119140625 170.857421875 274 152.857421875 270 c 0
 129.267578125 264.7578125 108.036132812 275.970703125 111.857421875 318 c 0
 115.678710938 360.028320312 156.078125 372.532226562 229.296875 385.763671875 c 0
 311.981445312 400.706054688 341.041015625 392.263671875 406.857421875 346 c 0
 481.73046875 293.372070312 498.315429688 160.852539062 438.857421875 92 c 0
EndSplineSet
EndChar

StartChar: c
Encoding: 99 99 58
Width: 495
Flags: HMW
LayerCount: 2
Fore
SplineSet
364.192382812 430 m 4
 362.88671875 406.499023438 361.981445312 380.438476562 391.192382812 380 c 4
 409.301757812 379.728515625 455.192382812 400 453.192382812 494 c 4
 451.192382812 588 401.192382812 648 317.192382812 648 c 4
 255.063476562 648 184.985351562 615.142578125 123.192382812 525 c 4
 73.8359375 453 39.8359375 365 37.1923828125 242 c 4
 33.2666015625 59.33984375 143.192382812 -4 237.192382812 -10 c 0
 331.192382812 -16 400.479492188 16.6357421875 441.000976562 80 c 0
 484.698242188 148.329101562 447.526367188 192.041015625 392.000976562 144 c 0
 360.116210938 116.413085938 319.192382812 88 255.192382812 92 c 0
 191.192382812 96 136.103515625 117.103515625 144.192382812 259 c 4
 149.8359375 358 168.555664062 400.93359375 194.192382812 452 c 4
 229.8359375 523 271.223632812 548.333007812 305.192382812 550 c 4
 350.53125 552.224609375 368.192382812 502 364.192382812 430 c 4
EndSplineSet
Substitution2: "'ss01' Style Set 1 in Latin lookup 0-1" C.ss01
EndChar

StartChar: d
Encoding: 100 100 59
Width: 530
Flags: HMW
LayerCount: 2
Fore
SplineSet
107.217773438 499 m 0
 111.217773438 545 120.524414062 622.346679688 183.217773438 591 c 0
 209.217773438 578 202.094726562 530.609375 200.169921875 411 c 0
 198.231445312 290.490234375 197.225585938 78.052734375 195.217773438 64 c 0
 191.217773438 36 173.217773438 4 147.217773438 0 c 0
 121.217773438 -4 99.2177734375 19 99.2177734375 53 c 0
 99.2177734375 101.041992188 97.62890625 268.987304688 99.2177734375 327 c 0
 101.217773438 400 103.217773438 453 107.217773438 499 c 0
492.866210938 351 m 0
 492.866210938 214.092773438 463.3984375 149.072265625 400.866210938 83 c 0
 347.866210938 27 263.543945312 -10.23828125 193.857421875 -10 c 0
 155.08984375 -9.8671875 132.977539062 -3.4931640625 118.857421875 8 c 0
 79.2744140625 40.220703125 143.841796875 88.599609375 169.857421875 89 c 0
 234.857421875 90 276.299804688 109.546875 310 141 c 0
 355 183 382.866210938 247.44921875 382.866210938 353 c 0
 382.866210938 499 336.217773438 552 261.217773438 552 c 0
 188.217773438 552 143 464 117 463 c 0
 91 462 35.2177734375 473 37.2177734375 524 c 0
 39.2177734375 575 101.217773438 610 101.217773438 610 c 1
 101.217773438 610 187.217773438 658 283.217773438 658 c 0
 404.217773438 658 492.866210938 553 492.866210938 351 c 0
EndSplineSet
EndChar

StartChar: f
Encoding: 102 102 60
Width: 427
Flags: HMW
LayerCount: 2
Fore
SplineSet
221.291015625 330 m 0
 266.834960938 336.461914062 295.291015625 346 330.291015625 333 c 0
 368.27734375 318.890625 368.809570312 266.362304688 341.291015625 250 c 0
 304.291015625 228 280.306640625 224.817382812 210.150390625 214.86328125 c 0
 164.606445312 208.401367188 127.888671875 198.528320312 79.19140625 206.44140625 c 0
 21.736328125 215.778320312 25.7734375 274.2109375 55.8046875 290.084960938 c 0
 100.405273438 313.66015625 151.134765625 320.045898438 221.291015625 330 c 0
142.291015625 155 m 0
 142.291015625 84.4130859375 143.291015625 47 139.14453125 32.0478515625 c 0
 132.794921875 9.1533203125 116.14453125 0.0478515625 91.14453125 0.0478515625 c 0
 66.14453125 0.0478515625 43.111328125 6.09765625 40.14453125 54.0478515625 c 0
 38.291015625 84 22.58984375 394.631835938 39.3818359375 498.571289062 c 0
 54.880859375 594.512695312 99.58203125 617.840820312 214.431640625 634.13671875 c 0
 259.975585938 640.598632812 301.693359375 642.471679688 350.390625 634.55859375 c 0
 407.845703125 625.221679688 403.80859375 566.7890625 373.77734375 550.915039062 c 0
 329.176757812 527.33984375 273.291015625 530 203.291015625 519 c 0
 161.823242188 512.483398438 152.891601562 497.484375 148.799804688 437.416992188 c 0
 145.741210938 392.509765625 143.857421875 361.99609375 142.719726562 289.873046875 c 0
 142 244.232421875 142.291015625 190 142.291015625 155 c 0
EndSplineSet
EndChar

StartChar: g
Encoding: 103 103 61
Width: 542
Flags: HMW
LayerCount: 2
Fore
SplineSet
337.868164062 549 m 4
 295.868164062 552 241.513671875 523.209960938 206.1875 452 c 4
 180.793945312 400.8125 161.831054688 358 156.1875 259 c 0
 148.098632812 117.103515625 203.1875 96 267.1875 92 c 0
 306.029296875 89.572265625 358.868164062 105 383.868164062 148 c 0
 391.97265625 161.939453125 393.53125 243.616210938 392.868164062 292 c 1
 392.868164062 292 369.930664062 286.298828125 341.868164062 287 c 0
 301.868164062 288 296.053710938 312.09375 298.868164062 333 c 0
 305.868164062 385 389.868164062 411 434.868164062 410 c 0
 479.868164062 409 488.868164062 391 491.868164062 300 c 0
 494.868164062 209 492.868164062 136 466.1875 89 c 0
 427.8359375 21.44140625 343.1875 -16 249.1875 -10 c 0
 155.1875 -4 45.26171875 59.33984375 49.1875 242 c 0
 51.8310546875 365 85.8310546875 453 135.1875 525 c 4
 196.98046875 615.142578125 263.739257812 654 325.868164062 654 c 4
 409.868164062 654 444.868164062 616 450.868164062 584 c 4
 456.868164062 552 437.868164062 526 401.868164062 526 c 4
 368.807617188 526 372.793945312 546.504882812 337.868164062 549 c 4
EndSplineSet
Substitution2: "'ss09' Style Set 9 in Latin lookup 8-1" G.ss09
EndChar

StartChar: i
Encoding: 105 105 62
Width: 218
Flags: HMW
LayerCount: 2
Fore
SplineSet
156.272460938 601 m 4
 164.272460938 579 165.272460938 554 165.272460938 492 c 4
 165.272460938 430 164.272460938 430 164.272460938 322 c 4
 164.272460938 213.92578125 161.272460938 35 151.272460938 22 c 4
 141.272460938 9 131.272460938 0 106.272460938 0 c 4
 81.2724609375 0 57.2724609375 6 55.2724609375 54 c 4
 53.2724609375 102 50.2724609375 593 56.2724609375 611 c 4
 62.2724609375 629 75.2724609375 641 97.2724609375 641 c 4
 119.272460938 641 146.180664062 628.751953125 156.272460938 601 c 4
EndSplineSet
EndChar

StartChar: j
Encoding: 106 106 63
Width: 412
Flags: HMW
LayerCount: 2
Fore
SplineSet
358.821289062 492.618164062 m 0
 355.257966353 554.573160687 353.982311404 579.605423569 345.014648438 601.532226562 c 0
 333.702148438 629.192382812 306.262695312 641.198242188 284.270507812 641 c 0
 262.278320312 640.801757812 249.8125 628.685546875 244.608398438 610.6328125 c 0
 241.024414062 598.197265625 264 357 257.950195312 203.267578125 c 0
 254.820456333 123.737348965 229 108 202.411132812 105 c 0
 149.855263843 99.0701645619 130.471679688 128 97.4111328125 128 c 0
 61.4111328125 128 42.4111328125 102 48.4111328125 70 c 0
 54.4111328125 38 120.411132812 -20 204.411132812 -10 c 0
 256.73046875 -3.771484375 312.521776672 20.4784357509 349 101 c 0
 383.229605393 176.557993742 369.557985936 305.940708013 358.821289062 492.618164062 c 0
EndSplineSet
EndChar

StartChar: k
Encoding: 107 107 64
Width: 496
Flags: HMW
LayerCount: 2
Fore
SplineSet
149.046875 597 m 0
 157.046875 575 158.046875 550 158.046875 488 c 0
 158.046875 426 157.046875 430 157.046875 322 c 0
 157.046875 213.92578125 154.046875 35 144.046875 22 c 0
 134.046875 9 124.046875 0 99.046875 0 c 0
 74.046875 0 50.046875 6 48.046875 54 c 0
 46.046875 102 43.046875 589 49.046875 607 c 0
 55.046875 625 68.046875 637 90.046875 637 c 0
 112.046875 637 138.955078125 624.751953125 149.046875 597 c 0
441.245117188 520.490234375 m 0
 435.412109375 447.23046875 395.541015625 373.959960938 323.719726562 316.240234375 c 0
 260.12109375 265.127929688 164.842773438 207.459960938 127.84375 235.209960938 c 0
 90.845703125 262.959960938 108.256835938 309.580078125 132.197265625 320.6796875 c 0
 156.137695312 331.780273438 164.842773438 327.33984375 221.428710938 363.969726562 c 0
 278.015625 400.599609375 300.26953125 431.690429688 319.856445312 513.830078125 c 0
 334.360351562 574.65234375 345.319335938 647.322265625 398.413085938 629.26953125 c 0
 418.000976562 622.610351562 447.272460938 596.19140625 441.245117188 520.490234375 c 0
339.134765625 344 m 0
 398.134765625 317 441.5390625 270.333984375 449.184570312 160.485351562 c 0
 455.134765625 75 440.762695312 19.7236328125 408.1484375 -0.923828125 c 0
 381.256835938 -17.9482421875 331.715820312 -0.47265625 339.272460938 70.62109375 c 0
 348.134765625 154 340.134765625 248 277.134765625 267 c 0
 214.134765625 286 225.134765625 316 250.134765625 334 c 0
 285.625 359.552734375 310.596679688 357.059570312 339.134765625 344 c 0
EndSplineSet
Substitution2: "'ss07' Style Set 7 in Latin lookup 6-1" K.ss07
Substitution2: "'ss06' Style Set 6 in Latin lookup 5-1" K.ss06
EndChar

StartChar: l
Encoding: 108 108 65
Width: 419
Flags: HMW
LayerCount: 2
Fore
SplineSet
51.96484375 596 m 0
 53.96484375 628 153.96484375 651.1171875 153.96484375 583 c 0
 153.96484375 538 145.068359375 417.250976562 135.96484375 287 c 0
 132.78125 241.46484375 129.96484375 214.299804688 129.96484375 176 c 0
 129.96484375 120 151.028320312 100.284179688 191.96484375 91 c 0
 288.96484375 69 314.21484375 112.278320312 361.96484375 96 c 0
 405.96484375 81 409.732421875 18.4365234375 351.96484375 0 c 0
 304.96484375 -15 267.96484375 -16 221.96484375 -16 c 0
 105.96484375 -16 26.2333984375 36.005859375 23.96484375 136 c 0
 21.6845703125 236.484375 50.4560546875 571.860351562 51.96484375 596 c 0
EndSplineSet
EndChar

StartChar: m
Encoding: 109 109 66
Width: 614
Flags: HMW
LayerCount: 2
Fore
SplineSet
313.809570312 371.92578125 m 1
 345.19921875 453.26953125 382.411868066 646.319047432 449.838867188 630.268554688 c 0
 506.489887348 616.783203125 538.209498102 538.03125 567.521484375 164.478515625 c 0
 577.701873327 34.7393674679 559.135742188 2.90625 529.27734375 0 c 0
 499.41796875 -2.9072265625 467.765766482 34.7829900161 460.002929688 143.96484375 c 0
 448.293512722 308.654104186 426.720635489 408.77943359 426.171875 408.93359375 c 1
 426.171875 408.93359375 382.27734375 202 314.27734375 202 c 0
 246.27734375 202 196.510742188 398.2578125 196.510742188 398.2578125 c 5
 197.072265625 397.272460938 180.79296875 312.26171875 155.458007812 132.01953125 c 0
 140.22265625 23.626953125 112.045898438 -13.7216796875 82.27734375 -10 c 0
 52.5087890625 -6.279296875 36.2900390625 25.9013671875 48.5400390625 155.461914062 c 0
 84.5361328125 536.157226562 122.583007812 615.348632812 178.900390625 617.86328125 c 4
 245.580078125 620.840820312 281.583007812 450.666015625 313.809570312 371.92578125 c 1
EndSplineSet
EndChar

StartChar: n
Encoding: 110 110 67
Width: 514
Flags: HMW
LayerCount: 2
Fore
SplineSet
95.1787109375 635 m 1
 38.1787109375 626 50.1787109375 536 43.1787109375 160 c 0
 40.755859375 29.8837890625 56.1787109375 0 86.1787109375 0 c 0
 116.178710938 0 135.15234375 40.767578125 142.178710938 150 c 0
 153.178710938 321 150.178710938 407 150.178710938 407 c 1
 150.178710938 407 200.025390625 302.3359375 264.178710938 162 c 0
 296.178710938 92 339.178710938 0 393.178710938 0 c 0
 447.178710938 0 473.178710938 69 471.178710938 350 c 0
 470.295898438 473.997070312 477.178710938 579 438.178710938 624 c 0
 405.748046875 661.419921875 367.178710938 639 367.178710938 599 c 4
 367.178710938 559 361.178710938 195 361.178710938 195 c 5
 361.178710938 195 294.653320312 348.8828125 267.178710938 405 c 0
 173.178710938 597 136.178710938 638 95.1787109375 635 c 1
EndSplineSet
EndChar

StartChar: p
Encoding: 112 112 68
Width: 487
Flags: HMW
LayerCount: 2
Fore
SplineSet
96.5419921875 610 m 1
 96.5419921875 610 182.541992188 658 278.541992188 658 c 0
 369.541992188 658 454.541992188 594 454.541992188 483 c 0
 454.541992188 358.96875 388.541992188 283 322.272460938 238.44140625 c 0
 260.52734375 196.924804688 172.48828125 166.329101562 139.509765625 192.662109375 c 0
 106.532226562 218.995117188 124.190429688 260.32421875 146.5703125 269.44140625 c 0
 168.951171875 278.55859375 176.786132812 274.243164062 230.057617188 305.147460938 c 0
 283.329101562 336.052734375 338.541992188 376 338.541992188 463 c 0
 338.541992188 522 301.541992188 552 256.541992188 552 c 0
 183.541992188 552 137 473 111 472 c 4
 85 471 30.5419921875 473 32.5419921875 524 c 0
 34.5419921875 575 96.5419921875 610 96.5419921875 610 c 1
102.541992188 499 m 0
 106.541992188 545 115.848632812 622.346679688 178.541992188 591 c 0
 204.541992188 578 197.418945312 450.609375 195.494140625 331 c 0
 193.555664062 210.490234375 192.549804688 78.052734375 190.541992188 64 c 0
 186.541992188 36 168.541992188 4 142.541992188 0 c 0
 116.541992188 -4 94.5419921875 19 94.5419921875 53 c 0
 94.5419921875 101.041992188 92.953125 268.987304688 94.5419921875 327 c 0
 96.5419921875 400 98.5419921875 453 102.541992188 499 c 0
EndSplineSet
EndChar

StartChar: q
Encoding: 113 113 69
Width: 524
Flags: HMW
LayerCount: 2
Fore
SplineSet
298 57 m 0
 271.671875 94.720703125 231.099609375 166.067382812 226.897460938 203.166015625 c 4
 222.336914062 243.430664062 268.966796875 267.62109375 295.990234375 250.454101562 c 4
 332.325195312 227.372070312 365.209961415 157.146484708 405.764648438 99.041015625 c 0
 432.091796875 61.3203125 455.534179688 44.876953125 483.02734375 3.9130859375 c 0
 515.465820312 -44.419921875 470.040039062 -81.39453125 437.9296875 -70.3125 c 0
 390.243164062 -53.8525390625 338.556018454 -1.10522139473 298 57 c 0
274.92578125 523.379882812 m 0
 202.749023438 517.270507812 147.436523438 441.362304688 145.446289062 294.220703125 c 0
 143.708984375 165.796875 188.685546875 100.505859375 258.005859375 106.2734375 c 0
 318.095703125 111.2734375 378.452148438 187.456054688 376.686523438 354.440429688 c 0
 375.516601562 464.98828125 334 528.379882812 274.92578125 523.379882812 c 0
271.0703125 638 m 0
 356.138671875 641.20703125 485.0703125 581 485.0703125 369 c 0
 485.0703125 102.796875 376 -5 248.0703125 -10 c 0
 110.17578125 -15.3896484375 35.2236328125 107.997070312 39.0703125 306 c 0
 43.3037109375 523.874023438 177.13671875 634.458984375 271.0703125 638 c 0
EndSplineSet
EndChar

StartChar: r
Encoding: 114 114 70
Width: 496
Flags: HMW
LayerCount: 2
Fore
SplineSet
97.8603515625 610 m 1
 97.8603515625 610 183.860351562 658 279.860351562 658 c 0
 370.860351562 658 455.860351562 604 455.860351562 493 c 0
 455.860351562 428.96875 413.860351562 360 347.860351562 308 c 0
 289.416015625 261.953125 178 222 144 247 c 0
 110 272 149.860351562 312 171.860351562 322 c 0
 193.860351562 332 201.860351562 328 253.860351562 361 c 0
 305.860351562 394 339.860351562 426 339.860351562 473 c 0
 339.860351562 532 302.860351562 552 257.860351562 552 c 0
 184.860351562 552 134 471 108 470 c 0
 82 469 31.8603515625 473 33.8603515625 524 c 0
 35.8603515625 575 97.8603515625 610 97.8603515625 610 c 1
103.860351562 499 m 0
 107.860351562 545 117.166992188 622.346679688 179.860351562 591 c 0
 205.860351562 578 198.737304688 450.609375 196.8125 331 c 0
 194.874023438 210.490234375 193.868164062 78.052734375 191.860351562 64 c 0
 187.860351562 36 169.860351562 4 143.860351562 0 c 0
 117.860351562 -4 95.8603515625 19 95.8603515625 53 c 0
 95.8603515625 101.041992188 94.271484375 268.987304688 95.8603515625 327 c 0
 97.8603515625 400 99.8603515625 453 103.860351562 499 c 0
350.860351562 344 m 0
 409.860351562 317 453.264648438 270.333984375 460.91015625 160.485351562 c 0
 466.860351562 75 452.48828125 19.7236328125 419.874023438 -0.923828125 c 0
 392.982421875 -17.9482421875 353.44140625 -0.47265625 360.998046875 70.62109375 c 0
 369.860351562 154 351.860351562 248 288.860351562 267 c 0
 225.860351562 286 236.860351562 316 261.860351562 334 c 0
 297.350585938 359.552734375 322.322265625 357.059570312 350.860351562 344 c 0
EndSplineSet
EndChar

StartChar: s
Encoding: 115 115 71
Width: 516
Flags: HMW
LayerCount: 2
Fore
SplineSet
262.5 555 m 0
 195.5 555 138.5 501 138.5 450 c 0
 138.5 419.74609375 156.37890625 403 182.5 403 c 0
 249.5 403 264.5 425 342.5 425 c 0
 430.5 425 482.5 352.10546875 482.5 266 c 0
 482.5 164 460.815429688 0.109375 216.5 -10 c 0
 71.5 -16 54.5 99 54.5 136 c 0
 54.5 160.819335938 74.9921875 184 106 184 c 0
 133 184 157.5 172 159.5 142 c 0
 161.77734375 107.841796875 172.502011458 92.7279790369 230.5 94 c 0
 340.703125 96.4169921875 378.5 162 378.5 240 c 0
 378.5 288 353.5 329 313.5 329 c 0
 249.462890625 329 218.5 300 150.5 300 c 0
 82.5 300 33.5 357 33.5 427 c 0
 33.5 597 220.5 655 286.5 655 c 0
 352.5 655 408 617 410 534 c 0
 411.112304688 487.83984375 396.5 465 360.5 465 c 0
 344.5 465 310 476 309 502 c 0
 307.380859375 544.1015625 295.560546875 555 262.5 555 c 0
EndSplineSet
Substitution2: "'ss04' Style Set 4 in Latin lookup 3-1" S.ss04
EndChar

StartChar: t
Encoding: 116 116 72
Width: 490
Flags: HMW
LayerCount: 2
Fore
SplineSet
276.000976562 577 m 0
 284.000976562 555 285.000976562 530 285.000976562 468 c 0
 285.000976562 406 284.000976562 420 284.000976562 312 c 0
 284.000976562 203.92578125 283.452148438 105 269.452148438 55 c 0
 260.92578125 24.548828125 241.452148438 0 216.452148438 0 c 0
 191.452148438 0 175.452148438 18 175.000976562 50 c 0
 174.323242188 98.037109375 185.000976562 569 191.000976562 587 c 0
 197.000976562 605 215.000976562 617 237.000976562 617 c 0
 259.000976562 617 265.909179688 604.751953125 276.000976562 577 c 0
26.4521484375 524 m 4
 27.4521484375 580 111.447265625 629.071289062 250.452148438 639 c 4
 404.452148438 650 466.452148438 638 463.452148438 581 c 4
 460.036132812 516.08984375 366.452148438 538 242.452148438 527 c 4
 158.567382812 519.55859375 124.73828125 492.458984375 92.4521484375 485 c 4
 55.7578125 476.522460938 25.880859375 491.989257812 26.4521484375 524 c 4
EndSplineSet
EndChar

StartChar: u
Encoding: 117 117 73
Width: 497
Flags: HMW
LayerCount: 2
Fore
SplineSet
54.509765625 591 m 0
 56.514881403 624.674586161 87.509765625 636 104.509765625 636 c 0
 115.911132812 636 161.647492709 631.81146022 156.509765625 562 c 0
 145.038012398 406.121762209 135.325006944 315.229149005 126 230 c 0
 115.008750911 129.541650532 161.636915037 90.4467528655 223.509765625 98 c 0
 330 111 363.509765625 173 363.509765625 416 c 0
 363.509765625 512 361.509765625 544 359.509765625 566 c 0
 352.988677513 637.731969232 384.509765625 644 408.509765625 644 c 0
 432.509765625 644 464.509765625 628 470.509765625 514 c 0
 477.55970587 380.051135344 472.509765625 224 425.509765625 117 c 0
 390.614257812 37.556640625 318 0 224.509765625 -10 c 4
 79.337890625 -25.5283203125 8.66664172075 110.731052622 25.509765625 236 c 4
 41.2181704132 352.829594319 45.7121000974 443.2490576 54.509765625 591 c 0
EndSplineSet
Substitution2: "'ss05' Style Set 5 in Latin lookup 4-1" U.ss05
EndChar

StartChar: v
Encoding: 118 118 74
Width: 549
Flags: HMW
LayerCount: 2
Fore
SplineSet
329.584960938 29.05859375 m 0
 313.584960938 1.05859375 284.584960938 -12.7919921875 244.584960938 -2.94140625 c 0
 204.549804688 6.91796875 190.584960938 67.05859375 146.584960938 183.05859375 c 0
 102.584960938 299.05859375 48.5849609375 510.05859375 40.5849609375 556.05859375 c 0
 32.5849609375 602.05859375 37.5849609375 620.05859375 58.5849609375 632.05859375 c 0
 81.947265625 645.408203125 109.584960938 638.05859375 133.584960938 598.05859375 c 0
 157.584960938 558.05859375 213.013671875 354 234.584960938 269.05859375 c 0
 254.983398438 188.735351562 272.013671875 125 272.013671875 125 c 1
 282.442382812 181.94140625 353.013671875 408 371.584960938 460.05859375 c 0
 391.153320312 514.913085938 401.013671875 547 417.013671875 587 c 0
 433.013671875 627 457.013671875 637 479.013671875 633 c 0
 501.013671875 629 518.013671875 606 510.013671875 552 c 0
 493.908203125 443.287109375 352.813476562 69.708984375 329.584960938 29.05859375 c 0
EndSplineSet
EndChar

StartChar: x
Encoding: 120 120 75
Width: 495
Flags: HMW
LayerCount: 2
Fore
SplineSet
452.41796875 538.05859375 m 0
 429.41796875 492.05859375 328.646484375 343.19140625 287.998046875 270.971679688 c 4
 245.012695312 194.600585938 154.524414062 53.26171875 123.181640625 18.712890625 c 0
 91.8388671875 -15.8349609375 63.2978515625 -17.6513671875 42.9892578125 0 c 0
 24.734375 15.8671875 23.3427734375 34.49609375 40.1640625 78.0517578125 c 0
 56.9853515625 121.606445312 150.40234375 274.15234375 215.831054688 379.5625 c 4
 280.834960938 484.288085938 369.41796875 665.05859375 434.41796875 642.05859375 c 0
 463.08984375 631.913085938 480.424804688 594.073242188 452.41796875 538.05859375 c 0
452.41796875 104 m 0
 480.424804688 47.9853515625 463.08984375 10.1455078125 434.41796875 0 c 0
 369.41796875 -23 270.834960938 141.770507812 205.831054688 246.49609375 c 0
 140.40234375 351.90625 56.1171875 512.857421875 45.09375 558.227539062 c 0
 34.0703125 603.598632812 37.869140625 621.889648438 58.029296875 635.251953125 c 0
 80.4580078125 650.1171875 108.521484375 644.610351562 135.11328125 606.28515625 c 0
 161.706054688 567.958984375 235.012695312 431.458007812 277.998046875 355.086914062 c 0
 318.646484375 282.8671875 429.41796875 150 452.41796875 104 c 0
EndSplineSet
EndChar

StartChar: y
Encoding: 121 121 76
Width: 509
Flags: HMW
LayerCount: 2
Fore
SplineSet
266.765625 324.936523438 m 0
 281.819460921 298.722601274 276.928710938 261.677734375 257.408203125 247.396484375 c 0
 235.69140625 231.509765625 198.378118516 247.059817839 179.06640625 272.764648438 c 0
 100.01164893 377.990384867 50.3335478855 473.818206444 31 529 c 0
 12.138671875 582.833984375 21 618 53 631 c 0
 82.5440907993 643.002286887 117.285822936 636.40124834 137 585 c 0
 154.70703125 538.83203125 205.685543141 431.298019604 266.765625 324.936523438 c 0
468.318359375 540.595703125 m 0
 447.71875 492.965820312 392 380 324.784179688 270.971679688 c 0
 256.535468178 160.267944395 151.055664062 42.4931640625 113.115234375 14.4736328125 c 0
 75.17578125 -13.5458984375 46.75 -10.0498046875 30.4375 10.978515625 c 0
 15.7763671875 29.880859375 18.2568359375 48.369140625 43.787109375 87.8876953125 c 0
 69.3154296875 127.40625 187.260742188 274.15234375 255.026367188 379.5625 c 0
 322.3515625 484.288085938 379.080078125 661.40625 445.077148438 643.173828125 c 0
 474.189453125 635.130859375 493.401367188 598.595703125 468.318359375 540.595703125 c 0
EndSplineSet
EndChar

StartChar: z
Encoding: 122 122 77
Width: 549
Flags: HMW
LayerCount: 2
Fore
SplineSet
56.4638671875 39 m 0
 57.4638671875 95 141.458984375 124.071289062 280.463867188 134 c 0
 434.463867188 145 496.463867188 133 493.463867188 76 c 0
 490.047851562 11.08984375 396.463867188 23 272.463867188 12 c 0
 188.579101562 4.55859375 154.463867188 0 122.463867188 0 c 0
 84.802734375 0 55.892578125 6.9892578125 56.4638671875 39 c 0
56.4638671875 559 m 4
 57.4638671875 615 141.458984375 634.071289062 280.463867188 644 c 4
 434.463867188 655 496.463867188 643 493.463867188 586 c 4
 490.047851562 521.08984375 396.463867188 533 272.463867188 522 c 4
 188.579101562 514.55859375 154.463867188 510 122.463867188 510 c 4
 84.802734375 510 55.892578125 526.989257812 56.4638671875 559 c 4
485.017578125 538.05859375 m 0
 460.997070312 492.05859375 366.924804688 343.19140625 324.674804688 270.971679688 c 0
 279.997070312 194.600585938 176.375 69.26171875 144.265625 34.712890625 c 0
 112.157226562 0.1650390625 83.5751953125 -1.6513671875 63.658203125 16 c 0
 45.755859375 31.8671875 44.77734375 50.49609375 62.564453125 94.0517578125 c 0
 80.3505859375 137.606445312 187.15234375 274.15234375 254.916992188 379.5625 c 0
 322.2421875 484.288085938 400.973632812 657 465.463867188 634 c 0
 493.911132812 623.854492188 514.267578125 594.073242188 485.017578125 538.05859375 c 0
EndSplineSet
EndChar

StartChar: parenleft
Encoding: 40 40 78
Width: 308
Flags: HMW
LayerCount: 2
Fore
SplineSet
39.0703125 299.98046875 m 4
 39 450.98046875 75.8505859375 558.233398438 171.231445312 666.114257812 c 0
 216.283203125 717.0703125 248.987304688 709.682617188 266.328125 694.572265625 c 0
 295.551757812 668.728515625 269.840820312 633.150390625 246.893554688 606.815429688 c 0
 222.540039062 578.8671875 134 479.98046875 134.0703125 300.470703125 c 4
 134 119.9609375 222.540039062 61.09375 246.893554688 33.1455078125 c 0
 269.840820312 6.810546875 295.551757812 -28.767578125 266.328125 -54.611328125 c 0
 248.987304688 -69.7216796875 216.283203125 -77.109375 171.231445312 -26.1533203125 c 0
 75.8515625 81.728515625 39 148.9609375 39.0703125 299.98046875 c 4
EndSplineSet
EndChar

StartChar: parenright
Encoding: 41 41 79
Width: 307
Flags: HMW
LayerCount: 2
Fore
SplineSet
270.927734375 339.98046875 m 4
 270.998046875 188.9609375 234.146484375 81.728515625 138.766601562 -26.1533203125 c 0
 93.71484375 -77.109375 61.0107421875 -69.7216796875 43.669921875 -54.611328125 c 0
 14.4462890625 -28.767578125 40.1572265625 6.810546875 63.1044921875 33.1455078125 c 0
 87.4580078125 61.09375 175.998046875 159.9609375 175.927734375 340.470703125 c 4
 175.998046875 519.98046875 87.4580078125 578.8671875 63.1044921875 606.815429688 c 0
 40.1572265625 633.150390625 14.4462890625 668.728515625 43.669921875 694.572265625 c 0
 61.0107421875 709.682617188 93.71484375 717.0703125 138.766601562 666.114257812 c 0
 234.147460938 558.233398438 270.998046875 490.98046875 270.927734375 339.98046875 c 4
EndSplineSet
EndChar

StartChar: grave
Encoding: 96 96 80
Width: 208
Flags: HMW
LayerCount: 2
Fore
SplineSet
173.018554688 499.186523438 m 0
 146.77734375 472.946289062 87.3544921875 505.913085938 48.0390625 545.228515625 c 0
 21.4140625 571.853515625 9.58984375 605.06640625 37.626953125 633.103515625 c 0
 65.43359375 660.91015625 98.9541015625 647.15234375 126.423828125 619.682617188 c 0
 164.755859375 581.350585938 197.649414062 523.818359375 173.018554688 499.186523438 c 0
EndSplineSet
Validated: 524321
EndChar

StartChar: asterisk
Encoding: 42 42 81
Width: 427
Flags: HMW
LayerCount: 2
Fore
SplineSet
260.772460938 634.342773438 m 0
 268.772460938 615.971679688 269.772460938 582.521484375 269.772460938 545.409179688 c 0
 269.772460938 508.297851562 268.772460938 484.354492188 268.772460938 467.594726562 c 0
 268.772460938 420.861328125 265.772460938 366.9296875 255.772460938 352.592773438 c 0
 245.772460938 338.255859375 235.772460938 328.328125 210.772460938 328.328125 c 0
 185.772460938 328.328125 161.772460938 334.946289062 159.772460938 387.883789062 c 0
 157.772460938 440.822265625 154.772460938 627.663085938 160.772460938 642.692382812 c 0
 166.772460938 657.72265625 179.772460938 667.744140625 201.772460938 667.744140625 c 0
 223.772460938 667.744140625 250.680664062 657.516601562 260.772460938 634.342773438 c 0
211.552734375 540.372070312 m 0
 240.965820312 558.926757812 280.37890625 602.762695312 317.407226562 607.549804688 c 0
 357.59375 612.745117188 382.517578125 566.50390625 365.779296875 539.211914062 c 0
 343.274414062 502.516601562 291.350585938 495.142578125 246.041992188 466.55859375 c 0
 216.627929688 448.00390625 170.870117188 394.31640625 124.087890625 378.651367188 c 0
 68.890625 360.16796875 45.2626953125 413.762695312 64.4521484375 441.791992188 c 0
 92.9521484375 483.418945312 166.243164062 511.788085938 211.552734375 540.372070312 c 0
117.296875 608.103515625 m 0
 136.488143599 602.340718615 176.818359375 562.168945312 201.962890625 549.079101562 c 0
 227.10546875 535.991210938 242.923828125 526.953125 254.278320312 521.041015625 c 0
 285.940429688 504.55859375 334 487 366.807617188 459.634765625 c 0
 380.230655273 448.438445541 387.791992188 423.478515625 375 402 c 0
 362.208007812 380.520507812 332.048733038 366.761569411 287.36328125 395.213867188 c 0
 261 412 78.6945754383 508.813884363 67 520 c 0
 44 542 46.7428725279 569.098806441 58 588 c 0
 69.2578125 606.90234375 91 616 117.296875 608.103515625 c 0
EndSplineSet
EndChar

StartChar: slash
Encoding: 47 47 82
Width: 352
Flags: HMW
LayerCount: 2
Fore
SplineSet
331.900390625 571.188476562 m 4
 318.430664062 521.5546875 258.821289062 357.702148438 233.224609375 278.880859375 c 4
 206.155273438 195.529296875 135.53515625 37.138671875 111.626953125 -2.9150390625 c 4
 87.7177734375 -42.96875 60.0966796875 -50.3818359375 36.7041015625 -37.0859375 c 4
 15.6767578125 -25.1328125 10.63671875 -7.14453125 18.53125 38.8740234375 c 4
 26.4267578125 84.8916015625 97.70703125 254.845703125 141.046875 371.094726562 c 4
 184.106445312 486.588867188 225.470703125 679.3125 293.731445312 669.591796875 c 4
 323.841796875 665.303710938 348.302734375 631.62890625 331.900390625 571.188476562 c 4
EndSplineSet
Validated: 524321
EndChar

StartChar: backslash
Encoding: 92 92 83
Width: 352
Flags: HMW
LayerCount: 2
Fore
SplineSet
20.267578125 571.188476562 m 0
 3.865234375 631.62890625 28.326171875 665.303710938 58.4365234375 669.591796875 c 0
 126.697265625 679.3125 168.061523438 486.588867188 211.12109375 371.094726562 c 0
 254.4609375 254.845703125 325.741210938 84.8916015625 333.63671875 38.8740234375 c 0
 341.53125 -7.14453125 336.491210938 -25.1328125 315.463867188 -37.0859375 c 0
 292.071289062 -50.3818359375 264.450195312 -42.96875 240.541015625 -2.9150390625 c 0
 216.6328125 37.138671875 146.012695312 195.529296875 118.943359375 278.880859375 c 0
 93.3466796875 357.702148438 33.7373046875 521.5546875 20.267578125 571.188476562 c 0
EndSplineSet
Validated: 524321
EndChar

StartChar: percent
Encoding: 37 37 84
Width: 856
Flags: HMW
LayerCount: 2
Fore
SplineSet
672.377929688 198.44140625 m 0
 631.961914062 193.240234375 603.673828125 171.442382812 602.5546875 131.109375 c 0
 601.578125 95.9072265625 623.983398438 79.517578125 662.854492188 84.1103515625 c 0
 696.709960938 88.1103515625 723.09375 110.879882812 722.098632812 156.651367188 c 0
 721.44140625 186.955078125 707.26953125 202.931640625 672.377929688 198.44140625 c 0
668.92578125 295.473632812 m 0
 733.1875 299.473632812 812.055664062 274.704101562 812.055664062 166.583984375 c 0
 812.055664062 56.3212890625 762.819335938 -6 660 -10 c 0
 549.231445312 -14.3095703125 504 59.3720703125 506.80859375 134.854492188 c 0
 510.94140625 245.927734375 600.4140625 291.208984375 668.92578125 295.473632812 c 0
631.41796875 538.05859375 m 0
 608.41796875 492.05859375 517.646484375 343.19140625 476.998046875 270.971679688 c 0
 434.012695312 194.600585938 333.524414062 53.26171875 302.181640625 18.712890625 c 0
 270.838867188 -15.8349609375 242.297851562 -17.6513671875 221.989257812 0 c 0
 203.734375 15.8671875 202.342773438 34.49609375 219.1640625 78.0517578125 c 0
 235.985351562 121.606445312 339.40234375 274.15234375 404.831054688 379.5625 c 0
 469.834960938 484.288085938 548.41796875 665.05859375 613.41796875 642.05859375 c 0
 642.08984375 631.913085938 659.424804688 594.073242188 631.41796875 538.05859375 c 0
212.03515625 540.96875 m 4
 171.61930341 535.767594318 143.331054688 513.969726562 142.211914062 473.63671875 c 4
 141.235351562 438.434570312 163.640483719 422.045086028 202.51171875 426.637695312 c 4
 236.3671875 430.637695312 262.750976562 453.407226562 261.755859375 499.178710938 c 4
 261.098632812 529.482421875 246.926757812 545.458984375 212.03515625 540.96875 c 4
208.583007812 638.000976562 m 4
 272.844726562 642.000976562 351.712890625 617.231445312 351.712890625 509.111328125 c 4
 351.712890625 398.848632812 302.4765625 336.52734375 199.657226562 332.52734375 c 4
 88.8884777371 328.218086243 43.6572265625 401.899414062 46.4658203125 477.381835938 c 4
 50.5986328125 588.455078125 140.071072888 633.736419918 208.583007812 638.000976562 c 4
EndSplineSet
EndChar

StartChar: less
Encoding: 60 60 85
Width: 420
Flags: HMW
LayerCount: 2
Fore
SplineSet
391.139648438 412.517578125 m 0
 391.139648438 382.336914062 366.5 368.220703125 352.583007812 362.653320312 c 0
 307.146484375 344.479492188 154.861328125 295.995117188 153.45703125 295.565429688 c 5
 236.12890625 273.772460938 345.495117188 278.061523438 361.552734375 268.426757812 c 0
 386.857421875 253.245117188 393.291992188 234.766601562 393.291992188 221.15234375 c 0
 393.291992188 204.75390625 382.291992188 174.592773438 344.987304688 174.592773438 c 0
 289.69140625 174.592773438 111.150390625 219.352539062 108.84765625 220.19140625 c 4
 57.734375 238.815429688 27.7802734375 249.729492188 27.7802734375 292.81640625 c 4
 27.7802734375 323.586914062 47.0400390625 338.765625 57.4833984375 344.734375 c 4
 76.6435546875 355.681640625 284.239257812 457.448242188 338.822265625 457.448242188 c 0
 375.803710938 457.448242188 391.139648438 433.85546875 391.139648438 412.517578125 c 0
EndSplineSet
EndChar

StartChar: greater
Encoding: 62 62 86
Width: 421
Flags: HMW
LayerCount: 2
Fore
SplineSet
29.8623046875 412.517578125 m 0
 29.8623046875 433.85546875 45.1982421875 457.448242188 82.1796875 457.448242188 c 0
 136.762695312 457.448242188 341.421875 396.397460938 361.086914062 386.384765625 c 0
 371.8046875 380.924804688 391.772460938 366.689453125 393.250976562 335.954101562 c 0
 395.322265625 292.916992188 365.927734375 280.576171875 315.768554688 259.516601562 c 0
 313.508789062 258.567382812 131.310546875 174.592773438 76.0146484375 174.592773438 c 0
 38.7099609375 174.592773438 27.7099609375 204.75390625 27.7099609375 221.15234375 c 0
 27.7099609375 234.766601562 34.14453125 253.245117188 59.44921875 268.426757812 c 0
 75.5068359375 278.061523438 186.05859375 306.916992188 267.587890625 332.658203125 c 1
 266.1640625 333.020507812 113.85546875 344.479492188 68.4189453125 362.653320312 c 0
 54.501953125 368.220703125 29.8623046875 382.336914062 29.8623046875 412.517578125 c 0
EndSplineSet
EndChar

StartChar: equal
Encoding: 61 61 87
Width: 427
Flags: HMW
LayerCount: 2
Fore
SplineSet
218.118164062 444 m 0
 263.662109375 450.461914062 292.118164062 456 327.118164062 443 c 0
 365.104492188 428.890625 365.63671875 376.362304688 338.118164062 360 c 0
 301.118164062 338 277.133789062 338.817382812 206.977539062 328.86328125 c 0
 161.43359375 322.401367188 124.715820312 308.528320312 76.0185546875 316.44140625 c 0
 18.5634765625 325.778320312 22.6005859375 384.2109375 52.6318359375 400.084960938 c 0
 97.232421875 423.66015625 147.961914062 434.045898438 218.118164062 444 c 0
218.118164062 284 m 0
 263.662109375 290.461914062 292.118164062 296 327.118164062 283 c 0
 365.104492188 268.890625 365.63671875 216.362304688 338.118164062 200 c 0
 301.118164062 178 277.133789062 178.817382812 206.977539062 168.86328125 c 0
 161.43359375 162.401367188 124.715820312 148.528320312 76.0185546875 156.44140625 c 0
 18.5634765625 165.778320312 22.6005859375 224.2109375 52.6318359375 240.084960938 c 0
 97.232421875 263.66015625 147.961914062 274.045898438 218.118164062 284 c 0
EndSplineSet
Validated: 524321
EndChar

StartChar: numbersign
Encoding: 35 35 88
Width: 638
Flags: HMW
LayerCount: 2
Fore
SplineSet
32.0087890625 177 m 0
 33.0087890625 233 96.8515625 254.49609375 306.008789062 262 c 0
 510.173828125 269.32421875 582.008789062 261 579.008789062 204 c 0
 575.592773438 139.08984375 472.252929688 146.009765625 298.008789062 140 c 0
 143.961914062 134.686523438 130.008789062 128 98.0087890625 128 c 0
 60.34765625 128 31.4375 144.989257812 32.0087890625 177 c 0
52.0087890625 387 m 0
 53.0087890625 443 116.8515625 464.49609375 326.008789062 472 c 0
 530.173828125 479.32421875 602.008789062 471 599.008789062 414 c 0
 595.592773438 349.08984375 492.252929688 356.009765625 318.008789062 350 c 0
 163.961914062 344.686523438 150.008789062 338 118.008789062 338 c 0
 80.34765625 338 51.4375 354.989257812 52.0087890625 387 c 0
198.55078125 488.568359375 m 0
 218.327148438 596.225585938 241.962890625 634.309570312 271.731445312 630.587890625 c 0
 301.5 626.8671875 324.010742188 593.936523438 305.46875 465.125976562 c 0
 251.885742188 92.8974609375 252.686523438 -8.1396484375 185.009765625 0 c 0
 118.741210938 7.970703125 129.008789062 110 198.55078125 488.568359375 c 0
388.55078125 488.568359375 m 0
 408.327148438 596.225585938 431.962890625 634.309570312 461.731445312 630.587890625 c 0
 491.5 626.8671875 514.010742188 593.936523438 495.46875 465.125976562 c 0
 441.885742188 92.8974609375 442.686523438 -8.1396484375 375.009765625 0 c 0
 308.741210938 7.970703125 319.008789062 110 388.55078125 488.568359375 c 0
EndSplineSet
Validated: 524325
EndChar

StartChar: bracketleft
Encoding: 91 91 89
Width: 301
Flags: HMW
LayerCount: 2
Fore
SplineSet
39.11328125 618 m 0
 40.2666015625 667.73046875 53.6005859375 696.852539062 187.529296875 695.798828125 c 0
 255.543945312 695.263671875 271.439453125 665.744140625 271.424804688 642.743164062 c 0
 271.11328125 603.732421875 227.396484375 599.793945312 192.466796875 599.794921875 c 0
 166.991210938 599.794921875 147.940429688 600.1953125 133.943359375 600.873046875 c 1
 133.943359375 38.67578125 l 1
 146.428710938 39.5615234375 165.15625 40.1650390625 192.466796875 40.166015625 c 0
 227.396484375 40.1669921875 271.11328125 36.228515625 271.424804688 -2.7822265625 c 0
 271.439453125 -25.783203125 255.543945312 -55.3037109375 187.529296875 -55.837890625 c 0
 51.669921875 -56.9052734375 39.0703125 -28.380859375 39.0703125 36 c 0
 39.0703125 88 39.11328125 555 39.11328125 618 c 0
EndSplineSet
Validated: 524321
EndChar

StartChar: bracketright
Encoding: 93 93 90
Width: 300
Flags: HMW
LayerCount: 2
Fore
SplineSet
262.911132812 618 m 0
 262.911132812 555 262.954101562 88 262.954101562 36 c 0
 262.954101562 -28.380859375 250.354492188 -56.9052734375 114.495117188 -55.837890625 c 0
 46.48046875 -55.3037109375 30.5849609375 -25.783203125 30.599609375 -2.7822265625 c 0
 30.9111328125 36.228515625 74.6279296875 40.1669921875 109.557617188 40.166015625 c 0
 136.8671875 40.1650390625 155.595703125 39.5615234375 168.081054688 38.67578125 c 1
 168.081054688 600.873046875 l 1
 154.083984375 600.1953125 135.032226562 599.794921875 109.557617188 599.794921875 c 0
 74.6279296875 599.793945312 30.9111328125 603.732421875 30.599609375 642.743164062 c 0
 30.5849609375 665.744140625 46.48046875 695.263671875 114.495117188 695.798828125 c 0
 248.423828125 696.852539062 261.7578125 667.73046875 262.911132812 618 c 0
EndSplineSet
Validated: 524321
EndChar

StartChar: braceleft
Encoding: 123 123 91
Width: 427
Flags: HMW
LayerCount: 2
Fore
SplineSet
247.153320312 106.491210938 m 4
 290.75390625 121.155273438 317.721679688 131.79296875 354.506835938 125.397460938 c 4
 394.428710938 118.456054688 404.538085938 66.9072265625 380.466796875 45.7978515625 c 4
 348.102539062 17.4150390625 324.372070312 13.8427734375 257.208984375 -8.7451171875 c 4
 213.608398438 -23.4091796875 180.0390625 -43.7490234375 130.715820312 -44.85546875 c 4
 72.5205078125 -46.1591796875 65.828125 12.029296875 92.458984375 33.1162109375 c 4
 132.008789062 64.43359375 179.991210938 83.90234375 247.153320312 106.491210938 c 4
290.733398438 629.489257812 m 4
 333.515625 612.5859375 360.987304688 603.329101562 384.981445312 574.72265625 c 4
 411.021484375 543.67578125 385.510742188 497.754882812 353.500976562 497.140625 c 4
 310.461914062 496.313476562 290.01953125 508.883789062 224.118164062 534.922851562 c 4
 181.3359375 551.826171875 142.561523438 557.923828125 104.147460938 588.880859375 c 4
 58.82421875 625.407226562 91.2265625 674.200195312 125.178710938 673.147460938 c 4
 175.602539062 671.584960938 224.83203125 655.528320312 290.733398438 629.489257812 c 4
229.936523438 371.255859375 m 4
 275.934570312 370.866210938 304.8984375 372.106445312 337.573242188 354.041015625 c 4
 373.036132812 334.434570312 365.7421875 282.412109375 336.094726562 270.329101562 c 4
 296.232421875 254.08203125 272.63671875 258.459960938 201.780273438 259.060546875 c 4
 155.782226562 259.450195312 117.408203125 251.197265625 70.431640625 266.271484375 c 4
 15.0068359375 284.057617188 27.697265625 341.23828125 59.7568359375 352.46484375 c 4
 107.369140625 369.137695312 159.080078125 371.856445312 229.936523438 371.255859375 c 4
EndSplineSet
Validated: 524321
EndChar

StartChar: braceright
Encoding: 125 125 92
Width: 427
Flags: HMW
LayerCount: 2
Fore
SplineSet
180.858398438 106.491210938 m 4
 248.020507812 83.90234375 296.002929688 64.43359375 335.552734375 33.1162109375 c 4
 362.18359375 12.029296875 355.491210938 -46.1591796875 297.295898438 -44.85546875 c 4
 247.97265625 -43.7490234375 214.403320312 -23.4091796875 170.802734375 -8.7451171875 c 4
 103.639648438 13.8427734375 79.9091796875 17.4150390625 47.544921875 45.7978515625 c 4
 23.4736328125 66.9072265625 33.5830078125 118.456054688 73.5048828125 125.397460938 c 4
 110.290039062 131.79296875 137.2578125 121.155273438 180.858398438 106.491210938 c 4
137.278320312 629.489257812 m 4
 203.1796875 655.528320312 252.409179688 671.584960938 302.833007812 673.147460938 c 4
 336.78515625 674.200195312 369.1875 625.407226562 323.864257812 588.880859375 c 4
 285.450195312 557.923828125 246.67578125 551.826171875 203.893554688 534.922851562 c 4
 137.9921875 508.883789062 117.549804688 496.313476562 74.5107421875 497.140625 c 4
 42.5009765625 497.754882812 16.990234375 543.67578125 43.0302734375 574.72265625 c 4
 67.0244140625 603.329101562 94.49609375 612.5859375 137.278320312 629.489257812 c 4
198.075195312 371.255859375 m 4
 268.931640625 371.856445312 320.642578125 369.137695312 368.254882812 352.46484375 c 4
 400.314453125 341.23828125 413.004882812 284.057617188 357.580078125 266.271484375 c 4
 310.603515625 251.197265625 272.229492188 259.450195312 226.231445312 259.060546875 c 4
 155.375 258.459960938 131.779296875 254.08203125 91.9169921875 270.329101562 c 4
 62.26953125 282.412109375 54.9755859375 334.434570312 90.4384765625 354.041015625 c 4
 123.11328125 372.106445312 152.077148438 370.866210938 198.075195312 371.255859375 c 4
EndSplineSet
Validated: 524321
EndChar

StartChar: ampersand
Encoding: 38 38 93
Width: 552
Flags: HMW
LayerCount: 2
Fore
SplineSet
435.7578125 4.7001953125 m 0
 234.740234375 124.3203125 69.8125 255 69.8125 425.509765625 c 0
 69.8125 568.215820312 155.8125 631.509765625 249.8125 647.509765625 c 0
 342.668272339 663.31500347 431.8125 623.509765625 446.8125 568.509765625 c 0
 467.362304688 493.159179688 405.8125 481.509765625 377.8125 503.509765625 c 0
 349.8125 525.509765625 330.456094597 549.213051943 267.8125 535.509765625 c 0
 203.8125 521.509765625 186.620117188 465.305664062 186.620117188 423 c 0
 186.620117188 308.490234375 291.102539062 238.041015625 468.9921875 120.469726562 c 0
 524.62109375 83.7041015625 531.896484375 44.521484375 516.881835938 20.0087890625 c 0
 502.5703125 -3.35546875 467.533203125 -14.2080078125 435.7578125 4.7001953125 c 0
119 356 m 0
 154 371 193.239595289 341.258720166 197 296 c 0
 200.740760577 250.97770874 140 253 140 166 c 0
 140 121.818359375 158.000063156 79.9995768622 225 90 c 0
 301.758789062 101.45703125 346 209 365 257 c 0
 400.223632812 345.986328125 425.022579823 412.063364349 470 396 c 0
 512 381 503.923750282 323.455101881 487 268 c 0
 455.006835938 163.166015625 381 -8 223 -20 c 0
 85.9552152278 -30.4084646662 27.3837890625 53.9970703125 28 162 c 0
 28.6220703125 271.041015625 84 338 119 356 c 0
EndSplineSet
EndChar

StartChar: underscore
Encoding: 95 95 94
Width: 498
Flags: MW
LayerCount: 2
Fore
SplineSet
26.4638671875 -131 m 0
 27.4638671875 -75 111.458984375 -45.9287109375 250.463867188 -36 c 0
 404.463867188 -25 466.463867188 -37 463.463867188 -94 c 0
 460.047851562 -158.91015625 366.463867188 -147 242.463867188 -158 c 0
 158.579101562 -165.44140625 124.463867188 -170 92.4638671875 -170 c 0
 54.802734375 -170 25.892578125 -163.010742188 26.4638671875 -131 c 0
EndSplineSet
Validated: 524321
EndChar

StartChar: at
Encoding: 64 64 95
Width: 690
Flags: HMW
LayerCount: 2
Fore
SplineSet
395.028320312 228.33203125 m 0
 415.48046875 198.837890625 457.1171875 191.862304688 488.559570312 195 c 0
 588.75390625 205 644 287.661132812 644 386 c 0
 644 588 502.716200082 646.486997469 369.915039062 638 c 0
 230.981445312 629.12109375 49.404296875 543.874023438 43.0751953125 326 c 0
 37.32421875 127.997070312 153.217773438 -22.076171875 359.037109375 0.7939453125 c 0
 415.72940636 7.0934480768 482.677734375 13.96484375 569.984375 54.267578125 c 0
 632.610351562 83.1767578125 604.026367188 158.171875 550.168945312 147.220703125 c 0
 505.319335938 138.1015625 470.257795396 112.305409332 362.189453125 96.3740234375 c 0
 226.66796875 76.3955078125 137.088867188 172.869140625 140.473632812 314.977539062 c 0
 144.350585938 477.796875 240.987304688 537.231445312 380.52734375 546.422851562 c 0
 502.402762767 554.450701459 550.991210938 479.700195312 550.991210938 387.3515625 c 0
 550.991210938 329.172851562 530.9453125 284.108398438 497.209960938 274 c 0
 466.193359375 264.706054688 436 272 453.474609375 380 c 0
 459.748338083 418.7741257 440.423828125 431.58203125 416.280273438 439.451171875 c 0
 313.344726562 473 226.930928136 417.579375834 224.63671875 308.083984375 c 0
 223.37109375 247.6796875 253.935546875 188.200195312 321.995117188 188.200195312 c 0
 379.91796875 188.200195312 406.788085938 213.083007812 423 227 c 0
 455.350585938 254.772460938 418.060546875 312.4609375 382.544921875 284 c 0
 377.09765625 279.634765625 364.291015625 263.48828125 334.0234375 263.48828125 c 0
 318.67578125 263.48828125 299.28515625 276.91796875 299.28515625 305.087890625 c 0
 299.28515625 366 337 389 378 375 c 1
 375.080078125 348.174804688 373.450195312 259.44921875 395.028320312 228.33203125 c 0
EndSplineSet
EndChar

StartChar: asciicircum
Encoding: 94 94 96
Width: 421
Flags: HMW
LayerCount: 2
Fore
SplineSet
113.96875 295.416992188 m 4
 92.630859375 295.416992188 69.0380859375 310.752929688 69.0380859375 347.734375 c 4
 69.0380859375 402.317382812 150.8046875 609.913085938 161.751953125 629.073242188 c 4
 167.720703125 639.516601562 182.899414062 658.776367188 213.669921875 658.776367188 c 4
 256.756835938 658.776367188 267.670898438 628.822265625 286.294921875 577.708984375 c 4
 287.133789062 575.40625 351.893554688 396.865234375 351.893554688 341.569335938 c 4
 351.893554688 304.264648438 321.732421875 293.264648438 305.333984375 293.264648438 c 4
 291.719726562 293.264648438 273.241210938 299.69921875 258.059570312 325.00390625 c 4
 248.424804688 341.061523438 232.713867188 450.427734375 210.920898438 533.099609375 c 5
 210.491210938 531.6953125 182.006835938 379.41015625 163.833007812 333.973632812 c 4
 158.265625 320.056640625 144.149414062 295.416992188 113.96875 295.416992188 c 4
EndSplineSet
Validated: 524289
EndChar

StartChar: bar
Encoding: 124 124 97
Width: 218
Flags: MW
LayerCount: 2
Fore
SplineSet
156.272460938 641 m 0
 164.272460938 619 165.272460938 594 165.272460938 532 c 0
 165.272460938 470 164.272460938 430 164.272460938 322 c 0
 164.272460938 213.92578125 161.272460938 -5 151.272460938 -18 c 0
 141.272460938 -31 131.272460938 -40 106.272460938 -40 c 0
 81.2724609375 -40 57.2724609375 -34 55.2724609375 14 c 0
 53.2724609375 62 50.2724609375 633 56.2724609375 651 c 0
 62.2724609375 669 75.2724609375 681 97.2724609375 681 c 0
 119.272460938 681 146.180664062 668.751953125 156.272460938 641 c 0
EndSplineSet
Validated: 524321
EndChar

StartChar: asciitilde
Encoding: 126 126 98
Width: 427
Flags: HMW
LayerCount: 2
Fore
SplineSet
246.32421875 334.475585938 m 4
 270.385742188 314.365234375 291.973632812 312.33203125 322.283203125 325.818359375 c 4
 403.598632812 362 423.448242188 272.8046875 364.802734375 245.596679688 c 4
 291.922851562 211.78515625 223.814453125 238.584960938 184.514648438 264.083007812 c 4
 161.3671875 279.100585938 136.392578125 287.44140625 108.556640625 272.739257812 c 4
 28.736328125 230.580078125 -2.337890625 315.176757812 66.0361328125 352.9609375 c 4
 137.228515625 392.302734375 209.405273438 365.333007812 246.32421875 334.475585938 c 4
EndSplineSet
Validated: 524321
EndChar

StartChar: sterling
Encoding: 163 163 99
Width: 545
Flags: HMW
LayerCount: 2
Fore
SplineSet
173.192382812 545 m 0
 225.983220533 641.342573205 301.745117188 654 363.874023438 654 c 0
 447.874023438 654 482.874023438 616 488.874023438 584 c 0
 494.874023438 552 475.874023438 526 439.874023438 526 c 0
 406.813476562 526 400.799804688 546.504882812 365.874023438 549 c 0
 323.874023438 552 271.807242556 537.019123036 244.192382812 462 c 0
 208.118164062 364 255.548828125 284.252929688 185.657226562 50.4765625 c 0
 174.453125 13.0009765625 150.46484375 -7.8876953125 115.014648438 2.7099609375 c 0
 86.12890625 11.3466796875 69.96484375 37.0537109375 84 84 c 0
 159.920898438 337.94140625 91 395 173.192382812 545 c 0
208.118164062 364 m 0
 253.662109375 370.461914062 282.118164062 376 317.118164062 363 c 0
 355.104492188 348.890625 355.63671875 296.362304688 328.118164062 280 c 0
 291.118164062 258 267.133789062 258.817382812 196.977539062 248.86328125 c 0
 151.43359375 242.401367188 114.715820312 228.528320312 66.0185546875 236.44140625 c 0
 8.5634765625 245.778320312 12.6005859375 304.2109375 42.6318359375 320.084960938 c 0
 87.232421875 343.66015625 137.961914062 354.045898438 208.118164062 364 c 0
46 27 m 0
 47 83 150.995117188 132.071289062 290 142 c 0
 444 153 506 141 503 84 c 0
 499.583984375 19.08984375 406 41 282 30 c 0
 198.115234375 22.55859375 144.286132812 -4.541015625 112 -12 c 0
 75.3056640625 -20.4775390625 45.4287109375 -5.0107421875 46 27 c 0
EndSplineSet
Validated: 524325
EndChar

StartChar: yen
Encoding: 165 165 100
Width: 509
Flags: HMW
LayerCount: 2
Fore
SplineSet
224.140625 202.13671875 m 0
 269.684570312 208.598632812 338.140625 214.13671875 373.140625 201.13671875 c 0
 411.126953125 187.02734375 411.659179688 134.499023438 384.140625 118.13671875 c 0
 347.140625 96.13671875 283.15625 96.9541015625 213 87 c 0
 167.456054688 80.5380859375 90.73828125 66.6650390625 42.041015625 74.578125 c 0
 -15.4140625 83.9150390625 -11.376953125 142.34765625 18.654296875 158.221679688 c 0
 63.2548828125 181.796875 153.984375 192.182617188 224.140625 202.13671875 c 0
258.140625 358.13671875 m 0
 303.684570312 364.598632812 372.140625 370.13671875 407.140625 357.13671875 c 0
 445.126953125 343.02734375 445.659179688 290.499023438 418.140625 274.13671875 c 0
 381.140625 252.13671875 317.15625 252.954101562 247 243 c 0
 201.456054688 236.538085938 124.73828125 222.665039062 76.041015625 230.578125 c 0
 18.5859375 239.915039062 22.623046875 298.34765625 52.654296875 314.221679688 c 0
 97.2548828125 337.796875 187.984375 348.182617188 258.140625 358.13671875 c 0
266.765625 324.936523438 m 0
 281.819460921 298.722601274 276.928710938 261.677734375 257.408203125 247.396484375 c 0
 235.69140625 231.509765625 198.378118516 247.059817839 179.06640625 272.764648438 c 0
 100.01164893 377.990384867 50.3335478855 473.818206444 31 529 c 0
 12.138671875 582.833984375 21 618 53 631 c 0
 82.5440907993 643.002286887 117.285822936 636.40124834 137 585 c 0
 154.70703125 538.83203125 205.685543141 431.298019604 266.765625 324.936523438 c 0
468.318359375 540.595703125 m 0
 447.71875 492.965820312 392 380 324.784179688 270.971679688 c 0
 256.535468178 160.267944395 151.055664062 42.4931640625 113.115234375 14.4736328125 c 0
 75.17578125 -13.5458984375 46.75 -10.0498046875 30.4375 10.978515625 c 0
 15.7763671875 29.880859375 18.2568359375 48.369140625 43.787109375 87.8876953125 c 0
 69.3154296875 127.40625 187.260742188 274.15234375 255.026367188 379.5625 c 0
 322.3515625 484.288085938 379.080078125 661.40625 445.077148438 643.173828125 c 0
 474.189453125 635.130859375 493.401367188 598.595703125 468.318359375 540.595703125 c 0
EndSplineSet
EndChar

StartChar: cent
Encoding: 162 162 101
Width: 495
Flags: HMW
LayerCount: 2
Fore
SplineSet
316.272460938 601 m 4
 324.272460938 579 325.272460938 554 325.272460938 492 c 4
 325.272460938 430 324.272460938 430 324.272460938 322 c 4
 324.272460938 213.92578125 321.272460938 35 311.272460938 22 c 4
 301.272460938 9 291.272460938 0 266.272460938 0 c 4
 241.272460938 0 217.272460938 6 215.272460938 54 c 4
 213.272460938 102 210.272460938 593 216.272460938 611 c 4
 222.272460938 629 235.272460938 641 257.272460938 641 c 4
 279.272460938 641 306.180664062 628.751953125 316.272460938 601 c 4
294.303710938 571.791490309 m 0
 369.002141557 571.791490309 400.05129272 531.997828524 400.05129272 497.383759704 c 0
 400.05129272 468.743584416 379.002672601 447.197767503 347.50390625 447.197767503 c 0
 331.38630118 447.197767503 320.953930202 453.834049131 315.139428172 458.05050614 c 0
 309.386668104 462.222190212 308.553643829 463.444150167 298.575059831 463.444150167 c 0
 293.259727356 463.444150167 255.339879498 462.223328822 226.167417597 405.037954084 c 0
 208.521924909 369.889085213 196.840716218 344.253001431 192.994366309 276.791674538 c 0
 192.640482937 270.58363977 192.473321004 264.786163479 192.473321004 259.374179582 c 0
 192.473321004 195.113738796 213.67811141 178.121498336 261.744521837 178.121498336 c 0
 295.859677308 178.121498336 317.68105414 193.345544134 337.553613049 210.54002466 c 0
 350.213365383 221.492979903 364.921217011 229.107859314 379.174882283 229.107859314 c 0
 397.9676666 229.107859314 414.23657372 214.654886432 414.23657372 190.050188169 c 0
 414.23657372 161.480365093 392.854312045 132.721499774 377.252780216 117.119967944 c 0
 347.176581328 87.0437690559 305.452498234 71.5109209642 255.622642174 71.5109209642 c 0
 154.885683638 71.5109209642 83.059553624 137.698871546 83.059553624 259.353505027 c 0
 83.059553624 330.912051433 99.6725770213 405.738795563 146.455974625 473.985852122 c 0
 180.24600951 522.492730531 230.326882063 571.791490309 294.303710938 571.791490309 c 0
EndSplineSet
Validated: 524325
EndChar

StartChar: brokenbar
Encoding: 166 166 102
Width: 218
Flags: MW
LayerCount: 2
Fore
SplineSet
164.078125 240 m 4
 163.276367188 125.75 159.848412372 -6.85126313501 151.272460938 -18 c 0
 141.272460938 -31 131.272460938 -40 106.272460938 -40 c 0
 81.2724609375 -40 57.2724609375 -34 55.2724609375 14 c 0
 54.4358973002 34.0775272943 53.4248046875 115.659179688 52.9697265625 240 c 4
 52.9697265625 274 77.7197265625 293.16796875 106 294 c 4
 140 295 164.078125 274.379882812 164.078125 240 c 4
156.272460938 641 m 0
 164.272460938 619 165.272460938 594 165.272460938 532 c 0
 165.272460938 493.978519014 164.896484375 434.23046875 164.60546875 392 c 4
 164.60546875 361.759765625 138 336 99 342 c 4
 71.5146484375 346.228515625 52.740234375 360 52.740234375 392 c 4
 52.8544921875 512.076171875 53.7977382496 643.575831936 56.2724609375 651 c 0
 62.2724609375 669 75.2724609375 681 97.2724609375 681 c 0
 119.272460938 681 146.180664062 668.751953125 156.272460938 641 c 0
EndSplineSet
Validated: 524321
EndChar

StartChar: paragraph
Encoding: 182 182 103
Width: 641
Flags: HMW
LayerCount: 2
Fore
SplineSet
536.272460938 601 m 0
 544.272460938 579 545.272460938 554 545.272460938 492 c 0
 545.272460938 430 544.272460938 430 544.272460938 322 c 0
 544.272460938 213.92578125 541.272460938 25 531.272460938 12 c 0
 521.272460938 -1 511.272460938 -10 486.272460938 -10 c 0
 461.272460938 -10 437.272460938 -4 435.272460938 44 c 0
 433.272460938 92 430.272460938 593 436.272460938 611 c 0
 442.272460938 629 455.272460938 641 477.272460938 641 c 0
 499.272460938 641 526.180664062 628.751953125 536.272460938 601 c 0
376.272460938 601 m 0
 384.272460938 579 385.272460938 554 385.272460938 492 c 0
 385.272460938 430 384.272460938 430 384.272460938 322 c 0
 384.272460938 213.92578125 381.272460938 5 371.272460938 -8 c 0
 361.272460938 -21 351.272460938 -30 326.272460938 -30 c 0
 301.272460938 -30 277.272460938 -24 275.272460938 24 c 0
 273.272460938 72 270.272460938 593 276.272460938 611 c 0
 282.272460938 629 295.272460938 641 317.272460938 641 c 0
 339.272460938 641 366.180664062 628.751953125 376.272460938 601 c 0
528.859375 548.748046875 m 0
 271 552 144.185159409 536.477248551 145.43359375 418.748046875 c 0
 145.965687599 368.57081131 174.545898438 346.748046875 230.046875 346.748046875 c 0
 271.046875 346.748046875 276 350 298 359 c 0
 327.108398438 370.908203125 352.188412709 354.413077935 356 324 c 0
 361.84375 277.372070312 319.239257812 239.748046875 247.046875 239.748046875 c 0
 122.708984375 239.748046875 49.7887355897 301.502284418 49.048828125 414.748046875 c 0
 47.8090341682 604.5034131 198.240234375 670.748046875 546.859375 650.748046875 c 0
 573.00390625 649.248046875 612.052734375 632.994140625 607 591 c 0
 601.944335938 548.977539062 556.026367188 548.405273438 528.859375 548.748046875 c 0
EndSplineSet
EndChar

StartChar: mu
Encoding: 181 181 104
Width: 525
Flags: HMW
LayerCount: 2
Fore
SplineSet
54.509765625 591 m 0
 57.6064453125 624.591796875 87.509765625 636 104.509765625 636 c 0
 115.911132812 636 152.978515625 631.911132812 156.509765625 562 c 0
 166.509765625 364 122.509765625 347 142.509765625 252 c 0
 150.533203125 213.88671875 186.676757812 198.208984375 223.509765625 198 c 0
 336.4375 197.360351562 363.509765625 330 363.509765625 426 c 0
 363.509765625 542 361.509765625 494 359.509765625 566 c 0
 357.509765625 638 384.509765625 644 408.509765625 644 c 0
 432.509765625 644 444 639 450 505 c 0
 456 371 455 336 408 229 c 0
 373.104492188 149.556640625 320.509765625 90 214.509765625 90 c 0
 68.509765625 90 18.626953125 209.791015625 25.509765625 336 c 0
 29 400 41.509765625 450 54.509765625 591 c 0
469 602 m 0
 477 580 485.272460938 554 485.272460938 492 c 0
 485.272460938 430 484.272460938 530 484.272460938 422 c 0
 484.272460938 313.92578125 481.272460938 135 471.272460938 122 c 0
 461.272460938 109 451.272460938 100 426.272460938 100 c 0
 401.272460938 100 377.272460938 106 375.272460938 154 c 0
 373.272460938 202 370.272460938 593 376.272460938 611 c 0
 382.272460938 629 386.509765625 644 408.509765625 644 c 0
 440 644 458.908203125 629.751953125 469 602 c 0
25.509765625 336 m 0
 30.275390625 380.657226562 50 387 82 384 c 0
 131.87109375 379.32421875 132 172 131 107 c 0
 130 42 117.151367188 -5.1044921875 67 -6 c 0
 11 -7 11.9150390625 60.0029296875 14 111 c 0
 16.1640625 163.923828125 19 275 25.509765625 336 c 0
EndSplineSet
EndChar

StartChar: U.ss05
Encoding: 65540 -1 105
Width: 525
Flags: HW
LayerCount: 2
Fore
SplineSet
54.509765625 591 m 0
 56.514881403 624.674586161 87.509765625 636 104.509765625 636 c 0
 115.911132812 636 161.647492709 631.81146022 156.509765625 562 c 0
 145.038012398 406.121762209 135.325006944 315.229149005 126 230 c 0
 115.008750911 129.541650532 161.636915037 90.4467528655 223.509765625 98 c 0
 330 111 363.509765625 173 363.509765625 416 c 0
 363.509765625 512 361.509765625 544 359.509765625 566 c 0
 352.988677513 637.731969232 384.509765625 644 408.509765625 644 c 0
 432.509765625 644 464.509765625 628 470.509765625 514 c 0
 477.55970587 380.051135344 459 243 412 136 c 0
 377.104492188 56.556640625 317.999979927 0.00018766554099 224.509765625 -10 c 0
 79.337890625 -25.5283203125 8.66664172075 110.731052622 25.509765625 236 c 0
 41.2181704132 352.829594319 45.7121000974 443.2490576 54.509765625 591 c 0
469 602 m 0
 477 580 485.272460938 554 485.272460938 492 c 0
 485.272460938 430 484.272460938 430 484.272460938 322 c 0
 484.272460938 213.92578125 481.272460938 35 471.272460938 22 c 0
 461.272460938 9 451.272460938 0 426.272460938 0 c 0
 401.272460938 0 377.272460938 6 375.272460938 54 c 0
 373.272460938 102 370.272460938 593 376.272460938 611 c 0
 382.272460938 629 386.509765625 644 408.509765625 644 c 0
 440 644 458.908203125 629.751953125 469 602 c 0
EndSplineSet
EndChar

StartChar: acute
Encoding: 180 180 106
Width: 208
Flags: HW
LayerCount: 2
Fore
SplineSet
30.025390625 499.186523438 m 0
 5.39453125 523.818359375 38.2880859375 581.350585938 76.6201171875 619.682617188 c 0
 104.08984375 647.15234375 137.610351562 660.91015625 165.416992188 633.103515625 c 0
 193.454101562 605.06640625 181.629882812 571.853515625 155.004882812 545.228515625 c 0
 115.689453125 505.913085938 56.2666015625 472.946289062 30.025390625 499.186523438 c 0
EndSplineSet
EndChar

StartChar: uni00AD
Encoding: 173 173 107
Width: 427
Flags: HW
LayerCount: 2
Fore
SplineSet
218.118164062 364 m 4
 263.662109375 370.461914062 292.118164062 376 327.118164062 363 c 4
 365.104492188 348.890625 365.63671875 296.362304688 338.118164062 280 c 4
 301.118164062 258 277.133789062 258.817382812 206.977539062 248.86328125 c 4
 161.43359375 242.401367188 124.715820312 228.528320312 76.0185546875 236.44140625 c 4
 18.5634765625 245.778320312 22.6005859375 304.2109375 52.6318359375 320.084960938 c 4
 97.232421875 343.66015625 147.961914062 354.045898438 218.118164062 364 c 4
EndSplineSet
EndChar

StartChar: guillemotleft
Encoding: 171 171 108
Width: 720
Flags: HW
LayerCount: 2
Fore
SplineSet
668.446289062 516.51953125 m 4
 676.494140625 487.431640625 656.51171875 467.254882812 644.58203125 458.178710938 c 4
 605.63671875 428.547851562 429.8046875 322.537109375 428.56640625 321.749023438 c 5
 520.427734375 265.116210938 621.004882812 214.712890625 634.044921875 201.272460938 c 4
 654.59375 180.092773438 656.05859375 160.581054688 652.556640625 147.424804688 c 4
 648.338867188 131.578125 629.952148438 105.260742188 593.90234375 114.856445312 c 4
 540.466796875 129.078125 384.588867188 237.581054688 382.579101562 238.984375 c 4
 337.975585938 270.127929688 321 290.983398438 321 322 c 4
 321 352.770507812 351.138671875 372.95703125 359.61328125 381.494140625 c 4
 375.16015625 397.154296875 553.434570312 531.317382812 606.041992188 545.872070312 c 4
 641.684570312 555.733398438 662.756835938 537.084960938 668.446289062 516.51953125 c 4
368.446289062 516.51953125 m 0
 376.494140625 487.431640625 356.51171875 467.254882812 344.58203125 458.178710938 c 0
 305.63671875 428.547851562 129.8046875 322.537109375 128.56640625 321.749023438 c 1
 220.427734375 265.116210938 321.004882812 214.712890625 334.044921875 201.272460938 c 0
 354.59375 180.092773438 356.05859375 160.581054688 352.556640625 147.424804688 c 0
 348.338867188 131.578125 329.952148438 105.260742188 293.90234375 114.856445312 c 0
 240.466796875 129.078125 84.5888671875 237.581054688 82.5791015625 238.984375 c 0
 37.9755859375 270.127929688 21 290.983398438 21 322 c 0
 21 352.770507812 51.138671875 372.95703125 59.61328125 381.494140625 c 0
 75.16015625 397.154296875 253.434570312 531.317382812 306.041992188 545.872070312 c 0
 341.684570312 555.733398438 362.756835938 537.084960938 368.446289062 516.51953125 c 0
EndSplineSet
EndChar

StartChar: guilsinglleft
Encoding: 8249 8249 109
Width: 420
Flags: HW
LayerCount: 2
Fore
SplineSet
368.446289062 516.51953125 m 0
 376.494140625 487.431640625 356.51171875 467.254882812 344.58203125 458.178710938 c 0
 305.63671875 428.547851562 129.8046875 322.537109375 128.56640625 321.749023438 c 1
 220.427734375 265.116210938 331.004882812 204.712890625 344.044921875 191.272460938 c 4
 364.59375 170.092773438 366.05859375 150.581054688 362.556640625 137.424804688 c 4
 358.338867188 121.578125 339.952148438 95.2607421875 303.90234375 104.856445312 c 4
 250.466796875 119.078125 84.5888671875 237.581054688 82.5791015625 238.984375 c 0
 37.9755859375 270.127929688 21 290.983398438 21 322 c 0
 21 352.770507812 51.138671875 372.95703125 59.61328125 381.494140625 c 0
 75.16015625 397.154296875 253.434570312 531.317382812 306.041992188 545.872070312 c 0
 341.684570312 555.733398438 362.756835938 537.084960938 368.446289062 516.51953125 c 0
EndSplineSet
EndChar

StartChar: guilsinglright
Encoding: 8250 8250 110
Width: 420
Flags: HW
LayerCount: 2
Fore
SplineSet
22.8583984375 516.51953125 m 0
 28.5478515625 537.084960938 49.6201171875 555.733398438 85.2626953125 545.872070312 c 0
 137.870117188 531.317382812 316.14453125 397.154296875 331.69140625 381.494140625 c 0
 340.166015625 372.95703125 370.3046875 352.770507812 370.3046875 322 c 0
 370.3046875 290.983398438 353.329101562 270.127929688 308.725585938 238.984375 c 0
 306.715820312 237.581054688 140.837890625 119.078125 87.40234375 104.856445312 c 4
 51.3525390625 95.2607421875 32.9658203125 121.578125 28.748046875 137.424804688 c 4
 25.24609375 150.581054688 26.7109375 170.092773438 47.259765625 191.272460938 c 4
 60.2998046875 204.712890625 170.876953125 265.116210938 262.73828125 321.749023438 c 1
 261.5 322.537109375 85.66796875 428.547851562 46.72265625 458.178710938 c 0
 34.79296875 467.254882812 14.810546875 487.431640625 22.8583984375 516.51953125 c 0
EndSplineSet
EndChar

StartChar: guillemotright
Encoding: 187 187 111
Width: 720
Flags: HW
LayerCount: 2
Fore
SplineSet
22.8583984375 144.874023438 m 4
 14.810546875 173.961914062 34.79296875 194.138671875 46.72265625 203.21484375 c 4
 85.66796875 232.845703125 261.5 338.856445312 262.73828125 339.64453125 c 5
 170.876953125 396.27734375 70.2998046875 446.680664062 57.259765625 460.12109375 c 4
 36.7109375 481.30078125 35.24609375 500.8125 38.748046875 513.96875 c 4
 42.9658203125 529.815429688 61.3525390625 556.1328125 97.40234375 546.537109375 c 4
 150.837890625 532.315429688 306.715820312 423.8125 308.725585938 422.409179688 c 4
 353.329101562 391.265625 370.3046875 370.41015625 370.3046875 339.393554688 c 4
 370.3046875 308.623046875 340.166015625 288.436523438 331.69140625 279.899414062 c 4
 316.14453125 264.239257812 137.870117188 130.076171875 85.2626953125 115.521484375 c 4
 49.6201171875 105.66015625 28.5478515625 124.30859375 22.8583984375 144.874023438 c 4
322.858398438 144.874023438 m 0
 314.810546875 173.961914062 334.79296875 194.138671875 346.72265625 203.21484375 c 0
 385.66796875 232.845703125 561.5 338.856445312 562.73828125 339.64453125 c 1
 470.876953125 396.27734375 370.299804688 446.680664062 357.259765625 460.12109375 c 0
 336.7109375 481.30078125 335.24609375 500.8125 338.748046875 513.96875 c 0
 342.965820312 529.815429688 361.352539062 556.1328125 397.40234375 546.537109375 c 0
 450.837890625 532.315429688 606.715820312 423.8125 608.725585938 422.409179688 c 0
 653.329101562 391.265625 670.3046875 370.41015625 670.3046875 339.393554688 c 0
 670.3046875 308.623046875 640.166015625 288.436523438 631.69140625 279.899414062 c 0
 616.14453125 264.239257812 437.870117188 130.076171875 385.262695312 115.521484375 c 0
 349.620117188 105.66015625 328.547851562 124.30859375 322.858398438 144.874023438 c 0
EndSplineSet
EndChar

StartChar: K.ss06
Encoding: 65541 -1 112
Width: 496
Flags: HW
LayerCount: 2
Fore
SplineSet
149.046875 597 m 0
 157.046875 575 158.046875 550 158.046875 488 c 0
 158.046875 426 157.046875 430 157.046875 322 c 0
 157.046875 213.92578125 154.046875 35 144.046875 22 c 0
 134.046875 9 124.046875 0 99.046875 0 c 0
 74.046875 0 50.046875 6 48.046875 54 c 0
 46.046875 102 43.046875 589 49.046875 607 c 0
 55.046875 625 68.046875 637 90.046875 637 c 0
 112.046875 637 138.955078125 624.751953125 149.046875 597 c 0
441.245117188 520.490234375 m 0
 435.412109375 447.23046875 395.541015625 373.959960938 323.719726562 316.240234375 c 0
 260.12109375 265.127929688 164.842773438 207.459960938 127.84375 235.209960938 c 0
 90.845703125 262.959960938 108.256835938 309.580078125 132.197265625 320.6796875 c 0
 156.137695312 331.780273438 164.842773438 327.33984375 221.428710938 363.969726562 c 0
 278.015625 400.599609375 300.26953125 431.690429688 319.856445312 513.830078125 c 0
 334.360351562 574.65234375 345.319335938 647.322265625 398.413085938 629.26953125 c 0
 418.000976562 622.610351562 447.272460938 596.19140625 441.245117188 520.490234375 c 0
230 358 m 0
 269 376 298.265649509 353.428949972 304 323 c 0
 309.390409152 294.3961519 408.960631172 129.427883788 437 92 c 0
 467.341943801 51.4985624161 452 15 424 0 c 0
 396 -15 365.008050873 5.00693426423 334 41 c 0
 308.937570302 70.0915957057 228.054278955 222.32836884 220 259 c 0
 213.03837548 290.696707812 191.725585938 340.334960938 230 358 c 0
EndSplineSet
EndChar

StartChar: K.ss07
Encoding: 65542 -1 113
Width: 496
Flags: HW
LayerCount: 2
Fore
SplineSet
67 196 m 4
 53 227 57.5877905282 238.712062389 84.6669921875 253.729492188 c 0
 224 331 333.885245345 545.224259883 354.801757812 588.921875 c 0
 376.65090776 634.567904495 421.741210938 629.827148438 445.561523438 608.813476562 c 0
 469.3828125 587.80078125 457.785431833 553.589121816 438.512695312 510.166015625 c 0
 422.26743351 473.564066151 278 246 175 201 c 0
 137.012203587 184.403389917 84.3505859375 157.58203125 67 196 c 4
149.046875 597 m 0
 157.046875 575 158.046875 550 158.046875 488 c 0
 158.046875 426 157.046875 430 157.046875 322 c 0
 157.046875 213.92578125 154.046875 35 144.046875 22 c 0
 134.046875 9 124.046875 0 99.046875 0 c 0
 74.046875 0 50.046875 6 48.046875 54 c 0
 46.046875 102 43.046875 589 49.046875 607 c 0
 55.046875 625 68.046875 637 90.046875 637 c 0
 112.046875 637 138.955078125 624.751953125 149.046875 597 c 0
230 358 m 0
 269 376 298.265649509 353.428949972 304 323 c 0
 309.390409152 294.3961519 408.960631172 129.427883788 437 92 c 0
 467.341943801 51.4985624161 452 15 424 0 c 0
 396 -15 365.008050873 5.00693426423 334 41 c 0
 308.937570302 70.0915957057 228.054278955 222.32836884 220 259 c 0
 213.03837548 290.696707812 191.725585938 340.334960938 230 358 c 0
EndSplineSet
EndChar

StartChar: quoteright
Encoding: 8217 8217 114
Width: 258
Flags: HW
LayerCount: 2
Fore
SplineSet
96.16015625 619.1796875 m 4
 116 656 148.904296875 680.126953125 183.916015625 662.8125 c 4
 226 642 213.796875 600.994140625 197.548828125 565.055664062 c 4
 160 482 79 420 40.296875 453.455078125 c 4
 4.51953125 484.380859375 65.685546875 562.622070312 96.16015625 619.1796875 c 4
EndSplineSet
EndChar

StartChar: quoteleft
Encoding: 8216 8216 115
Width: 258
Flags: HW
LayerCount: 2
Fore
SplineSet
161.685546875 497.087890625 m 0
 141.845703125 460.267578125 108.94140625 436.140625 73.9296875 453.455078125 c 0
 31.845703125 474.267578125 44.048828125 515.2734375 60.296875 551.211914062 c 0
 97.845703125 634.267578125 178.845703125 696.267578125 217.548828125 662.8125 c 0
 253.326171875 631.88671875 192.16015625 553.645507812 161.685546875 497.087890625 c 0
EndSplineSet
EndChar

StartChar: quotedblleft
Encoding: 8220 8220 116
Width: 438
Flags: HW
LayerCount: 2
Fore
SplineSet
331.685546875 467.087890625 m 0
 311.845703125 430.267578125 278.94140625 406.140625 243.9296875 423.455078125 c 0
 201.845703125 444.267578125 214.048828125 485.2734375 230.296875 521.211914062 c 0
 267.845703125 604.267578125 348.845703125 666.267578125 387.548828125 632.8125 c 0
 423.326171875 601.88671875 362.16015625 523.645507812 331.685546875 467.087890625 c 0
161.685546875 497.087890625 m 0
 141.845703125 460.267578125 108.94140625 436.140625 73.9296875 453.455078125 c 0
 31.845703125 474.267578125 44.048828125 515.2734375 60.296875 551.211914062 c 0
 97.845703125 634.267578125 178.845703125 696.267578125 217.548828125 662.8125 c 0
 253.326171875 631.88671875 192.16015625 553.645507812 161.685546875 497.087890625 c 0
EndSplineSet
EndChar

StartChar: quotedblright
Encoding: 8221 8221 117
Width: 428
Flags: HW
LayerCount: 2
Fore
SplineSet
266.16015625 589.1796875 m 4
 286 626 318.904296875 650.126953125 353.916015625 632.8125 c 4
 396 612 383.796875 570.994140625 367.548828125 535.055664062 c 4
 330 452 249 390 210.296875 423.455078125 c 4
 174.51953125 454.380859375 235.685546875 532.622070312 266.16015625 589.1796875 c 4
96.16015625 619.1796875 m 4
 116 656 148.904296875 680.126953125 183.916015625 662.8125 c 4
 226 642 213.796875 600.994140625 197.548828125 565.055664062 c 4
 160 482 79 420 40.296875 453.455078125 c 4
 4.51953125 484.380859375 65.685546875 562.622070312 96.16015625 619.1796875 c 4
EndSplineSet
EndChar

StartChar: three.ss08
Encoding: 65543 -1 118
Width: 528
Flags: HW
LayerCount: 2
Fore
SplineSet
35.4638671875 569 m 0
 36.4638671875 625 120.458984375 634.071289062 259.463867188 644 c 0
 413.463867188 655 465.463867188 643 462.463867188 586 c 0
 459.047851562 521.08984375 375.463867188 543 251.463867188 532 c 0
 167.579101562 524.55859375 133.463867188 520 101.463867188 520 c 0
 63.802734375 520 34.892578125 536.989257812 35.4638671875 569 c 0
454.017578125 538.05859375 m 0
 429.997070312 492.05859375 396.700195312 450.682617188 355 410 c 0
 314 370 283.9453125 351.3203125 247 322 c 0
 210.0546875 292.6796875 200.434570312 290.908203125 183.404296875 311.357421875 c 0
 168.094726562 329.740234375 162.123046875 354.150390625 194.07421875 388.684570312 c 0
 236 434 281 482 309 524 c 0
 378.060546875 627.58984375 369.973632812 657 434.463867188 634 c 0
 462.911132812 623.854492188 483.267578125 594.073242188 454.017578125 538.05859375 c 0
183.404296875 311.357421875 m 0
 175.650390625 325.07421875 220.7421875 353.283203125 233 360 c 0
 379 440 461.5 348.10546875 461.5 252 c 0
 461.5 137 413 0 195.5 -10 c 0
 50.529296875 -16.6650390625 33.5 89 33.5 126 c 0
 33.5 150.819335938 53.9921875 174 85 174 c 0
 112 174 126.5 162 128.5 132 c 0
 130.77734375 97.841796875 181.510742188 92.7294921875 199.5 94 c 0
 309.493164062 101.771484375 349.5 162 349.5 240 c 0
 349.5 282.42578125 323.31640625 303.047851562 282 302 c 0
 248.993164062 301.163085938 200 282 183.404296875 311.357421875 c 0
35.4638671875 569 m 1
 35.4638671875 569 99 592 129 596 c 0
 159 600 164.034179688 570.870117188 156 508 c 0
 148.700195312 450.874023438 134.0703125 409.614257812 99.01953125 406.767578125 c 0
 63.9697265625 403.920898438 45.5202877389 433.162240592 46.3115234375 473.1796875 c 0
 47 508 39.3564453125 525 35.4638671875 569 c 1
EndSplineSet
Substitution2: "'dnom' Denominators lookup 0 subtable" three.ss08.dnom
Substitution2: "'numr' Numerators lookup 0 subtable" three.ss08.numr
EndChar

StartChar: G.ss09
Encoding: 65544 -1 119
Width: 542
Flags: HW
LayerCount: 2
Fore
SplineSet
337.868164062 549 m 0
 295.868164062 552 241.513671875 523.209960938 206.1875 452 c 0
 180.793945312 400.8125 161.831054688 358 156.1875 259 c 0
 148.098632812 117.103515625 203.187512522 96.0002003537 267.1875 92 c 0
 306.029296875 89.572265625 348.131835938 104 389 148 c 1
 389 148 395 209 392.868164062 292 c 5
 392.868164062 292 369.930664062 286.298828125 341.868164062 287 c 4
 301.868164062 288 296.053710938 312.09375 298.868164062 333 c 4
 305.868164062 385 389.868164062 411 434.868164062 410 c 4
 479.868164062 409 488.868164062 391 491.868164062 300 c 4
 494.868164062 209 485.47265625 104.774414062 466 78 c 0
 418 12 343.1875 -16 249.1875 -10 c 0
 155.1875 -4 45.26171875 59.33984375 49.1875 242 c 0
 51.8310546875 365 85.8310546875 453 135.1875 525 c 0
 196.98046875 615.142578125 263.739257812 654 325.868164062 654 c 0
 409.868164062 654 444.868164062 616 450.868164062 584 c 0
 456.868164062 552 437.868164062 526 401.868164062 526 c 0
 368.807617188 526 372.793945312 546.504882812 337.868164062 549 c 0
EndSplineSet
EndChar

StartChar: onequarter
Encoding: 188 188 120
Width: 1018
Flags: HW
LayerCount: 2
Fore
SplineSet
582 144 m 0
 611.440429688 252.669921875 633.095703125 318.212890625 639.969726562 369.669921875 c 0
 646.146484375 415.905273438 678.356445312 428.279296875 704.286132812 421.094726562 c 0
 727.595703125 414.63671875 736.873046875 398.421875 740.44921875 351.869140625 c 0
 744.026367188 305.31640625 729.471679688 237.307617188 677.927734375 109.19921875 c 0
 665.926757812 79.3720703125 630.04296875 58.0576171875 605.732421875 69.58984375 c 0
 583.879882812 79.95703125 574.095703125 114.823242188 582 144 c 0
886.272460938 321 m 0
 894.272460938 299 895.272460938 274 895.272460938 212 c 0
 895.272460938 150 894.272460938 227 894.272460938 212 c 0
 894.272460938 103.92578125 891.272460938 35 881.272460938 22 c 0
 871.272460938 9 861.272460938 0 836.272460938 0 c 0
 811.272460938 0 787.272460938 6 785.272460938 54 c 0
 783.272460938 102 780.272460938 313 786.272460938 331 c 0
 792.272460938 349 805.272460938 361 827.272460938 361 c 0
 849.272460938 361 876.180664062 348.751953125 886.272460938 321 c 0
586.452148438 104 m 0
 587.452148438 160 691.447265625 209.071289062 770.452148438 219 c 0
 923.639648438 238.250976562 986.452148438 218 983.452148438 161 c 0
 980.036132812 96.08984375 881.3046875 144.029296875 762.452148438 107 c 0
 738.567382812 99.55859375 684.73828125 72.458984375 652.452148438 65 c 0
 615.7578125 56.5224609375 585.880859375 71.9892578125 586.452148438 104 c 0
118 513 m 0
 106.727539062 510 95.13671875 507.377929688 67 508 c 0
 26.9970703125 508.884765625 21.185546875 533.09375 24 554 c 0
 31 606 115 642 160 641 c 0
 205 640 224.739257812 622 227.739257812 531 c 0
 227.94140625 519.846679688 228 507.006835938 228 492 c 0
 228 430 227 400 227 382 c 0
 227 273.92578125 224 245 214 232 c 0
 204 219 194 210 169 210 c 0
 144 210 120 216 118 264 c 0
 116 312 113 593 119 611 c 1
 118.9921875 610.991210938 154.556640625 595.3125 155 586 c 0
 156 565 148.727539062 526 118 513 c 0
631.41796875 538.05859375 m 0
 608.41796875 492.05859375 517.646484375 343.19140625 476.998046875 270.971679688 c 0
 434.012695312 194.600585938 333.524414062 53.26171875 302.181640625 18.712890625 c 0
 270.838867188 -15.8349609375 242.297851562 -17.6513671875 221.989257812 0 c 0
 203.734375 15.8671875 202.342773438 34.49609375 219.1640625 78.0517578125 c 0
 235.985351562 121.606445312 339.40234375 274.15234375 404.831054688 379.5625 c 0
 469.834960938 484.288085938 548.41796875 665.05859375 613.41796875 642.05859375 c 0
 642.08984375 631.913085938 659.424804688 594.073242188 631.41796875 538.05859375 c 0
EndSplineSet
EndChar

StartChar: onehalf
Encoding: 189 189 121
Width: 958
Flags: HW
LayerCount: 2
Fore
SplineSet
576.46875 27 m 4
 577.46875 83 641.524414062 111.256835938 780.46875 122 c 4
 871 129 926.46875 121 923.46875 64 c 4
 920.052734375 -0.91015625 863 11 772.46875 0 c 4
 688.869140625 -10.158203125 674.46875 -12 642.46875 -12 c 4
 604.807617188 -12 575.897460938 -5.0107421875 576.46875 27 c 4
655 28 m 4
 601.345818034 9.93819616997 550.927762101 36.3763698203 609.004882812 78 c 4
 729 164 782.004882812 198.490234375 782.004882812 243 c 4
 782.004882812 265.305664062 764.657226562 281.495117188 730.8125 275.509765625 c 4
 667.514549411 264.315688262 669.719726562 244.047851562 634.327148438 240.125 c 4
 598.935546875 236.203125 552.788085938 278.564453125 609.991210938 331.7421875 c 4
 651.744140625 370.557617188 684.910230694 381.643466494 748.8125 387.509765625 c 4
 812.77496622 393.381590899 894 368.706054688 894 266 c 4
 894 145.490234375 756 62 655 28 c 4
118 513 m 0
 106.727539062 510 95.13671875 507.377929688 67 508 c 0
 26.9970703125 508.884765625 21.185546875 533.09375 24 554 c 0
 31 606 115 642 160 641 c 0
 205 640 224.739257812 622 227.739257812 531 c 0
 227.94140625 519.846679688 228 507.006835938 228 492 c 0
 228 430 227 400 227 382 c 0
 227 273.92578125 224 245 214 232 c 0
 204 219 194 210 169 210 c 0
 144 210 120 216 118 264 c 0
 116 312 113 593 119 611 c 1
 118.9921875 610.991210938 154.556640625 595.3125 155 586 c 0
 156 565 148.727539062 526 118 513 c 0
631.41796875 538.05859375 m 0
 608.41796875 492.05859375 517.646484375 343.19140625 476.998046875 270.971679688 c 0
 434.012695312 194.600585938 333.524414062 53.26171875 302.181640625 18.712890625 c 0
 270.838867188 -15.8349609375 242.297851562 -17.6513671875 221.989257812 0 c 0
 203.734375 15.8671875 202.342773438 34.49609375 219.1640625 78.0517578125 c 0
 235.985351562 121.606445312 339.40234375 274.15234375 404.831054688 379.5625 c 0
 469.834960938 484.288085938 548.41796875 665.05859375 613.41796875 642.05859375 c 0
 642.08984375 631.913085938 659.424804688 594.073242188 631.41796875 538.05859375 c 0
EndSplineSet
EndChar

StartChar: threequarters
Encoding: 190 190 122
Width: 1153
Flags: HW
LayerCount: 2
Fore
SplineSet
31.4462890625 548.94140625 m 0
 32.4462890625 604.94140625 96.44140625 619.012695312 175.446289062 623.94140625 c 0
 329.5390625 633.5546875 381.446289062 622.94140625 378.446289062 565.94140625 c 0
 375.030273438 501.03125 291.288085938 524.599609375 167.446289062 511.94140625 c 0
 143.561523438 509.5 119.446289062 506.94140625 87.4462890625 506.94140625 c 0
 49.78515625 506.94140625 30.875 516.930664062 31.4462890625 548.94140625 c 0
381 546 m 0
 371 517 342.604492188 492.803710938 315 470 c 0
 269 432 253 420 212 394 c 0
 172.16796875 368.740234375 155.434570312 360.908203125 138.404296875 381.357421875 c 0
 123.094726562 399.740234375 117.123046875 424.150390625 149.07421875 458.684570312 c 0
 191 504 213 522 232 546 c 0
 279.307617188 605.7578125 285.956054688 636.94140625 350.446289062 613.94140625 c 0
 378.893554688 603.795898438 389.96875 572.010742188 381 546 c 0
138.404296875 381.357421875 m 0
 125 400 180.41015625 409.877929688 191 419 c 0
 292 506 400 432.10546875 400 356 c 0
 400 291 368 210 200.5 200 c 0
 55.6337890625 191.3515625 38.5 299 38.5 336 c 0
 38.5 360.819335938 58.9921875 384 90 384 c 0
 117 384 131.5 372 133.5 342 c 0
 135.77734375 307.841796875 186.615234375 301.68359375 204.5 304 c 0
 264.493164062 311.771484375 289 324 289 352 c 0
 289 374.42578125 267.701171875 379.182617188 227 372 c 0
 193 366 158.091796875 353.9765625 138.404296875 381.357421875 c 0
717 144 m 4
 746.440429688 252.669921875 768.095703125 318.212890625 774.969726562 369.669921875 c 4
 781.146484375 415.905273438 813.356445312 428.279296875 839.286132812 421.094726562 c 4
 862.595703125 414.63671875 871.873046875 398.421875 875.44921875 351.869140625 c 4
 879.026367188 305.31640625 864.471679688 237.307617188 812.927734375 109.19921875 c 4
 800.926757812 79.3720703125 765.04296875 58.0576171875 740.732421875 69.58984375 c 4
 718.879882812 79.95703125 709.095703125 114.823242188 717 144 c 4
1021.27246094 321 m 4
 1029.27246094 299 1030.27246094 274 1030.27246094 212 c 4
 1030.27246094 150 1029.27246094 227 1029.27246094 212 c 4
 1029.27246094 103.92578125 1026.27246094 35 1016.27246094 22 c 4
 1006.27246094 9 996.272460938 0 971.272460938 0 c 4
 946.272460938 0 922.272460938 6 920.272460938 54 c 4
 918.272460938 102 915.272460938 313 921.272460938 331 c 4
 927.272460938 349 940.272460938 361 962.272460938 361 c 4
 984.272460938 361 1011.18066406 348.751953125 1021.27246094 321 c 4
721.452148438 104 m 4
 722.452148438 160 826.447265625 209.071289062 905.452148438 219 c 4
 1058.63964844 238.250976562 1121.45214844 218 1118.45214844 161 c 4
 1115.03613281 96.08984375 1016.3046875 144.029296875 897.452148438 107 c 4
 873.567382812 99.55859375 819.73828125 72.458984375 787.452148438 65 c 4
 750.7578125 56.5224609375 720.880859375 71.9892578125 721.452148438 104 c 4
766.41796875 538.05859375 m 0
 743.41796875 492.05859375 652.646484375 343.19140625 611.998046875 270.971679688 c 0
 569.012695312 194.600585938 468.524414062 53.26171875 437.181640625 18.712890625 c 0
 405.838867188 -15.8349609375 377.297851562 -17.6513671875 356.989257812 0 c 0
 338.734375 15.8671875 337.342773438 34.49609375 354.1640625 78.0517578125 c 0
 370.985351562 121.606445312 474.40234375 274.15234375 539.831054688 379.5625 c 0
 604.834960938 484.288085938 683.41796875 665.05859375 748.41796875 642.05859375 c 0
 777.08984375 631.913085938 794.424804688 594.073242188 766.41796875 538.05859375 c 0
EndSplineSet
EndChar

StartChar: uni00B9
Encoding: 185 185 123
Width: 270
Flags: HW
LayerCount: 2
Fore
SplineSet
118 513 m 0
 106.727539062 510 95.13671875 507.377929688 67 508 c 0
 26.9970703125 508.884765625 21.185546875 533.09375 24 554 c 0
 31 606 115 642 160 641 c 0
 205 640 224.739257812 622 227.739257812 531 c 0
 227.94140625 519.846679688 228 507.006835938 228 492 c 0
 228 430 227 400 227 382 c 0
 227 273.92578125 224 245 214 232 c 0
 204 219 194 210 169 210 c 0
 144 210 120 216 118 264 c 0
 116 312 113 593 119 611 c 1
 118.9921875 610.991210938 154.556640625 595.3125 155 586 c 0
 156 565 148.727539062 526 118 513 c 0
EndSplineSet
EndChar

StartChar: uni00B2
Encoding: 178 178 124
Width: 449
Flags: HW
LayerCount: 2
Fore
SplineSet
47 234 m 4
 48 290 112.055664062 318.256835938 251 329 c 4
 341.53125 336 397 328 394 271 c 4
 390.583984375 206.08984375 333.53125 218 243 207 c 4
 159.400390625 196.841796875 145 195 113 195 c 4
 75.3388671875 195 46.4287109375 201.989257812 47 234 c 4
125.53125 235 m 4
 71.876953125 216.938476562 21.458984375 243.375976562 79.5361328125 285 c 4
 199.53125 371 255.536132812 425.490234375 255.536132812 470 c 4
 255.536132812 502.305664062 235.188476562 518.495117188 201.34375 512.509765625 c 4
 138.045898438 501.315429688 140.250976562 481.047851562 104.858398438 477.125 c 4
 69.466796875 473.203125 23.3193359375 515.564453125 80.5224609375 568.7421875 c 4
 122.275390625 607.557617188 155.44140625 618.643554688 219.34375 624.509765625 c 4
 283.306640625 630.381835938 367.53125 605.706054688 367.53125 493 c 4
 367.53125 372.490234375 226.53125 269 125.53125 235 c 4
EndSplineSet
EndChar

StartChar: uni00B3
Encoding: 179 179 125
Width: 463
Flags: HW
LayerCount: 2
Fore
SplineSet
41.4462890625 548.94140625 m 0
 42.4462890625 604.94140625 106.44140625 619.012695312 185.446289062 623.94140625 c 0
 339.5390625 633.5546875 391.446289062 622.94140625 388.446289062 565.94140625 c 0
 385.030273438 501.03125 301.288085938 524.599609375 177.446289062 511.94140625 c 0
 153.561523438 509.5 129.446289062 506.94140625 97.4462890625 506.94140625 c 0
 59.78515625 506.94140625 40.875 516.930664062 41.4462890625 548.94140625 c 0
391 546 m 0
 381 517 352.604492188 492.803710938 325 470 c 0
 279 432 263 420 222 394 c 0
 182.16796875 368.740234375 165.434570312 360.908203125 148.404296875 381.357421875 c 0
 133.094726562 399.740234375 127.123046875 424.150390625 159.07421875 458.684570312 c 0
 201 504 223 522 242 546 c 0
 289.307617188 605.7578125 295.956054688 636.94140625 360.446289062 613.94140625 c 0
 388.893554688 603.795898438 399.96875 572.010742188 391 546 c 0
148.404296875 381.357421875 m 0
 135 400 190.41015625 409.877929688 201 419 c 0
 302 506 410 432.10546875 410 356 c 0
 410 291 378 210 210.5 200 c 0
 65.6337890625 191.3515625 48.5 299 48.5 336 c 0
 48.5 360.819335938 68.9921875 384 100 384 c 0
 127 384 141.5 372 143.5 342 c 0
 145.77734375 307.841796875 196.615234375 301.68359375 214.5 304 c 0
 274.493164062 311.771484375 299 324 299 352 c 0
 299 374.42578125 277.701171875 379.182617188 237 372 c 0
 203 366 168.091796875 353.9765625 148.404296875 381.357421875 c 0
EndSplineSet
EndChar

StartChar: uni2074
Encoding: 8308 8308 126
Width: 478
Flags: HW
LayerCount: 2
Fore
SplineSet
42 355 m 0
 71.4404296875 463.669921875 93.095703125 529.212890625 99.9697265625 580.669921875 c 0
 106.146484375 626.905273438 138.356445312 639.279296875 164.286132812 632.094726562 c 0
 187.595703125 625.63671875 196.873046875 609.421875 200.44921875 562.869140625 c 0
 204.026367188 516.31640625 189.471679688 448.307617188 137.927734375 320.19921875 c 0
 125.926757812 290.372070312 90.04296875 269.057617188 65.732421875 280.58984375 c 0
 43.8798828125 290.95703125 34.095703125 325.823242188 42 355 c 0
346.272460938 532 m 0
 354.272460938 510 355.272460938 485 355.272460938 423 c 0
 355.272460938 361 354.272460938 438 354.272460938 423 c 0
 354.272460938 314.92578125 351.272460938 246 341.272460938 233 c 0
 331.272460938 220 321.272460938 211 296.272460938 211 c 0
 271.272460938 211 247.272460938 217 245.272460938 265 c 0
 243.272460938 313 240.272460938 524 246.272460938 542 c 0
 252.272460938 560 265.272460938 572 287.272460938 572 c 0
 309.272460938 572 336.180664062 559.751953125 346.272460938 532 c 0
46.4521484375 315 m 0
 47.4521484375 371 151.447265625 420.071289062 230.452148438 430 c 0
 383.639648438 449.250976562 446.452148438 429 443.452148438 372 c 0
 440.036132812 307.08984375 341.3046875 355.029296875 222.452148438 318 c 0
 198.567382812 310.55859375 144.73828125 283.458984375 112.452148438 276 c 0
 75.7578125 267.522460938 45.880859375 282.989257812 46.4521484375 315 c 0
EndSplineSet
EndChar

StartChar: uni2075
Encoding: 8309 8309 127
Width: 463
Flags: HW
LayerCount: 2
Fore
SplineSet
58.25 456.41796875 m 0
 62 484 68.572265625 497.484375 75.4462890625 548.94140625 c 0
 81.623046875 595.176757812 113.833007812 607.549804688 139.762695312 600.366210938 c 0
 163.072265625 593.908203125 185.21875 585.880859375 182.4765625 539.271484375 c 0
 179.4765625 488.271484375 168 474 160.046875 449.309570312 c 0
 150.189453125 418.708007812 122.543945312 387.590820312 96 392 c 0
 72.140625 395.96484375 54.177734375 426.465820312 58.25 456.41796875 c 0
75.4462890625 548.94140625 m 0
 76.4462890625 604.94140625 106.44140625 619.012695312 185.446289062 623.94140625 c 0
 339.5390625 633.5546875 391.446289062 622.94140625 388.446289062 565.94140625 c 0
 385.030273438 501.03125 301.288085938 524.599609375 177.446289062 511.94140625 c 0
 153.561523438 509.5 163.446289062 506.94140625 131.446289062 506.94140625 c 0
 93.78515625 506.94140625 74.875 516.930664062 75.4462890625 548.94140625 c 0
78 405 m 0
 64.595703125 423.642578125 82.3369140625 461.055664062 96 464 c 0
 277 503 410 482.10546875 410 366 c 0
 410 301 378 210 210.5 200 c 0
 65.6337890625 191.3515625 48.5 289 48.5 326 c 0
 48.5 350.819335938 68.9921875 374 100 374 c 0
 127 374 141.5 362 143.5 332 c 0
 145.77734375 297.841796875 196.615234375 301.68359375 214.5 304 c 0
 274.493164062 311.771484375 299 334 299 362 c 0
 299 384.42578125 277 409 166.595703125 395.642578125 c 0
 132.3203125 391.49609375 97.6875 377.619140625 78 405 c 0
EndSplineSet
EndChar

StartChar: uni2076
Encoding: 8310 8310 128
Width: 428
Flags: HW
LayerCount: 2
Fore
SplineSet
180 574 m 0
 101 522 38.2119140625 435.017578125 36.1806640625 352 c 0
 33 222 109.07421875 181.060546875 216.180664062 190 c 0
 336 200 400 251 398 351 c 0
 395.935546875 454.229492188 342 497 218 482 c 0
 47.0537109375 461.321289062 22 342 68 320 c 0
 95.65234375 306.775390625 109.129882812 318.83984375 128 344 c 0
 137 356 158 374 217.993164062 384 c 0
 273.620117188 393.272460938 302.1171875 392.17578125 301.606445312 352 c 0
 301.26171875 324.921875 280 302 224.180664062 292 c 0
 163.446289062 281.119140625 140.46875 290.018554688 142 326 c 0
 144 373 174.653320312 437.701171875 222 474 c 0
 342 566 360.228515625 599.627929688 337 630 c 0
 308.526367188 667.23046875 231.646484375 607.995117188 180 574 c 0
EndSplineSet
EndChar

StartChar: uni2077
Encoding: 8311 8311 129
Width: 448
Flags: HW
LayerCount: 2
Fore
SplineSet
46 535 m 1
 46 535 109.536132812 558 139.536132812 562 c 0
 169.536132812 566 174.5703125 556.870117188 166.536132812 494 c 0
 159.236328125 436.874023438 144.606445312 395.614257812 109.555664062 392.767578125 c 0
 74.505859375 389.920898438 58.2138671875 419.177734375 56.84765625 459.1796875 c 0
 56 484 49.892578125 491 46 535 c 1
46 535 m 0
 47 591 100.995117188 610.071289062 240 620 c 0
 394 631 426 619 423 562 c 0
 419.583984375 497.08984375 356.10546875 517.732421875 232 508 c 0
 188.115234375 504.55859375 144 496 112 496 c 0
 74.3388671875 496 45.4287109375 502.989257812 46 535 c 0
410 521 m 0
 348.115234375 413.515625 290.559570312 318.986328125 265 276 c 0
 243 239 207.560546875 225.3359375 185 240 c 0
 165 253 166.286132812 290.375976562 181.420898438 334.544921875 c 0
 197.149414062 380.446289062 232.30078125 475.506835938 328.30078125 577.143554688 c 0
 350.377929688 600.516601562 385.126953125 618.124023438 406.765625 602.131835938 c 0
 426.216796875 587.755859375 429 554 410 521 c 0
EndSplineSet
EndChar

StartChar: uni2079
Encoding: 8313 8313 130
Width: 428
Flags: HW
LayerCount: 2
Fore
SplineSet
254.129882812 256.69140625 m 0
 333.129882812 308.69140625 395.91796875 395.673828125 397.94921875 478.69140625 c 0
 401.129882812 608.69140625 325.055664062 649.630859375 217.94921875 640.69140625 c 0
 98.1298828125 630.69140625 34.1298828125 579.69140625 36.1298828125 479.69140625 c 0
 38.1943359375 376.461914062 92.1298828125 333.69140625 216.129882812 348.69140625 c 0
 387.076171875 369.370117188 412.129882812 488.69140625 366.129882812 510.69140625 c 0
 338.478515625 523.916015625 325 511.8515625 306.129882812 486.69140625 c 0
 297.129882812 474.69140625 276.129882812 456.69140625 216.13671875 446.69140625 c 0
 160.509765625 437.418945312 132.012695312 438.515625 132.5234375 478.69140625 c 0
 132.868164062 505.76953125 154.129882812 528.69140625 209.94921875 538.69140625 c 0
 270.68359375 549.572265625 293.661132812 540.672851562 292.129882812 504.69140625 c 0
 290.129882812 457.69140625 259.4765625 392.990234375 212.129882812 356.69140625 c 0
 92.1298828125 264.69140625 73.9013671875 231.063476562 97.1298828125 200.69140625 c 0
 125.603515625 163.4609375 202.483398438 222.696289062 254.129882812 256.69140625 c 0
EndSplineSet
EndChar

StartChar: uni2070
Encoding: 8304 8304 131
Width: 448
Flags: HW
LayerCount: 2
Fore
SplineSet
233.508789062 521.23828125 m 4
 192 518 172.537109375 480.6171875 171.479492188 419.93359375 c 4
 170.555664062 366.970703125 187.743164062 343.313476562 224.50390625 349.22265625 c 4
 256.666992188 354.392578125 277.469726562 389.499023438 276.529296875 458.36328125 c 4
 275.90625 503.95703125 267.087890625 523.858398438 233.508789062 521.23828125 c 4
232.184570312 648.000976562 m 4
 304.497070312 653.560546875 393.245117188 619.131835938 393.245117188 468.844726562 c 4
 393.245117188 315.580078125 337.840820312 228.954101562 222.140625 223.39453125 c 4
 97.4951171875 217.404296875 46.59765625 319.821289062 49.7578125 424.741210938 c 4
 54.408203125 579.1328125 155.08984375 642.073242188 232.184570312 648.000976562 c 4
EndSplineSet
EndChar

StartChar: uni2078
Encoding: 8312 8312 132
Width: 508
Flags: HW
LayerCount: 2
Fore
SplineSet
289.59765625 553.103515625 m 0
 255.87109375 552.471679688 240.694335938 536.208007812 240.279296875 513.424804688 c 0
 239.850585938 489.905273438 253.306640625 481.5703125 284.235351562 482.709960938 c 0
 313.40625 483.784179688 328.004882812 504.505859375 327.596679688 524.68359375 c 0
 327.225585938 543.041015625 319.596679688 553.666015625 289.59765625 553.103515625 c 0
290.674804688 640.036132812 m 0
 353.224609375 642.741210938 439.9921875 620.995117188 439.9921875 542.901367188 c 0
 439.9921875 460.359375 382.067382812 416.228515625 281.986328125 413.524414062 c 0
 174.16796875 410.611328125 120.3125 462.4140625 122.875976562 521.452148438 c 0
 126.354492188 601.567382812 223.987304688 637.153320312 290.674804688 640.036132812 c 0
283.508789062 399.578125 m 0
 232.979492188 398.012695312 208.771484375 374.104492188 207.479492188 346.065429688 c 0
 206.2265625 318.873046875 228.666015625 308.899414062 274.50390625 311.732421875 c 0
 316.7109375 314.340820312 341.975585938 333.000976562 340.529296875 370.159179688 c 0
 339.806640625 388.7421875 327.09765625 400.928710938 283.508789062 399.578125 c 0
282.184570312 457.630859375 m 0
 354.497070312 461.614257812 454 461.682617188 454 364 c 0
 454 260.18359375 387.840820312 217.37890625 272.140625 213.39453125 c 0
 147.495117188 209.102539062 85.5263671875 261.837890625 89 331 c 0
 94.052734375 431.606445312 205.08984375 453.383789062 282.184570312 457.630859375 c 0
EndSplineSet
EndChar

StartChar: uni2080
Encoding: 8320 8320 133
Width: 448
Flags: HW
LayerCount: 2
Fore
SplineSet
233.508789062 311.23828125 m 4
 192 308 172.537109375 270.6171875 171.479492188 209.93359375 c 4
 170.555664062 156.970703125 187.743164062 133.313476562 224.50390625 139.22265625 c 4
 256.666992188 144.392578125 277.469726562 179.499023438 276.529296875 248.36328125 c 4
 275.90625 293.95703125 267.087890625 313.858398438 233.508789062 311.23828125 c 4
232.184570312 438.000976562 m 4
 304.497070312 443.560546875 393.245117188 409.131835938 393.245117188 258.844726562 c 4
 393.245117188 105.580078125 337.840820312 18.9541015625 222.140625 13.39453125 c 4
 97.4951171875 7.404296875 46.59765625 109.821289062 49.7578125 214.741210938 c 4
 54.408203125 369.1328125 155.08984375 432.073242188 232.184570312 438.000976562 c 4
EndSplineSet
EndChar

StartChar: uni2084
Encoding: 8324 8324 134
Width: 478
Flags: HW
LayerCount: 2
Fore
SplineSet
42 145 m 0
 71.4404296875 253.669921875 93.095703125 319.212890625 99.9697265625 370.669921875 c 0
 106.146484375 416.905273438 138.356445312 429.279296875 164.286132812 422.094726562 c 0
 187.595703125 415.63671875 196.873046875 399.421875 200.44921875 352.869140625 c 0
 204.026367188 306.31640625 189.471679688 238.307617188 137.927734375 110.19921875 c 0
 125.926757812 80.3720703125 90.04296875 59.0576171875 65.732421875 70.58984375 c 0
 43.8798828125 80.95703125 34.095703125 115.823242188 42 145 c 0
346.272460938 322 m 0
 354.272460938 300 355.272460938 275 355.272460938 213 c 0
 355.272460938 151 354.272460938 228 354.272460938 213 c 0
 354.272460938 104.92578125 351.272460938 36 341.272460938 23 c 0
 331.272460938 10 321.272460938 1 296.272460938 1 c 0
 271.272460938 1 247.272460938 7 245.272460938 55 c 0
 243.272460938 103 240.272460938 314 246.272460938 332 c 0
 252.272460938 350 265.272460938 362 287.272460938 362 c 0
 309.272460938 362 336.180664062 349.751953125 346.272460938 322 c 0
46.4521484375 105 m 0
 47.4521484375 161 151.447265625 210.071289062 230.452148438 220 c 0
 383.639648438 239.250976562 446.452148438 219 443.452148438 162 c 0
 440.036132812 97.08984375 341.3046875 145.029296875 222.452148438 108 c 0
 198.567382812 100.55859375 144.73828125 73.458984375 112.452148438 66 c 0
 75.7578125 57.5224609375 45.880859375 72.9892578125 46.4521484375 105 c 0
EndSplineSet
EndChar

StartChar: uni2085
Encoding: 8325 8325 135
Width: 463
Flags: HW
LayerCount: 2
Fore
SplineSet
58.25 246.41796875 m 0
 62 274 68.572265625 287.484375 75.4462890625 338.94140625 c 0
 81.623046875 385.176757812 113.833007812 397.549804688 139.762695312 390.366210938 c 0
 163.072265625 383.908203125 185.21875 375.880859375 182.4765625 329.271484375 c 0
 179.4765625 278.271484375 168 264 160.046875 239.309570312 c 0
 150.189453125 208.708007812 122.543945312 177.590820312 96 182 c 0
 72.140625 185.96484375 54.177734375 216.465820312 58.25 246.41796875 c 0
75.4462890625 338.94140625 m 0
 76.4462890625 394.94140625 106.44140625 409.012695312 185.446289062 413.94140625 c 0
 339.5390625 423.5546875 391.446289062 412.94140625 388.446289062 355.94140625 c 0
 385.030273438 291.03125 301.288085938 314.599609375 177.446289062 301.94140625 c 0
 153.561523438 299.5 163.446289062 296.94140625 131.446289062 296.94140625 c 0
 93.78515625 296.94140625 74.875 306.930664062 75.4462890625 338.94140625 c 0
78 195 m 0
 64.595703125 213.642578125 82.3369140625 251.055664062 96 254 c 0
 277 293 410 272.10546875 410 156 c 0
 410 91 378 0 210.5 -10 c 0
 65.6337890625 -18.6484375 48.5 79 48.5 116 c 0
 48.5 140.819335938 68.9921875 164 100 164 c 0
 127 164 141.5 152 143.5 122 c 0
 145.77734375 87.841796875 196.615234375 91.68359375 214.5 94 c 0
 274.493164062 101.771484375 299 124 299 152 c 0
 299 174.42578125 277 199 166.595703125 185.642578125 c 0
 132.3203125 181.49609375 97.6875 167.619140625 78 195 c 0
EndSplineSet
EndChar

StartChar: uni2086
Encoding: 8326 8326 136
Width: 428
Flags: HW
LayerCount: 2
Fore
SplineSet
180 364 m 0
 101 312 38.2119140625 225.017578125 36.1806640625 142 c 0
 33 12 109.07421875 -28.939453125 216.180664062 -20 c 0
 336 -10 400 41 398 141 c 0
 395.935546875 244.229492188 342 287 218 272 c 0
 47.0537109375 251.321289062 22 132 68 110 c 0
 95.65234375 96.775390625 109.129882812 108.83984375 128 134 c 0
 137 146 158 164 217.993164062 174 c 0
 273.620117188 183.272460938 302.1171875 182.17578125 301.606445312 142 c 0
 301.26171875 114.921875 280 92 224.180664062 82 c 0
 163.446289062 71.119140625 140.46875 80.0185546875 142 116 c 0
 144 163 174.653320312 227.701171875 222 264 c 0
 342 356 360.228515625 389.627929688 337 420 c 0
 308.526367188 457.23046875 231.646484375 397.995117188 180 364 c 0
EndSplineSet
EndChar

StartChar: uni2087
Encoding: 8327 8327 137
Width: 448
Flags: HW
LayerCount: 2
Fore
SplineSet
46 325 m 1
 46 325 109.536132812 348 139.536132812 352 c 0
 169.536132812 356 174.5703125 346.870117188 166.536132812 284 c 0
 159.236328125 226.874023438 144.606445312 185.614257812 109.555664062 182.767578125 c 0
 74.505859375 179.920898438 58.2138671875 209.177734375 56.84765625 249.1796875 c 0
 56 274 49.892578125 281 46 325 c 1
46 325 m 0
 47 381 100.995117188 400.071289062 240 410 c 0
 394 421 426 409 423 352 c 0
 419.583984375 287.08984375 356.10546875 307.732421875 232 298 c 0
 188.115234375 294.55859375 144 286 112 286 c 0
 74.3388671875 286 45.4287109375 292.989257812 46 325 c 0
410 311 m 0
 348.115234375 203.515625 290.559570312 108.986328125 265 66 c 0
 243 29 207.560546875 15.3359375 185 30 c 0
 165 43 166.286132812 80.3759765625 181.420898438 124.544921875 c 0
 197.149414062 170.446289062 232.30078125 265.506835938 328.30078125 367.143554688 c 0
 350.377929688 390.516601562 385.126953125 408.124023438 406.765625 392.131835938 c 0
 426.216796875 377.755859375 429 344 410 311 c 0
EndSplineSet
EndChar

StartChar: uni2088
Encoding: 8328 8328 138
Width: 508
Flags: HW
LayerCount: 2
Fore
SplineSet
289.59765625 343.103515625 m 0
 255.87109375 342.471679688 240.694335938 326.208007812 240.279296875 303.424804688 c 0
 239.850585938 279.905273438 253.306640625 271.5703125 284.235351562 272.709960938 c 0
 313.40625 273.784179688 328.004882812 294.505859375 327.596679688 314.68359375 c 0
 327.225585938 333.041015625 319.596679688 343.666015625 289.59765625 343.103515625 c 0
290.674804688 430.036132812 m 0
 353.224609375 432.741210938 439.9921875 410.995117188 439.9921875 332.901367188 c 0
 439.9921875 250.359375 382.067382812 206.228515625 281.986328125 203.524414062 c 0
 174.16796875 200.611328125 120.3125 252.4140625 122.875976562 311.452148438 c 0
 126.354492188 391.567382812 223.987304688 427.153320312 290.674804688 430.036132812 c 0
283.508789062 189.578125 m 0
 232.979492188 188.012695312 208.771484375 164.104492188 207.479492188 136.065429688 c 0
 206.2265625 108.873046875 228.666015625 98.8994140625 274.50390625 101.732421875 c 0
 316.7109375 104.340820312 341.975585938 123.000976562 340.529296875 160.159179688 c 0
 339.806640625 178.7421875 327.09765625 190.928710938 283.508789062 189.578125 c 0
282.184570312 247.630859375 m 0
 354.497070312 251.614257812 454 251.682617188 454 154 c 0
 454 50.18359375 387.840820312 7.37890625 272.140625 3.39453125 c 0
 147.495117188 -0.8974609375 85.5263671875 51.837890625 89 121 c 0
 94.052734375 221.606445312 205.08984375 243.383789062 282.184570312 247.630859375 c 0
EndSplineSet
EndChar

StartChar: uni2089
Encoding: 8329 8329 139
Width: 428
Flags: HW
LayerCount: 2
Fore
SplineSet
254.129882812 46.69140625 m 0
 333.129882812 98.69140625 395.91796875 185.673828125 397.94921875 268.69140625 c 0
 401.129882812 398.69140625 325.055664062 439.630859375 217.94921875 430.69140625 c 0
 98.1298828125 420.69140625 34.1298828125 369.69140625 36.1298828125 269.69140625 c 0
 38.1943359375 166.461914062 92.1298828125 123.69140625 216.129882812 138.69140625 c 0
 387.076171875 159.370117188 412.129882812 278.69140625 366.129882812 300.69140625 c 0
 338.478515625 313.916015625 325 301.8515625 306.129882812 276.69140625 c 0
 297.129882812 264.69140625 276.129882812 246.69140625 216.13671875 236.69140625 c 0
 160.509765625 227.418945312 132.012695312 228.515625 132.5234375 268.69140625 c 0
 132.868164062 295.76953125 154.129882812 318.69140625 209.94921875 328.69140625 c 0
 270.68359375 339.572265625 293.661132812 330.672851562 292.129882812 294.69140625 c 0
 290.129882812 247.69140625 259.4765625 182.990234375 212.129882812 146.69140625 c 0
 92.1298828125 54.69140625 73.9013671875 21.0634765625 97.1298828125 -9.30859375 c 0
 125.603515625 -46.5390625 202.483398438 12.6962890625 254.129882812 46.69140625 c 0
EndSplineSet
EndChar

StartChar: uni2081
Encoding: 8321 8321 140
Width: 270
Flags: HW
LayerCount: 2
Fore
SplineSet
118 303 m 0
 106.727539062 300 95.13671875 297.377929688 67 298 c 0
 26.9970703125 298.884765625 21.185546875 323.09375 24 344 c 0
 31 396 115 432 160 431 c 0
 205 430 224.739257812 412 227.739257812 321 c 0
 227.94140625 309.846679688 228 297.006835938 228 282 c 0
 228 220 227 190 227 172 c 0
 227 63.92578125 224 35 214 22 c 0
 204 9 194 0 169 0 c 0
 144 0 120 6 118 54 c 0
 116 102 113 383 119 401 c 1
 118.9921875 400.991210938 154.556640625 385.3125 155 376 c 0
 156 355 148.727539062 316 118 303 c 0
EndSplineSet
EndChar

StartChar: uni2082
Encoding: 8322 8322 141
Width: 449
Flags: HW
LayerCount: 2
Fore
SplineSet
47 24 m 4
 48 80 112.055664062 108.256835938 251 119 c 4
 341.53125 126 397 118 394 61 c 4
 390.583984375 -3.91015625 333.53125 8 243 -3 c 4
 159.400390625 -13.158203125 145 -15 113 -15 c 4
 75.3388671875 -15 46.4287109375 -8.0107421875 47 24 c 4
125.53125 25 m 4
 71.876953125 6.9384765625 21.458984375 33.3759765625 79.5361328125 75 c 4
 199.53125 161 255.536132812 215.490234375 255.536132812 260 c 4
 255.536132812 292.305664062 235.188476562 308.495117188 201.34375 302.509765625 c 4
 138.045898438 291.315429688 140.250976562 271.047851562 104.858398438 267.125 c 4
 69.466796875 263.203125 23.3193359375 305.564453125 80.5224609375 358.7421875 c 4
 122.275390625 397.557617188 155.44140625 408.643554688 219.34375 414.509765625 c 4
 283.306640625 420.381835938 367.53125 395.706054688 367.53125 283 c 4
 367.53125 162.490234375 226.53125 59 125.53125 25 c 4
EndSplineSet
EndChar

StartChar: uni2083
Encoding: 8323 8323 142
Width: 463
Flags: HW
LayerCount: 2
Fore
SplineSet
41.4462890625 338.94140625 m 0
 42.4462890625 394.94140625 106.44140625 409.012695312 185.446289062 413.94140625 c 0
 339.5390625 423.5546875 391.446289062 412.94140625 388.446289062 355.94140625 c 0
 385.030273438 291.03125 301.288085938 314.599609375 177.446289062 301.94140625 c 0
 153.561523438 299.5 129.446289062 296.94140625 97.4462890625 296.94140625 c 0
 59.78515625 296.94140625 40.875 306.930664062 41.4462890625 338.94140625 c 0
391 336 m 0
 381 307 352.604492188 282.803710938 325 260 c 0
 279 222 263 210 222 184 c 0
 182.16796875 158.740234375 165.434570312 150.908203125 148.404296875 171.357421875 c 0
 133.094726562 189.740234375 127.123046875 214.150390625 159.07421875 248.684570312 c 0
 201 294 223 312 242 336 c 0
 289.307617188 395.7578125 295.956054688 426.94140625 360.446289062 403.94140625 c 0
 388.893554688 393.795898438 399.96875 362.010742188 391 336 c 0
148.404296875 171.357421875 m 0
 135 190 190.41015625 199.877929688 201 209 c 0
 302 296 410 222.10546875 410 146 c 0
 410 81 378 0 210.5 -10 c 0
 65.6337890625 -18.6484375 48.5 89 48.5 126 c 0
 48.5 150.819335938 68.9921875 174 100 174 c 0
 127 174 141.5 162 143.5 132 c 0
 145.77734375 97.841796875 196.615234375 91.68359375 214.5 94 c 0
 274.493164062 101.771484375 299 114 299 142 c 0
 299 164.42578125 277.701171875 169.182617188 237 162 c 0
 203 156 168.091796875 143.9765625 148.404296875 171.357421875 c 0
EndSplineSet
EndChar

StartChar: zero.numr
Encoding: 65545 -1 143
Width: 448
Flags: HW
LayerCount: 2
Fore
SplineSet
233.508789062 521.23828125 m 4
 192 518 172.537109375 480.6171875 171.479492188 419.93359375 c 4
 170.555664062 366.970703125 187.743164062 343.313476562 224.50390625 349.22265625 c 4
 256.666992188 354.392578125 277.469726562 389.499023438 276.529296875 458.36328125 c 4
 275.90625 503.95703125 267.087890625 523.858398438 233.508789062 521.23828125 c 4
232.184570312 648.000976562 m 4
 304.497070312 653.560546875 393.245117188 619.131835938 393.245117188 468.844726562 c 4
 393.245117188 315.580078125 337.840820312 228.954101562 222.140625 223.39453125 c 4
 97.4951171875 217.404296875 46.59765625 319.821289062 49.7578125 424.741210938 c 4
 54.408203125 579.1328125 155.08984375 642.073242188 232.184570312 648.000976562 c 4
EndSplineSet
EndChar

StartChar: one.numr
Encoding: 65546 -1 144
Width: 270
Flags: HW
LayerCount: 2
Fore
SplineSet
118 513 m 0
 106.727539062 510 95.13671875 507.377929688 67 508 c 0
 26.9970703125 508.884765625 21.185546875 533.09375 24 554 c 0
 31 606 115 642 160 641 c 0
 205 640 224.739257812 622 227.739257812 531 c 0
 227.94140625 519.846679688 228 507.006835938 228 492 c 0
 228 430 227 400 227 382 c 0
 227 273.92578125 224 245 214 232 c 0
 204 219 194 210 169 210 c 0
 144 210 120 216 118 264 c 0
 116 312 113 593 119 611 c 1
 118.9921875 610.991210938 154.556640625 595.3125 155 586 c 0
 156 565 148.727539062 526 118 513 c 0
EndSplineSet
EndChar

StartChar: two.numr
Encoding: 65547 -1 145
Width: 449
Flags: HW
LayerCount: 2
Fore
SplineSet
47 234 m 4
 48 290 112.055664062 318.256835938 251 329 c 4
 341.53125 336 397 328 394 271 c 4
 390.583984375 206.08984375 333.53125 218 243 207 c 4
 159.400390625 196.841796875 145 195 113 195 c 4
 75.3388671875 195 46.4287109375 201.989257812 47 234 c 4
125.53125 235 m 4
 71.876953125 216.938476562 21.458984375 243.375976562 79.5361328125 285 c 4
 199.53125 371 255.536132812 425.490234375 255.536132812 470 c 4
 255.536132812 502.305664062 235.188476562 518.495117188 201.34375 512.509765625 c 4
 138.045898438 501.315429688 140.250976562 481.047851562 104.858398438 477.125 c 4
 69.466796875 473.203125 23.3193359375 515.564453125 80.5224609375 568.7421875 c 4
 122.275390625 607.557617188 155.44140625 618.643554688 219.34375 624.509765625 c 4
 283.306640625 630.381835938 367.53125 605.706054688 367.53125 493 c 4
 367.53125 372.490234375 226.53125 269 125.53125 235 c 4
EndSplineSet
EndChar

StartChar: three.numr
Encoding: 65548 -1 146
Width: 463
Flags: HW
LayerCount: 2
Fore
SplineSet
41.4462890625 548.94140625 m 0
 42.4462890625 604.94140625 106.44140625 619.012695312 185.446289062 623.94140625 c 0
 339.5390625 633.5546875 391.446289062 622.94140625 388.446289062 565.94140625 c 0
 385.030273438 501.03125 301.288085938 524.599609375 177.446289062 511.94140625 c 0
 153.561523438 509.5 129.446289062 506.94140625 97.4462890625 506.94140625 c 0
 59.78515625 506.94140625 40.875 516.930664062 41.4462890625 548.94140625 c 0
391 546 m 0
 381 517 352.604492188 492.803710938 325 470 c 0
 279 432 263 420 222 394 c 0
 182.16796875 368.740234375 165.434570312 360.908203125 148.404296875 381.357421875 c 0
 133.094726562 399.740234375 127.123046875 424.150390625 159.07421875 458.684570312 c 0
 201 504 223 522 242 546 c 0
 289.307617188 605.7578125 295.956054688 636.94140625 360.446289062 613.94140625 c 0
 388.893554688 603.795898438 399.96875 572.010742188 391 546 c 0
148.404296875 381.357421875 m 0
 135 400 190.41015625 409.877929688 201 419 c 0
 302 506 410 432.10546875 410 356 c 0
 410 291 378 210 210.5 200 c 0
 65.6337890625 191.3515625 48.5 299 48.5 336 c 0
 48.5 360.819335938 68.9921875 384 100 384 c 0
 127 384 141.5 372 143.5 342 c 0
 145.77734375 307.841796875 196.615234375 301.68359375 214.5 304 c 0
 274.493164062 311.771484375 299 324 299 352 c 0
 299 374.42578125 277.701171875 379.182617188 237 372 c 0
 203 366 168.091796875 353.9765625 148.404296875 381.357421875 c 0
EndSplineSet
Substitution2: "'ss08' Style Set 8 in Latin lookup 7-1" three.ss08.numr
EndChar

StartChar: four.numr
Encoding: 65549 -1 147
Width: 478
Flags: HW
LayerCount: 2
Fore
SplineSet
42 355 m 0
 71.4404296875 463.669921875 93.095703125 529.212890625 99.9697265625 580.669921875 c 0
 106.146484375 626.905273438 138.356445312 639.279296875 164.286132812 632.094726562 c 0
 187.595703125 625.63671875 196.873046875 609.421875 200.44921875 562.869140625 c 0
 204.026367188 516.31640625 189.471679688 448.307617188 137.927734375 320.19921875 c 0
 125.926757812 290.372070312 90.04296875 269.057617188 65.732421875 280.58984375 c 0
 43.8798828125 290.95703125 34.095703125 325.823242188 42 355 c 0
346.272460938 532 m 0
 354.272460938 510 355.272460938 485 355.272460938 423 c 0
 355.272460938 361 354.272460938 438 354.272460938 423 c 0
 354.272460938 314.92578125 351.272460938 246 341.272460938 233 c 0
 331.272460938 220 321.272460938 211 296.272460938 211 c 0
 271.272460938 211 247.272460938 217 245.272460938 265 c 0
 243.272460938 313 240.272460938 524 246.272460938 542 c 0
 252.272460938 560 265.272460938 572 287.272460938 572 c 0
 309.272460938 572 336.180664062 559.751953125 346.272460938 532 c 0
46.4521484375 315 m 0
 47.4521484375 371 151.447265625 420.071289062 230.452148438 430 c 0
 383.639648438 449.250976562 446.452148438 429 443.452148438 372 c 0
 440.036132812 307.08984375 341.3046875 355.029296875 222.452148438 318 c 0
 198.567382812 310.55859375 144.73828125 283.458984375 112.452148438 276 c 0
 75.7578125 267.522460938 45.880859375 282.989257812 46.4521484375 315 c 0
EndSplineSet
EndChar

StartChar: five.numr
Encoding: 65550 -1 148
Width: 463
Flags: HW
LayerCount: 2
Fore
SplineSet
58.25 456.41796875 m 0
 62 484 68.572265625 497.484375 75.4462890625 548.94140625 c 0
 81.623046875 595.176757812 113.833007812 607.549804688 139.762695312 600.366210938 c 0
 163.072265625 593.908203125 185.21875 585.880859375 182.4765625 539.271484375 c 0
 179.4765625 488.271484375 168 474 160.046875 449.309570312 c 0
 150.189453125 418.708007812 122.543945312 387.590820312 96 392 c 0
 72.140625 395.96484375 54.177734375 426.465820312 58.25 456.41796875 c 0
75.4462890625 548.94140625 m 0
 76.4462890625 604.94140625 106.44140625 619.012695312 185.446289062 623.94140625 c 0
 339.5390625 633.5546875 391.446289062 622.94140625 388.446289062 565.94140625 c 0
 385.030273438 501.03125 301.288085938 524.599609375 177.446289062 511.94140625 c 0
 153.561523438 509.5 163.446289062 506.94140625 131.446289062 506.94140625 c 0
 93.78515625 506.94140625 74.875 516.930664062 75.4462890625 548.94140625 c 0
78 405 m 0
 64.595703125 423.642578125 82.3369140625 461.055664062 96 464 c 0
 277 503 410 482.10546875 410 366 c 0
 410 301 378 210 210.5 200 c 0
 65.6337890625 191.3515625 48.5 289 48.5 326 c 0
 48.5 350.819335938 68.9921875 374 100 374 c 0
 127 374 141.5 362 143.5 332 c 0
 145.77734375 297.841796875 196.615234375 301.68359375 214.5 304 c 0
 274.493164062 311.771484375 299 334 299 362 c 0
 299 384.42578125 277 409 166.595703125 395.642578125 c 0
 132.3203125 391.49609375 97.6875 377.619140625 78 405 c 0
EndSplineSet
EndChar

StartChar: six.numr
Encoding: 65551 -1 149
Width: 428
Flags: HW
LayerCount: 2
Fore
SplineSet
180 574 m 0
 101 522 38.2119140625 435.017578125 36.1806640625 352 c 0
 33 222 109.07421875 181.060546875 216.180664062 190 c 0
 336 200 400 251 398 351 c 0
 395.935546875 454.229492188 342 497 218 482 c 0
 47.0537109375 461.321289062 22 342 68 320 c 0
 95.65234375 306.775390625 109.129882812 318.83984375 128 344 c 0
 137 356 158 374 217.993164062 384 c 0
 273.620117188 393.272460938 302.1171875 392.17578125 301.606445312 352 c 0
 301.26171875 324.921875 280 302 224.180664062 292 c 0
 163.446289062 281.119140625 140.46875 290.018554688 142 326 c 0
 144 373 174.653320312 437.701171875 222 474 c 0
 342 566 360.228515625 599.627929688 337 630 c 0
 308.526367188 667.23046875 231.646484375 607.995117188 180 574 c 0
EndSplineSet
EndChar

StartChar: seven.numr
Encoding: 65552 -1 150
Width: 448
Flags: HW
LayerCount: 2
Fore
SplineSet
46 535 m 5
 46 535 109.536132812 558 139.536132812 562 c 4
 169.536132812 566 174.5703125 556.870117188 166.536132812 494 c 4
 159.236328125 436.874023438 144.606445312 395.614257812 109.555664062 392.767578125 c 4
 74.505859375 389.920898438 58.2138671875 419.177734375 56.84765625 459.1796875 c 4
 56 484 49.892578125 491 46 535 c 5
46 535 m 0
 47 591 100.995117188 610.071289062 240 620 c 0
 394 631 426 619 423 562 c 0
 419.583984375 497.08984375 356.10546875 517.732421875 232 508 c 0
 188.115234375 504.55859375 144 496 112 496 c 0
 74.3388671875 496 45.4287109375 502.989257812 46 535 c 0
410 521 m 0
 348.115234375 413.515625 290.559570312 318.986328125 265 276 c 0
 243 239 207.560546875 225.3359375 185 240 c 0
 165 253 166.286132812 290.375976562 181.420898438 334.544921875 c 0
 197.149414062 380.446289062 232.30078125 475.506835938 328.30078125 577.143554688 c 0
 350.377929688 600.516601562 385.126953125 618.124023438 406.765625 602.131835938 c 0
 426.216796875 587.755859375 429 554 410 521 c 0
EndSplineSet
EndChar

StartChar: eight.numr
Encoding: 65553 -1 151
Width: 508
Flags: HW
LayerCount: 2
Fore
SplineSet
289.59765625 553.103515625 m 0
 255.87109375 552.471679688 240.694335938 536.208007812 240.279296875 513.424804688 c 0
 239.850585938 489.905273438 253.306640625 481.5703125 284.235351562 482.709960938 c 0
 313.40625 483.784179688 328.004882812 504.505859375 327.596679688 524.68359375 c 0
 327.225585938 543.041015625 319.596679688 553.666015625 289.59765625 553.103515625 c 0
290.674804688 640.036132812 m 0
 353.224609375 642.741210938 439.9921875 620.995117188 439.9921875 542.901367188 c 0
 439.9921875 460.359375 382.067382812 416.228515625 281.986328125 413.524414062 c 0
 174.16796875 410.611328125 120.3125 462.4140625 122.875976562 521.452148438 c 0
 126.354492188 601.567382812 223.987304688 637.153320312 290.674804688 640.036132812 c 0
283.508789062 399.578125 m 0
 232.979492188 398.012695312 208.771484375 374.104492188 207.479492188 346.065429688 c 0
 206.2265625 318.873046875 228.666015625 308.899414062 274.50390625 311.732421875 c 0
 316.7109375 314.340820312 341.975585938 333.000976562 340.529296875 370.159179688 c 0
 339.806640625 388.7421875 327.09765625 400.928710938 283.508789062 399.578125 c 0
282.184570312 457.630859375 m 0
 354.497070312 461.614257812 454 461.682617188 454 364 c 0
 454 260.18359375 387.840820312 217.37890625 272.140625 213.39453125 c 0
 147.495117188 209.102539062 85.5263671875 261.837890625 89 331 c 0
 94.052734375 431.606445312 205.08984375 453.383789062 282.184570312 457.630859375 c 0
EndSplineSet
EndChar

StartChar: nine.numr
Encoding: 65554 -1 152
Width: 428
Flags: HW
LayerCount: 2
Fore
SplineSet
254.129882812 256.69140625 m 0
 333.129882812 308.69140625 395.91796875 395.673828125 397.94921875 478.69140625 c 0
 401.129882812 608.69140625 325.055664062 649.630859375 217.94921875 640.69140625 c 0
 98.1298828125 630.69140625 34.1298828125 579.69140625 36.1298828125 479.69140625 c 0
 38.1943359375 376.461914062 92.1298828125 333.69140625 216.129882812 348.69140625 c 0
 387.076171875 369.370117188 412.129882812 488.69140625 366.129882812 510.69140625 c 0
 338.478515625 523.916015625 325 511.8515625 306.129882812 486.69140625 c 0
 297.129882812 474.69140625 276.129882812 456.69140625 216.13671875 446.69140625 c 0
 160.509765625 437.418945312 132.012695312 438.515625 132.5234375 478.69140625 c 0
 132.868164062 505.76953125 154.129882812 528.69140625 209.94921875 538.69140625 c 0
 270.68359375 549.572265625 293.661132812 540.672851562 292.129882812 504.69140625 c 0
 290.129882812 457.69140625 259.4765625 392.990234375 212.129882812 356.69140625 c 0
 92.1298828125 264.69140625 73.9013671875 231.063476562 97.1298828125 200.69140625 c 0
 125.603515625 163.4609375 202.483398438 222.696289062 254.129882812 256.69140625 c 0
EndSplineSet
EndChar

StartChar: zero.dnom
Encoding: 65555 -1 153
Width: 448
Flags: HW
LayerCount: 2
Fore
SplineSet
233.508789062 311.23828125 m 4
 192 308 172.537109375 270.6171875 171.479492188 209.93359375 c 4
 170.555664062 156.970703125 187.743164062 133.313476562 224.50390625 139.22265625 c 4
 256.666992188 144.392578125 277.469726562 179.499023438 276.529296875 248.36328125 c 4
 275.90625 293.95703125 267.087890625 313.858398438 233.508789062 311.23828125 c 4
232.184570312 438.000976562 m 4
 304.497070312 443.560546875 393.245117188 409.131835938 393.245117188 258.844726562 c 4
 393.245117188 105.580078125 337.840820312 18.9541015625 222.140625 13.39453125 c 4
 97.4951171875 7.404296875 46.59765625 109.821289062 49.7578125 214.741210938 c 4
 54.408203125 369.1328125 155.08984375 432.073242188 232.184570312 438.000976562 c 4
EndSplineSet
EndChar

StartChar: one.dnom
Encoding: 65556 -1 154
Width: 270
Flags: HW
LayerCount: 2
Fore
SplineSet
118 303 m 0
 106.727539062 300 95.13671875 297.377929688 67 298 c 0
 26.9970703125 298.884765625 21.185546875 323.09375 24 344 c 0
 31 396 115 432 160 431 c 0
 205 430 224.739257812 412 227.739257812 321 c 0
 227.94140625 309.846679688 228 297.006835938 228 282 c 0
 228 220 227 190 227 172 c 0
 227 63.92578125 224 35 214 22 c 0
 204 9 194 0 169 0 c 0
 144 0 120 6 118 54 c 0
 116 102 113 383 119 401 c 1
 118.9921875 400.991210938 154.556640625 385.3125 155 376 c 0
 156 355 148.727539062 316 118 303 c 0
EndSplineSet
EndChar

StartChar: two.dnom
Encoding: 65557 -1 155
Width: 449
Flags: HW
LayerCount: 2
Fore
SplineSet
47 24 m 4
 48 80 112.055664062 108.256835938 251 119 c 4
 341.53125 126 397 118 394 61 c 4
 390.583984375 -3.91015625 333.53125 8 243 -3 c 4
 159.400390625 -13.158203125 145 -15 113 -15 c 4
 75.3388671875 -15 46.4287109375 -8.0107421875 47 24 c 4
125.53125 25 m 4
 71.876953125 6.9384765625 21.458984375 33.3759765625 79.5361328125 75 c 4
 199.53125 161 255.536132812 215.490234375 255.536132812 260 c 4
 255.536132812 292.305664062 235.188476562 308.495117188 201.34375 302.509765625 c 4
 138.045898438 291.315429688 140.250976562 271.047851562 104.858398438 267.125 c 4
 69.466796875 263.203125 23.3193359375 305.564453125 80.5224609375 358.7421875 c 4
 122.275390625 397.557617188 155.44140625 408.643554688 219.34375 414.509765625 c 4
 283.306640625 420.381835938 367.53125 395.706054688 367.53125 283 c 4
 367.53125 162.490234375 226.53125 59 125.53125 25 c 4
EndSplineSet
EndChar

StartChar: three.dnom
Encoding: 65558 -1 156
Width: 463
Flags: HW
LayerCount: 2
Fore
SplineSet
41.4462890625 338.94140625 m 0
 42.4462890625 394.94140625 106.44140625 409.012695312 185.446289062 413.94140625 c 0
 339.5390625 423.5546875 391.446289062 412.94140625 388.446289062 355.94140625 c 0
 385.030273438 291.03125 301.288085938 314.599609375 177.446289062 301.94140625 c 0
 153.561523438 299.5 129.446289062 296.94140625 97.4462890625 296.94140625 c 0
 59.78515625 296.94140625 40.875 306.930664062 41.4462890625 338.94140625 c 0
391 336 m 0
 381 307 352.604492188 282.803710938 325 260 c 0
 279 222 263 210 222 184 c 0
 182.16796875 158.740234375 165.434570312 150.908203125 148.404296875 171.357421875 c 0
 133.094726562 189.740234375 127.123046875 214.150390625 159.07421875 248.684570312 c 0
 201 294 223 312 242 336 c 0
 289.307617188 395.7578125 295.956054688 426.94140625 360.446289062 403.94140625 c 0
 388.893554688 393.795898438 399.96875 362.010742188 391 336 c 0
148.404296875 171.357421875 m 0
 135 190 190.41015625 199.877929688 201 209 c 0
 302 296 410 222.10546875 410 146 c 0
 410 81 378 0 210.5 -10 c 0
 65.6337890625 -18.6484375 48.5 89 48.5 126 c 0
 48.5 150.819335938 68.9921875 174 100 174 c 0
 127 174 141.5 162 143.5 132 c 0
 145.77734375 97.841796875 196.615234375 91.68359375 214.5 94 c 0
 274.493164062 101.771484375 299 114 299 142 c 0
 299 164.42578125 277.701171875 169.182617188 237 162 c 0
 203 156 168.091796875 143.9765625 148.404296875 171.357421875 c 0
EndSplineSet
Substitution2: "'ss08' Style Set 8 in Latin lookup 7-1" three.ss08.dnom
EndChar

StartChar: four.dnom
Encoding: 65559 -1 157
Width: 478
Flags: HW
LayerCount: 2
Fore
SplineSet
42 145 m 0
 71.4404296875 253.669921875 93.095703125 319.212890625 99.9697265625 370.669921875 c 0
 106.146484375 416.905273438 138.356445312 429.279296875 164.286132812 422.094726562 c 0
 187.595703125 415.63671875 196.873046875 399.421875 200.44921875 352.869140625 c 0
 204.026367188 306.31640625 189.471679688 238.307617188 137.927734375 110.19921875 c 0
 125.926757812 80.3720703125 90.04296875 59.0576171875 65.732421875 70.58984375 c 0
 43.8798828125 80.95703125 34.095703125 115.823242188 42 145 c 0
346.272460938 322 m 0
 354.272460938 300 355.272460938 275 355.272460938 213 c 0
 355.272460938 151 354.272460938 228 354.272460938 213 c 0
 354.272460938 104.92578125 351.272460938 36 341.272460938 23 c 0
 331.272460938 10 321.272460938 1 296.272460938 1 c 0
 271.272460938 1 247.272460938 7 245.272460938 55 c 0
 243.272460938 103 240.272460938 314 246.272460938 332 c 0
 252.272460938 350 265.272460938 362 287.272460938 362 c 0
 309.272460938 362 336.180664062 349.751953125 346.272460938 322 c 0
46.4521484375 105 m 0
 47.4521484375 161 151.447265625 210.071289062 230.452148438 220 c 0
 383.639648438 239.250976562 446.452148438 219 443.452148438 162 c 0
 440.036132812 97.08984375 341.3046875 145.029296875 222.452148438 108 c 0
 198.567382812 100.55859375 144.73828125 73.458984375 112.452148438 66 c 0
 75.7578125 57.5224609375 45.880859375 72.9892578125 46.4521484375 105 c 0
EndSplineSet
EndChar

StartChar: five.dnom
Encoding: 65560 -1 158
Width: 463
Flags: HW
LayerCount: 2
Fore
SplineSet
58.25 246.41796875 m 0
 62 274 68.572265625 287.484375 75.4462890625 338.94140625 c 0
 81.623046875 385.176757812 113.833007812 397.549804688 139.762695312 390.366210938 c 0
 163.072265625 383.908203125 185.21875 375.880859375 182.4765625 329.271484375 c 0
 179.4765625 278.271484375 168 264 160.046875 239.309570312 c 0
 150.189453125 208.708007812 122.543945312 177.590820312 96 182 c 0
 72.140625 185.96484375 54.177734375 216.465820312 58.25 246.41796875 c 0
75.4462890625 338.94140625 m 0
 76.4462890625 394.94140625 106.44140625 409.012695312 185.446289062 413.94140625 c 0
 339.5390625 423.5546875 391.446289062 412.94140625 388.446289062 355.94140625 c 0
 385.030273438 291.03125 301.288085938 314.599609375 177.446289062 301.94140625 c 0
 153.561523438 299.5 163.446289062 296.94140625 131.446289062 296.94140625 c 0
 93.78515625 296.94140625 74.875 306.930664062 75.4462890625 338.94140625 c 0
78 195 m 0
 64.595703125 213.642578125 82.3369140625 251.055664062 96 254 c 0
 277 293 410 272.10546875 410 156 c 0
 410 91 378 0 210.5 -10 c 0
 65.6337890625 -18.6484375 48.5 79 48.5 116 c 0
 48.5 140.819335938 68.9921875 164 100 164 c 0
 127 164 141.5 152 143.5 122 c 0
 145.77734375 87.841796875 196.615234375 91.68359375 214.5 94 c 0
 274.493164062 101.771484375 299 124 299 152 c 0
 299 174.42578125 277 199 166.595703125 185.642578125 c 0
 132.3203125 181.49609375 97.6875 167.619140625 78 195 c 0
EndSplineSet
EndChar

StartChar: six.dnom
Encoding: 65561 -1 159
Width: 428
Flags: HW
LayerCount: 2
Fore
SplineSet
180 364 m 0
 101 312 38.2119140625 225.017578125 36.1806640625 142 c 0
 33 12 109.07421875 -28.939453125 216.180664062 -20 c 0
 336 -10 400 41 398 141 c 0
 395.935546875 244.229492188 342 287 218 272 c 0
 47.0537109375 251.321289062 22 132 68 110 c 0
 95.65234375 96.775390625 109.129882812 108.83984375 128 134 c 0
 137 146 158 164 217.993164062 174 c 0
 273.620117188 183.272460938 302.1171875 182.17578125 301.606445312 142 c 0
 301.26171875 114.921875 280 92 224.180664062 82 c 0
 163.446289062 71.119140625 140.46875 80.0185546875 142 116 c 0
 144 163 174.653320312 227.701171875 222 264 c 0
 342 356 360.228515625 389.627929688 337 420 c 0
 308.526367188 457.23046875 231.646484375 397.995117188 180 364 c 0
EndSplineSet
EndChar

StartChar: seven.dnom
Encoding: 65562 -1 160
Width: 448
Flags: HW
LayerCount: 2
Fore
SplineSet
46 325 m 1
 46 325 109.536132812 348 139.536132812 352 c 0
 169.536132812 356 174.5703125 346.870117188 166.536132812 284 c 0
 159.236328125 226.874023438 144.606445312 185.614257812 109.555664062 182.767578125 c 0
 74.505859375 179.920898438 58.2138671875 209.177734375 56.84765625 249.1796875 c 0
 56 274 49.892578125 281 46 325 c 1
46 325 m 0
 47 381 100.995117188 400.071289062 240 410 c 0
 394 421 426 409 423 352 c 0
 419.583984375 287.08984375 356.10546875 307.732421875 232 298 c 0
 188.115234375 294.55859375 144 286 112 286 c 0
 74.3388671875 286 45.4287109375 292.989257812 46 325 c 0
410 311 m 0
 348.115234375 203.515625 290.559570312 108.986328125 265 66 c 0
 243 29 207.560546875 15.3359375 185 30 c 0
 165 43 166.286132812 80.3759765625 181.420898438 124.544921875 c 0
 197.149414062 170.446289062 232.30078125 265.506835938 328.30078125 367.143554688 c 0
 350.377929688 390.516601562 385.126953125 408.124023438 406.765625 392.131835938 c 0
 426.216796875 377.755859375 429 344 410 311 c 0
EndSplineSet
EndChar

StartChar: eight.dnom
Encoding: 65563 -1 161
Width: 508
Flags: HW
LayerCount: 2
Fore
SplineSet
289.59765625 343.103515625 m 0
 255.87109375 342.471679688 240.694335938 326.208007812 240.279296875 303.424804688 c 0
 239.850585938 279.905273438 253.306640625 271.5703125 284.235351562 272.709960938 c 0
 313.40625 273.784179688 328.004882812 294.505859375 327.596679688 314.68359375 c 0
 327.225585938 333.041015625 319.596679688 343.666015625 289.59765625 343.103515625 c 0
290.674804688 430.036132812 m 0
 353.224609375 432.741210938 439.9921875 410.995117188 439.9921875 332.901367188 c 0
 439.9921875 250.359375 382.067382812 206.228515625 281.986328125 203.524414062 c 0
 174.16796875 200.611328125 120.3125 252.4140625 122.875976562 311.452148438 c 0
 126.354492188 391.567382812 223.987304688 427.153320312 290.674804688 430.036132812 c 0
283.508789062 189.578125 m 0
 232.979492188 188.012695312 208.771484375 164.104492188 207.479492188 136.065429688 c 0
 206.2265625 108.873046875 228.666015625 98.8994140625 274.50390625 101.732421875 c 0
 316.7109375 104.340820312 341.975585938 123.000976562 340.529296875 160.159179688 c 0
 339.806640625 178.7421875 327.09765625 190.928710938 283.508789062 189.578125 c 0
282.184570312 247.630859375 m 0
 354.497070312 251.614257812 454 251.682617188 454 154 c 0
 454 50.18359375 387.840820312 7.37890625 272.140625 3.39453125 c 0
 147.495117188 -0.8974609375 85.5263671875 51.837890625 89 121 c 0
 94.052734375 221.606445312 205.08984375 243.383789062 282.184570312 247.630859375 c 0
EndSplineSet
EndChar

